<?xml version="1.0" encoding="UTF-8"?>
<svg id="Layer_1" data-name="Layer 1" xmlns="http://www.w3.org/2000/svg" viewBox="0 0 493.381 63.607">
  <defs>
    <style>
      .cls-1 {
        fill: #02182b;
      }

      .cls-2 {
        stroke: #ad0000;
      }

      .cls-2, .cls-3, .cls-4 {
        stroke-miterlimit: 10;
      }

      .cls-2, .cls-5 {
        fill: #ff2727;
      }

      .cls-6 {
        fill: #3f0000;
      }

      .cls-7, .cls-4 {
        fill: #f03127;
      }

      .cls-8 {
        fill: #701111;
      }

      .cls-3 {
        fill: #437a89;
        stroke: #3ca6bf;
      }

      .cls-4 {
        stroke: #f03127;
      }

      .cls-9 {
        fill: #ad0000;
      }
    </style>
  </defs>
  <path class="cls-8" d="M290.725,2.644c6.275,0,11.039,1.624,14.288,4.874,3.249,3.249,4.874,8.012,4.874,14.289v19.995c0,6.277-1.625,11.039-4.874,14.289-3.249,3.249-8.013,4.874-14.288,4.874h-32.493V2.644h32.493ZM294.89,21.806c0-4.999-2.5-7.498-7.499-7.498h-14.163v34.992h14.163c4.999,0,7.499-2.5,7.499-7.498v-19.995Z"/>
  <path class="cls-6" d="M290.725,61.945h-33.474V1.662h33.474c6.517,0,11.558,1.737,14.982,5.161,3.425,3.425,5.161,8.466,5.161,14.982v19.995c0,6.516-1.737,11.557-5.161,14.982-3.424,3.425-8.465,5.161-14.982,5.161ZM259.214,59.982h31.511c5.978,0,10.551-1.543,13.594-4.587,3.043-3.044,4.587-7.618,4.587-13.595v-19.995c0-5.977-1.543-10.551-4.587-13.595-3.043-3.043-7.616-4.586-13.594-4.586h-31.511v56.357ZM287.392,50.281h-15.144V13.326h15.144c5.548,0,8.48,2.932,8.48,8.48v19.995c0,5.547-2.932,8.48-8.48,8.48ZM274.21,48.318h13.181c4.447,0,6.518-2.071,6.518-6.517v-19.995c0-4.446-2.071-6.517-6.518-6.517h-13.181v33.029Z"/>
  <path class="cls-9" d="M262.034,57.162V6.445h28.691c5.202,0,9.105,1.265,11.6,3.76,2.495,2.496,3.76,6.399,3.76,11.601v19.995c0,5.202-1.265,9.105-3.76,11.601-2.495,2.495-6.397,3.76-11.6,3.76h-28.691ZM269.427,53.101h17.964c7.076,0,11.301-4.224,11.301-11.3v-19.995c0-7.076-4.224-11.3-11.301-11.3h-17.964v42.595Z"/>
  <path class="cls-7" d="M290.725,57.751h-29.28V5.856h29.28c5.364,0,9.407,1.323,12.016,3.933,2.61,2.61,3.933,6.653,3.933,12.017v19.995c0,5.364-1.323,9.407-3.933,12.017-2.609,2.609-6.652,3.933-12.016,3.933ZM262.623,56.573h28.102c5.041,0,8.804-1.207,11.184-3.588,2.381-2.381,3.588-6.144,3.588-11.185v-19.995c0-5.04-1.207-8.803-3.588-11.185-2.38-2.381-6.143-3.588-11.184-3.588h-28.102v49.539ZM287.391,53.69h-18.553V9.917h18.553c7.445,0,11.889,4.444,11.889,11.888v19.995c0,7.444-4.445,11.889-11.889,11.889ZM270.016,52.512h17.375c6.707,0,10.712-4.004,10.712-10.711v-19.995c0-6.707-4.004-10.711-10.712-10.711h-17.375v41.417Z"/>
  <path class="cls-8" d="M359.141,2.644h14.997v42.49c0,5.832-1.32,10.068-3.957,12.705-2.639,2.639-6.873,3.958-12.705,3.958h-19.163c-5.832,0-10.067-1.319-12.705-3.958-2.639-2.637-3.957-6.873-3.957-12.705V2.644h14.997v42.49c0,3.333,1.666,4.999,4.998,4.999h12.498c3.332,0,4.998-1.666,4.998-4.999V2.644Z"/>
  <path class="cls-6" d="M357.475,62.778h-19.163c-6.076,0-10.584-1.429-13.399-4.245-2.816-2.815-4.244-7.324-4.244-13.399V1.662h16.959v43.471c0,2.779,1.239,4.018,4.017,4.018h12.498c2.778,0,4.017-1.239,4.017-4.018V1.662h16.959v43.471c0,6.074-1.428,10.583-4.245,13.399-2.816,2.817-7.324,4.245-13.399,4.245ZM322.631,3.625v41.508c0,5.536,1.235,9.577,3.67,12.011,2.434,2.436,6.475,3.671,12.011,3.671h19.163c5.535,0,9.576-1.235,12.011-3.67,2.435-2.435,3.67-6.477,3.67-12.012V3.625h-13.034v41.508c0,3.857-2.123,5.981-5.979,5.981h-12.498c-3.856,0-5.979-2.124-5.979-5.981V3.625h-13.034Z"/>
  <path class="cls-9" d="M338.312,57.995c-4.76,0-8.13-.957-10.016-2.844-1.888-1.887-2.844-5.257-2.844-10.018V6.445h7.393v38.688c0,5.428,3.372,8.801,8.8,8.801h12.498c5.428,0,8.8-3.372,8.8-8.801V6.445h7.393v38.688c0,4.76-.957,8.13-2.844,10.017-1.887,1.887-5.257,2.844-10.017,2.844h-19.163Z"/>
  <path class="cls-7" d="M357.475,58.584h-19.163c-4.922,0-8.432-1.015-10.433-3.016-2.002-2.001-3.017-5.512-3.017-10.434V5.856h8.571v39.277c0,5.065,3.146,8.212,8.211,8.212h12.498c5.065,0,8.211-3.147,8.211-8.212V5.856h8.571v39.277c0,4.922-1.015,8.433-3.016,10.434-2.002,2.002-5.512,3.017-10.433,3.017ZM326.04,7.034v38.1c0,4.599.899,7.83,2.672,9.602,1.772,1.772,5.001,2.671,9.6,2.671h19.163c4.598,0,7.828-.899,9.601-2.672,1.773-1.772,2.671-5.003,2.671-9.601V7.034h-6.216v38.1c0,5.792-3.597,9.39-9.388,9.39h-12.498c-5.791,0-9.388-3.598-9.388-9.39V7.034h-6.216Z"/>
  <path class="cls-8" d="M433.807,60.963h-46.239V2.644h46.239v11.664h-31.243v11.247h24.577v11.664h-24.577v12.08h31.243v11.664Z"/>
  <path class="cls-6" d="M434.789,61.945h-48.202V1.662h48.202v13.626h-31.243v9.285h24.577v13.627h-24.577v10.118h31.243v13.627ZM388.549,59.982h44.277v-9.702h-31.243v-14.043h24.577v-9.702h-24.577v-13.21h31.243V3.625h-44.277v56.357Z"/>
  <polygon class="cls-9" points="391.37 57.162 391.37 6.445 430.006 6.445 430.006 10.506 398.763 10.506 398.763 29.356 423.34 29.356 423.34 33.417 398.763 33.417 398.763 53.101 430.006 53.101 430.006 57.162 391.37 57.162"/>
  <path class="cls-7" d="M430.595,57.751h-39.814V5.856h39.814v5.239h-31.243v17.672h24.577v5.239h-24.577v18.506h31.243v5.239ZM391.958,56.573h37.459v-2.884h-31.243v-20.861h24.577v-2.884h-24.577V9.917h31.243v-2.884h-37.459v49.539Z"/>
  <path class="cls-8" d="M461.991,49.299h30.409v11.664h-45.405V2.644h14.997v46.656Z"/>
  <path class="cls-6" d="M493.381,61.945h-47.368V1.662h16.959v46.656h30.409v13.627ZM447.975,59.982h43.443v-9.702h-30.409V3.625h-13.034v56.357Z"/>
  <polygon class="cls-9" points="450.796 57.162 450.796 6.445 458.189 6.445 458.189 53.101 488.598 53.101 488.598 57.162 450.796 57.162"/>
  <path class="cls-7" d="M489.187,57.751h-38.98V5.856h8.571v46.656h30.409v5.239ZM451.384,56.573h36.625v-2.884h-30.409V7.034h-6.216v49.539Z"/>
  <g>
    <path class="cls-5" d="M236.048,31.18h-2.426c-.316-7.366-6.238-13.279-13.607-13.581v-2.345c0-.287-.233-.521-.521-.521s-.521.233-.521.521v2.34c-7.472.232-13.49,6.23-13.754,13.694h-2.28c-.287,0-.521.233-.521.521s.233.521.521.521h2.28c.273,7.456,6.288,13.445,13.754,13.677v2.349c0,.287.233.521.521.521s.521-.233.521-.521v-2.354c7.436-.305,13.397-6.321,13.615-13.779h2.419c.287,0,.521-.233.521-.521s-.233-.521-.521-.521ZM220.015,44.782v-4.559c0-.287-.233-.521-.521-.521s-.521.233-.521.521v4.564c-6.794-.231-12.265-5.676-12.536-12.46h4.633c.287,0,.521-.233.521-.521s-.233-.521-.521-.521h-4.634c.263-6.792,5.737-12.245,12.537-12.476v4.574c0,.287.233.521.521.521s.521-.233.521-.521v-4.568c6.698.3,12.076,5.669,12.39,12.364h-4.487c-.287,0-.521.233-.521.521s.233.521.521.521h4.495c-.216,6.786-5.634,12.258-12.397,12.561Z"/>
    <path class="cls-9" d="M219.494,49.059c-.389,0-.706-.317-.706-.706v-2.17c-7.395-.321-13.383-6.277-13.746-13.67h-2.103c-.389,0-.706-.316-.706-.706s.316-.706.706-.706h2.102c.354-7.402,6.343-13.365,13.747-13.687v-2.161c0-.389.316-.706.706-.706s.706.317.706.706v2.168c7.272.389,13.195,6.302,13.598,13.572h2.25c.389,0,.706.317.706.706s-.316.706-.706.706h-2.24c-.307,7.378-6.235,13.377-13.608,13.77v2.178c0,.389-.317.706-.706.706ZM202.939,31.472c-.185,0-.335.15-.335.335s.15.335.335.335h2.459l.007.178c.269,7.341,6.232,13.271,13.575,13.498l.179.006v2.528c0,.185.15.335.335.335s.335-.15.335-.335v-2.532l.178-.007c7.322-.3,13.224-6.274,13.437-13.599l.005-.18h2.598c.185,0,.335-.15.335-.335s-.15-.335-.335-.335h-2.604l-.008-.177c-.31-7.22-6.209-13.108-13.43-13.404l-.178-.007v-2.523c0-.185-.15-.335-.335-.335s-.335.15-.335.335v2.519l-.179.006c-7.352.228-13.315,6.165-13.575,13.515l-.006.179h-2.458ZM219.159,44.979l-.192-.007c-6.856-.233-12.441-5.784-12.715-12.637l-.008-.193h4.826c.185,0,.335-.15.335-.335s-.15-.335-.335-.335h-4.826l.007-.192c.266-6.863,5.852-12.421,12.716-12.654l.192-.007v4.765c0,.185.15.335.335.335s.335-.15.335-.335v-4.762l.194.009c6.843.307,12.245,5.698,12.567,12.54l.009.194h-4.681c-.185,0-.335.15-.335.335s.15.335.335.335h4.686l-.006.191c-.218,6.838-5.741,12.434-12.574,12.74l-.194.009v-4.753c0-.185-.15-.335-.335-.335s-.335.15-.335.335v4.756ZM206.631,32.513c.359,6.508,5.646,11.763,12.157,12.081v-4.372c0-.389.316-.706.706-.706s.706.316.706.706v4.364c6.488-.39,11.715-5.687,12.019-12.181h-4.302c-.389,0-.706-.316-.706-.706s.316-.706.706-.706h4.292c-.4-6.493-5.515-11.597-12.009-11.983v4.373c0,.389-.317.706-.706.706s-.706-.317-.706-.706v-4.381c-6.519.319-11.807,5.581-12.158,12.098h4.44c.389,0,.706.317.706.706s-.317.706-.706.706h-4.439Z"/>
  </g>
  <g>
    <path class="cls-5" d="M219.494,49.071c-.396,0-.717-.322-.717-.717v-2.159c-3.589-.159-6.962-1.638-9.516-4.179-2.554-2.54-4.051-5.904-4.229-9.49h-2.092c-.396,0-.717-.322-.717-.717s.322-.717.717-.717h2.091c.174-3.59,1.67-6.957,4.224-9.501,2.555-2.545,5.93-4.026,9.522-4.185v-2.15c0-.396.322-.717.717-.717s.717.322.717.717v2.157c3.543.192,6.872,1.675,9.391,4.19,2.519,2.515,4.009,5.84,4.207,9.382h2.239c.396,0,.717.322.717.717s-.322.717-.717.717h-2.229c-.152,3.584-1.621,6.956-4.151,9.513-2.528,2.556-5.88,4.063-9.457,4.256v2.167c0,.396-.322.717-.717.717ZM202.939,31.484c-.178,0-.324.145-.324.324s.145.324.324.324h2.47l.007.19c.13,3.557,1.594,6.9,4.122,9.415,2.529,2.515,5.882,3.962,9.442,4.072l.191.006v2.54c0,.178.145.324.324.324s.324-.145.324-.324v-2.543l.189-.008c3.548-.145,6.88-1.619,9.382-4.149,2.504-2.532,3.94-5.884,4.044-9.439l.006-.191h2.61c.178,0,.324-.145.324-.324s-.145-.324-.324-.324h-2.615l-.008-.188c-.151-3.513-1.607-6.819-4.101-9.309-2.494-2.49-5.803-3.94-9.318-4.084l-.189-.008v-2.534c0-.178-.145-.324-.324-.324s-.324.145-.324.324v2.531l-.191.006c-3.563.111-6.918,1.559-9.447,4.078-2.528,2.518-3.99,5.866-4.117,9.426l-.007.19h-2.47ZM219.17,44.991l-.204-.007c-3.335-.113-6.477-1.473-8.846-3.83-2.369-2.355-3.747-5.487-3.88-8.819l-.008-.205h4.838c.178,0,.324-.145.324-.324s-.145-.324-.324-.324h-4.838l.008-.205c.129-3.335,1.506-6.471,3.875-8.83,2.37-2.36,5.514-3.722,8.852-3.835l.204-.007v4.777c0,.178.145.324.324.324s.324-.145.324-.324v-4.774l.206.009c3.288.147,6.385,1.512,8.719,3.842,2.334,2.329,3.704,5.423,3.859,8.71l.01.206h-4.693c-.178,0-.324.145-.324.324s.145.324.324.324h4.698l-.006.203c-.106,3.33-1.456,6.471-3.8,8.844-2.342,2.371-5.462,3.759-8.785,3.908l-.206.009v-4.765c0-.178-.145-.324-.324-.324s-.324.145-.324.324v4.768ZM206.644,32.525c.177,3.156,1.505,6.114,3.755,8.351,2.251,2.238,5.219,3.55,8.378,3.707v-4.359c0-.396.322-.717.717-.717s.717.322.717.717v4.351c3.146-.191,6.093-1.529,8.317-3.781,2.227-2.254,3.528-5.222,3.679-8.376h-4.29c-.396,0-.717-.322-.717-.717s.322-.717.717-.717h4.279c-.196-3.112-1.517-6.032-3.732-8.243-2.216-2.211-5.14-3.526-8.253-3.716v4.361c0,.396-.322.717-.717.717s-.717-.322-.717-.717v-4.368c-3.162.157-6.133,1.471-8.384,3.712-2.25,2.24-3.577,5.203-3.75,8.362h4.427c.396,0,.717.322.717.717s-.322.717-.717.717h-4.426Z"/>
    <path class="cls-9" d="M219.494,49.256c-.498,0-.903-.405-.903-.903v-1.983c-3.567-.201-6.921-1.697-9.462-4.224-2.54-2.527-4.054-5.872-4.274-9.436h-1.916c-.498,0-.903-.405-.903-.903s.405-.903.903-.903h1.915c.216-3.568,1.728-6.917,4.269-9.447,2.541-2.531,5.898-4.029,9.468-4.23v-1.974c0-.498.405-.903.903-.903s.903.405.903.903v1.983c3.521.233,6.831,1.732,9.337,4.233,2.506,2.501,4.011,5.808,4.25,9.328h2.065c.498,0,.902.405.902.903s-.405.903-.902.903h-2.052c-.194,3.561-1.679,6.914-4.195,9.458-2.515,2.543-5.848,4.066-9.404,4.3v1.992c0,.498-.405.903-.903.903ZM202.94,31.275c-.294,0-.532.239-.532.532s.239.532.532.532h2.268l.009.176c.176,3.538,1.658,6.865,4.175,9.368,2.517,2.504,5.853,3.969,9.394,4.126l.177.008v2.336c0,.294.239.532.532.532s.532-.239.532-.532v-2.342l.175-.01c3.529-.191,6.845-1.683,9.336-4.202,2.492-2.521,3.948-5.856,4.097-9.391l.008-.177h2.406c.293,0,.532-.239.532-.532s-.239-.532-.532-.532h-2.414l-.01-.175c-.195-3.494-1.67-6.783-4.153-9.261-2.483-2.478-5.775-3.947-9.27-4.136l-.175-.01v-2.333c0-.294-.239-.532-.532-.532s-.532.239-.532.532v2.327l-.177.008c-3.544.156-6.882,1.624-9.399,4.131-2.517,2.507-3.998,5.838-4.17,9.379l-.008.176h-2.267ZM219.494,48.863c-.28,0-.509-.228-.509-.509l-.011-2.361c-3.607-.112-7.004-1.577-9.566-4.126-2.561-2.548-4.044-5.936-4.176-9.54v-.011h-2.292c-.281,0-.509-.228-.509-.509s.228-.509.509-.509l2.291-.011c.128-3.608,1.609-6.999,4.171-9.551,2.563-2.552,5.962-4.019,9.572-4.132h.011v-2.351c0-.281.228-.509.509-.509s.509.228.509.509l.011,2.357c3.561.146,6.914,1.616,9.441,4.138,2.526,2.522,4.002,5.871,4.155,9.432v.011h2.438c.281,0,.509.228.509.509s-.228.509-.509.509l-2.43.011c-.105,3.602-1.56,6.999-4.097,9.564-2.535,2.563-5.911,4.056-9.506,4.204h-.011v2.366c0,.281-.228.509-.509.509ZM202.94,31.669c-.076,0-.139.062-.139.139s.062.139.139.139h2.649l.014.368c.128,3.51,1.573,6.809,4.067,9.291,2.495,2.482,5.804,3.909,9.317,4.018l.37.012v2.719c0,.076.062.139.138.139s.139-.062.139-.139v-2.721l.366-.015c3.501-.143,6.789-1.597,9.258-4.094,2.471-2.498,3.888-5.806,3.99-9.314l.01-.371h2.79c.076,0,.139-.062.139-.138s-.062-.139-.139-.139h-2.793l-.016-.366c-.149-3.467-1.586-6.729-4.047-9.185-2.461-2.457-5.726-3.888-9.194-4.03l-.366-.015v-2.712c0-.076-.062-.139-.139-.139s-.138.062-.138.139v2.71l-.37.012c-3.516.109-6.826,1.538-9.322,4.024-2.495,2.485-3.938,5.788-4.062,9.301l-.013.369h-2.649ZM219.356,45.183l-.395-.013c-3.382-.115-6.568-1.494-8.971-3.883-2.402-2.388-3.799-5.564-3.935-8.943l-.016-.397h5.031c.076,0,.139-.062.139-.139s-.062-.139-.139-.139h-5.031l.016-.397c.131-3.382,1.527-6.562,3.93-8.954,2.404-2.393,5.592-3.774,8.976-3.889l.395-.013v4.969c0,.076.062.139.138.139s.139-.062.139-.139v-4.968l.399.018c3.335.15,6.474,1.533,8.842,3.896,2.367,2.362,3.756,5.499,3.913,8.832l.019.4h-4.888c-.076,0-.139.062-.139.139s.062.138.139.138h4.889l-.013.394c-.107,3.376-1.476,6.561-3.854,8.968-2.375,2.404-5.539,3.812-8.909,3.963l-.399.018v-4.959c0-.076-.062-.138-.139-.138s-.138.062-.138.138v4.96ZM206.425,32.316v.012c.132,3.285,1.491,6.373,3.826,8.695,2.336,2.323,5.434,3.664,8.722,3.776h.012s0-4.576,0-4.576c0-.28.228-.509.509-.509s.509.228.509.509v4.571h.012c3.276-.147,6.353-1.516,8.662-3.854,2.312-2.34,3.642-5.437,3.746-8.72v-.012s-4.506,0-4.506,0c-.281,0-.509-.228-.509-.509s.228-.509.509-.509h4.499v-.012c-.152-3.241-1.504-6.29-3.805-8.587-2.302-2.297-5.355-3.642-8.597-3.788h-.012s0,4.58,0,4.58c0,.281-.228.509-.509.509s-.509-.228-.509-.509v-4.586h-.012c-3.291.112-6.391,1.455-8.728,3.782-2.336,2.326-3.693,5.418-3.821,8.706v.012s4.645,0,4.645,0c.281,0,.509.228.509.509s-.228.509-.509.509h-4.645ZM218.962,44.777l-.194-.01c-3.203-.159-6.221-1.495-8.5-3.76-2.277-2.264-3.63-5.273-3.809-8.472l-.011-.195h4.622c.294,0,.532-.239.532-.532s-.239-.532-.532-.532h-4.623l.011-.195c.175-3.203,1.526-6.215,3.804-8.483,2.279-2.269,5.3-3.606,8.505-3.766l.194-.01v4.563c0,.294.239.532.532.532s.532-.239.532-.532v-4.557l.196.012c3.156.192,6.129,1.531,8.373,3.77,2.243,2.238,3.587,5.208,3.786,8.363l.012.197h-4.476c-.294,0-.532.239-.532.532s.239.532.532.532h4.484l-.009.194c-.152,3.198-1.478,6.216-3.732,8.498-2.252,2.279-5.248,3.641-8.437,3.835l-.196.012v-4.548c0-.294-.239-.532-.532-.532s-.532.239-.532.532v4.554ZM206.841,32.71c.217,3.034,1.522,5.881,3.688,8.034,2.167,2.155,5.024,3.444,8.063,3.642v-4.163c0-.498.405-.903.903-.903s.903.405.903.903v4.153c3.025-.231,5.859-1.545,8-3.712,2.144-2.171,3.424-5.026,3.615-8.061h-4.094c-.498,0-.903-.405-.903-.903s.405-.903.903-.903h4.08c-.235-2.991-1.532-5.799-3.664-7.927-2.132-2.128-4.944-3.419-7.937-3.649v4.162c0,.498-.405.903-.903.903s-.903-.405-.903-.903v-4.172c-3.042.198-5.9,1.489-8.068,3.647-2.167,2.157-3.47,5.007-3.683,8.045h4.23c.498,0,.903.405.903.903s-.405.903-.903.903h-4.229Z"/>
  </g>
  <path class="cls-1" d="M251.108,31.803c0,8.784-3.105,16.281-9.314,22.49-6.21,6.21-13.706,9.314-22.489,9.314s-16.281-3.104-22.489-9.314c-6.21-6.209-9.314-13.706-9.314-22.49s3.104-16.279,9.314-22.489c6.209-6.209,13.705-9.314,22.489-9.314s16.28,3.105,22.489,9.314c6.209,6.21,9.314,13.707,9.314,22.489ZM236.57,31.803c0-4.784-1.681-8.86-5.043-12.221-3.362-3.362-7.437-5.043-12.222-5.043-4.725,0-8.784,1.681-12.176,5.043-3.394,3.362-5.089,7.437-5.089,12.221s1.695,8.86,5.089,12.222c3.392,3.362,7.451,5.043,12.176,5.043,4.785,0,8.86-1.681,12.222-5.043s5.043-7.435,5.043-12.222Z"/>
  <path class="cls-3" d="M219.305,59.232c-7.648,0-13.992-2.627-19.396-8.032-5.406-5.405-8.033-11.749-8.033-19.397s2.628-13.991,8.033-19.396c5.405-5.405,11.75-8.033,19.396-8.033s13.99,2.628,19.396,8.033c5.405,5.406,8.033,11.751,8.033,19.396s-2.628,13.992-8.033,19.397c-5.405,5.405-11.749,8.032-19.396,8.032ZM219.305,10.164c-5.898,0-11.031,2.123-15.256,6.311-4.235,4.196-6.384,9.353-6.384,15.328s2.148,11.132,6.385,15.329c4.224,4.187,9.356,6.31,15.255,6.31,5.965,0,11.118-2.128,15.315-6.325,4.197-4.196,6.325-9.349,6.325-15.315s-2.128-11.119-6.325-15.315c-4.196-4.196-9.349-6.324-15.314-6.324Z"/>
  <circle class="cls-4" cx="219.048" cy="31.799" r="3.333"/>
  <path class="cls-2" d="M219.048,35.317c-1.94,0-3.518-1.578-3.518-3.518s1.578-3.518,3.518-3.518,3.518,1.578,3.518,3.518-1.578,3.518-3.518,3.518ZM219.048,28.652c-1.735,0-3.147,1.412-3.147,3.147s1.412,3.147,3.147,3.147,3.147-1.412,3.147-3.147-1.412-3.147-3.147-3.147Z"/>
  <path class="cls-1" d="M63.865,61.839H28.953l-5.96-14.342h19.566l-10.622-23.989L15.288,61.839H0v-14.342h6.046L26.399,1.513h11.07l26.397,60.325Z"/>
  <polygon class="cls-3" points="31.622 57.758 29.232 52.294 48.828 52.294 31.935 13.428 12.632 57.758 4.081 57.758 4.081 52.294 8.703 52.294 29.055 5.594 34.813 5.594 57.595 57.758 31.622 57.758"/>
  <path class="cls-1" d="M122.446,61.839h-51.093V1.513h51.093v13.625h-37.469v9.367h28.953v13.625h-28.953v9.367h37.469v14.342Z"/>
  <polygon class="cls-3" points="75.433 57.758 75.433 5.594 118.365 5.594 118.365 11.058 80.897 11.058 80.897 28.586 109.85 28.586 109.85 34.049 80.897 34.049 80.897 52.294 118.365 52.294 118.365 57.758 75.433 57.758"/>
  <path class="cls-1" d="M185.344,61.839h-18.964l-21.118-23.709,5.96-13.625h15.754c1.305,0,2.412-.454,3.321-1.362.907-.908,1.362-2.015,1.362-3.321s-.455-2.412-1.362-3.321c-.909-.907-2.016-1.362-3.321-1.362h-23.418v46.7h-13.625V1.513h37.043c5.052,0,9.367,1.788,12.943,5.365,3.576,3.576,5.365,7.891,5.365,12.943s-1.786,9.367-5.354,12.943c-3.569,3.576-7.875,5.365-12.916,5.365l-3.059-.042,21.389,23.75Z"/>
  <path class="cls-3" d="M168.172,57.758l-18.107-20.429,3.825-8.743h13.085c2.386,0,4.532-.884,6.206-2.557,1.674-1.676,2.558-3.821,2.558-6.208s-.883-4.53-2.555-6.204c-1.68-1.676-3.825-2.56-6.209-2.56h-27.499v46.7h-5.464V5.594h32.962c3.963,0,7.252,1.364,10.058,4.17,2.806,2.806,4.17,6.096,4.17,10.058s-1.361,7.254-4.162,10.061c-2.791,2.797-6.063,4.16-10,4.166l-12.564-.171,21.509,23.879h-7.814Z"/>
</svg>