<?xml version="1.0" encoding="UTF-8"?>
<svg id="Layer_1" data-name="Layer 1" xmlns="http://www.w3.org/2000/svg" xmlns:xlink="http://www.w3.org/1999/xlink" viewBox="0 0 222.028 51.111">
  <defs>
    <style>
      .cls-1 {
        fill: url(#linear-gradient);
      }

      .cls-2 {
        fill: #fff;
      }

      .cls-3 {
        fill: #3f0000;
      }

      .cls-4 {
        fill: #f03127;
      }

      .cls-5 {
        fill: #ad0000;
      }
    </style>
    <linearGradient id="linear-gradient" x1="68.608" y1="24.935" x2="90.82" y2="24.935" gradientUnits="userSpaceOnUse">
      <stop offset=".007" stop-color="#d8f8ff"/>
      <stop offset=".498" stop-color="#fdfeff"/>
      <stop offset=".52" stop-color="#fff"/>
      <stop offset=".822" stop-color="#e2f9ff"/>
      <stop offset="1" stop-color="#d8f8ff"/>
    </linearGradient>
  </defs>
  <rect class="cls-3" x="85.458" y="-85.458" width="51.111" height="222.028" rx="14" ry="14" transform="translate(136.57 -85.458) rotate(90)"/>
  <rect class="cls-5" x="4.416" y="4" width="213.196" height="43.112" rx="10" ry="10"/>
  <rect class="cls-4" x="8.132" y="6.998" width="205.517" height="36.361" rx="10" ry="10"/>
  <rect class="cls-3" x="12.021" y="8.94" width="198.078" height="32.329" rx="10" ry="10"/>
  <rect class="cls-5" x="14.307" y="10.929" width="193.624" height="28.06" rx="10" ry="10"/>
  <polygon class="cls-3" points="41.617 34.757 37.41 29.695 37.41 34.757 29.945 34.757 29.945 15.599 36.357 15.599 40.555 20.65 40.555 15.599 48.02 15.599 48.02 34.757 41.617 34.757"/>
  <path class="cls-2" d="M46.02,32.757h-3.465l-7.146-8.597v8.597h-3.465v-15.157h3.474l7.137,8.586v-8.586h3.465v15.157Z"/>
  <polygon class="cls-3" points="48.885 34.757 48.885 15.599 66.935 15.599 63.712 22.968 63.712 27.292 65.877 27.292 65.877 34.757 48.885 34.757"/>
  <path class="cls-2" d="M63.877,32.757h-12.992v-15.157h12.992l-1.516,3.465h-8.012v2.382h7.362v3.464h-7.362v2.382h9.527v3.465Z"/>
  <polygon class="cls-3" points="113.535 34.757 113.535 34.066 113.175 34.757 108.583 34.757 108.224 34.068 108.224 34.757 100.759 34.757 100.759 15.599 107.465 15.599 110.879 22.435 114.295 15.599 121 15.599 121 34.757 113.535 34.757"/>
  <path class="cls-2" d="M118.999,32.757h-3.465v-6.864l-3.573,6.864h-2.165l-3.572-6.863v6.863h-3.465v-15.157h3.469l4.651,9.312,4.652-9.312h3.468v15.157Z"/>
  <polygon class="cls-3" points="129.919 34.757 129.487 33.769 129.05 34.757 120.792 34.757 129.275 15.599 134.694 15.599 143.178 34.757 129.919 34.757"/>
  <path class="cls-2" d="M140.105,32.757h-8.878l-1.516-3.465h4.976l-2.702-6.102-4.236,9.566h-3.884l6.712-15.157h2.815l6.713,15.157Z"/>
  <polygon class="cls-3" points="143.622 34.757 143.622 23.064 138.316 23.064 138.316 15.599 157.449 15.599 154.184 23.064 151.085 23.064 151.085 34.757 143.622 34.757"/>
  <path class="cls-2" d="M154.391,17.6l-1.516,3.465h-3.79v11.692h-3.464v-11.692h-5.306v-3.465h14.075Z"/>
  <path class="cls-3" d="M164.713,34.757c-2.634,0-4.914-.944-6.774-2.806-1.861-1.861-2.805-4.141-2.805-6.773s.944-4.911,2.806-6.772c1.861-1.861,4.141-2.806,6.773-2.806h8.471l-3.265,7.465h-5.206c-.61,0-1.073.19-1.5.616-.425.425-.615.888-.615,1.497s.19,1.073.616,1.5c.425.424.888.614,1.498.614h7.413v7.465h-7.413Z"/>
  <path class="cls-2" d="M170.126,32.757h-5.413c-2.094,0-3.88-.739-5.359-2.22-1.479-1.479-2.22-3.266-2.22-5.359s.74-3.879,2.22-5.358,3.266-2.22,5.359-2.22h5.413l-1.516,3.465h-3.897c-1.141,0-2.111.4-2.913,1.201-.801.802-1.201,1.772-1.201,2.912s.4,2.111,1.201,2.913c.802.801,1.772,1.201,2.913,1.201h5.413v3.465Z"/>
  <polygon class="cls-3" points="183.603 34.757 183.603 28.91 180.458 28.91 180.458 34.757 172.993 34.757 172.993 15.599 180.458 15.599 180.458 21.446 183.603 21.446 183.603 15.599 191.068 15.599 191.068 34.757 183.603 34.757"/>
  <path class="cls-2" d="M178.457,32.757h-3.465v-15.157h3.465v15.157ZM189.068,32.757h-3.465v-5.847h-6.713l1.516-3.464h5.197v-5.847h3.465v15.157Z"/>
  <g>
    <path class="cls-3" d="M67.237,19.768l-1.161-4.169h7.479l.51,1.946c.042.162.241.832.946,3.105.107.343.216.697.331,1.063.059-.178,1.114-3.36,1.185-3.582l.436-1.35h5.867l.389,1.441c.047.173.237.802.983,3.068.036.108.072.217.108.327.094-.297.184-.586.271-.866.717-2.307.901-2.974.947-3.166l.474-1.979,7.669-.007-1.349,4.125c-1.11,3.05-1.813,5.943-2.735,8.69-.923,2.747-1.481,4.416-1.674,5.004l-.441,1.339h-5.996l-.412-1.398c-.106-.358-.43-1.344-.971-2.959-.114-.342-.236-.7-.363-1.075-.111.311-.22.617-.326.917-.629,1.779-1.001,2.841-1.115,3.182l-.443,1.333h-5.976l-.428-1.365"/>
    <path class="cls-1" d="M90.82,17.062c-1.129,3.102-2.156,7.979-3.08,10.732s-1.483,4.425-1.678,5.015h-3.128c-.108-.367-.439-1.375-.992-3.028s-1.266-3.698-2.136-6.138h-.076c-.805,2.167-1.526,4.15-2.163,5.95-.636,1.798-1.012,2.871-1.127,3.217h-3.139c-.108-.345-.579-1.776-1.413-4.292s-1.927-7.603-3.28-11.368l3.572-.083c.072.273.396,2.31.97,4.162.574,1.85,1.264,4.036,2.069,6.557l.078-.007c.777-2.167,1.467-4.161,2.071-5.98.604-1.821.942-2.844,1.014-3.067h2.956c.093.345.432,1.402,1.014,3.17.583,1.766,1.226,3.725,1.931,5.878l.077.007c.827-2.499,1.521-4.651,2.082-6.455.561-1.805.888-3.876.982-4.265l3.396-.003Z"/>
  </g>
</svg>