<?xml version="1.0" encoding="UTF-8"?>
<svg id="Highlights" xmlns="http://www.w3.org/2000/svg" viewBox="0 0 528.236 498.053">
  <defs>
    <style>
      .cls-1 {
        fill: none;
      }

      .cls-2 {
        fill: #595959;
      }

      .cls-3 {
        fill: #030303;
      }

      .cls-4 {
        fill: #b5b5b5;
      }

      .cls-5 {
        fill: #fff;
      }

      .cls-6 {
        fill: #666;
      }

      .cls-7 {
        fill: #ad0000;
      }

      .cls-8 {
        fill: #9fc5ce;
      }

      .cls-9 {
        fill: #191919;
      }

      .cls-10 {
        fill: #626361;
      }
    </style>
  </defs>
  <g>
    <g>
      <path class="cls-8" d="M438.794,255.447c0,107.877-87.451,195.328-195.328,195.328-107.877,0-195.328-87.451-195.328-195.328,0-107.877,87.451-195.328,195.328-195.328,107.877,0,195.328,87.451,195.328,195.328Z"/>
      <path class="cls-6" d="M46.772,255.447c0-108.458,88.238-196.696,196.694-196.696,108.459,0,196.697,88.238,196.697,196.696s-88.238,196.696-196.697,196.696c-108.456,0-196.694-88.238-196.694-196.696ZM49.508,255.447c0,106.949,87.009,193.959,193.958,193.959s193.961-87.01,193.961-193.959c0-106.949-87.011-193.959-193.961-193.959-106.949,0-193.958,87.01-193.958,193.959Z"/>
    </g>
    <path class="cls-2" d="M243.466,451.248c-107.965,0-195.801-87.836-195.801-195.801,0-107.965,87.836-195.801,195.801-195.801,107.965,0,195.801,87.836,195.801,195.801,0,107.965-87.836,195.801-195.801,195.801ZM243.466,60.592c-107.443,0-194.855,87.411-194.855,194.855,0,107.443,87.411,194.855,194.855,194.855,107.443,0,194.855-87.411,194.855-194.855,0-107.443-87.411-194.855-194.855-194.855Z"/>
    <path class="cls-2" d="M46.214,255.447c0-108.765,88.487-197.252,197.253-197.252,108.765,0,197.252,88.487,197.252,197.252,0,108.765-88.487,197.253-197.252,197.253-108.766,0-197.253-88.488-197.253-197.253ZM50.064,255.447c0,106.644,86.76,193.403,193.403,193.403,106.643,0,193.402-86.759,193.402-193.403,0-106.643-86.759-193.402-193.402-193.402-106.643,0-193.403,86.759-193.403,193.402Z"/>
    <path class="cls-5" d="M66.863,299.538c111.312-32.382,238.351-69.424,359.641-104.823-.808-3.016-1.562-6.04-2.218-9.079-1.281-5.934-2.568-11.878-4.04-17.772L63.969,283.901c1,5.204,1.931,10.425,2.894,15.638Z"/>
    <path class="cls-5" d="M68.384,307.524c1,5.067,2.088,10.115,3.358,15.119,110.859-28.392,238.033-61.048,360.175-92.447-2.424-8.981-4.141-17.999-3.747-27.114l-359.786,104.441Z"/>
    <path class="cls-5" d="M428.694,313.375l-229.233,18.038-122.918,6.849c2.838,7.588,6.352,14.876,10.324,21.927.845.975,1.606,2,2.275,3.076,75.229,9.478,175.018,21.954,283.118,35.616,24.218-23.895,42.628-54.34,56.434-85.506Z"/>
    <path class="cls-5" d="M61.818,273.399c83.777-45.235,194.524-105.111,314.957-170.11-5.153-4.381-10.37-8.672-15.901-12.515-14.718-10.224-31.083-17.419-47.319-24.826l-177.075,129.029-79.06,55.562c1.103,7.678,2.753,15.285,4.398,22.86Z"/>
    <path class="cls-1" d="M436.53,247.251c0-103.52-83.919-187.439-187.439-187.439-103.52,0-187.439,83.919-187.439,187.439,0,103.52,83.919,187.439,187.439,187.439,103.52,0,187.439-83.919,187.439-187.439Z"/>
    <path class="cls-9" d="M487.827,240.028h-2.415s-32.574,0-32.574,0c-4.557-106.231-89.956-191.502-196.238-195.859V12.763s0-2.415,0-2.415c0-4.146-3.361-7.507-7.507-7.507-4.146,0-7.507,3.361-7.507,7.507v2.415s0,31.328,0,31.328c-107.756,3.346-194.546,89.848-198.36,197.485H12.762s-2.415,0-2.415,0c-4.146,0-7.507,3.361-7.507,7.507,0,4.146,3.361,7.507,7.507,7.507h2.415s30.471,0,30.471,0c3.936,107.524,90.677,193.899,198.351,197.242v33.874c0,4.146,3.361,7.507,7.507,7.507,4.146,0,7.507-3.361,7.507-7.507v-2.415s0-31.537,0-31.537c107.232-4.396,193.212-91.158,196.347-198.711h32.466s2.415,0,2.415,0c4.146,0,7.507-3.361,7.507-7.507,0-4.146-3.361-7.507-7.507-7.507ZM256.599,436.198v-63.334s0-2.415,0-2.415c0-4.146-3.361-7.507-7.507-7.507-4.146,0-7.507,3.361-7.507,7.507v2.415s0,63.412,0,63.412c-97.984-3.328-176.878-81.853-180.796-179.687h64.4s2.415,0,2.415,0c4.146,0,7.507-3.361,7.507-7.507,0-4.146-3.361-7.507-7.507-7.507h-2.415s-64.409,0-64.409,0c3.797-97.946,82.74-176.598,180.805-179.93v63.543s0,2.415,0,2.415c0,4.146,3.361,7.507,7.507,7.507,4.146,0,7.507-3.361,7.507-7.507v-2.415s0-63.464,0-63.464c96.593,4.332,174.152,81.763,178.683,178.304h-62.296s-2.415,0-2.415,0c-4.146,0-7.507,3.361-7.507,7.507,0,4.146,3.361,7.507,7.507,7.507h2.415s62.405,0,62.405,0c-3.121,97.863-81.25,176.781-178.792,181.156Z"/>
    <path class="cls-7" d="M249.092,498.053c-5.705,0-10.347-4.642-10.347-10.347v-31.139c-51.759-2.286-100.402-23.627-137.241-60.275-36.826-36.636-58.421-85.147-60.991-136.862H10.347c-5.705,0-10.347-4.642-10.347-10.347,0-5.705,4.642-10.347,10.347-10.347h30.154c2.512-51.766,24.082-100.335,60.921-137.024,36.849-36.698,85.522-58.067,137.322-60.356V10.347c0-5.705,4.642-10.347,10.347-10.347,5.705,0,10.347,4.642,10.347,10.347v31.114c51.095,2.763,99.099,24.157,135.433,60.425,36.331,36.266,57.812,84.221,60.669,135.303h32.287c5.705,0,10.347,4.641,10.347,10.347,0,5.705-4.642,10.347-10.347,10.347h-32.141c-2.186,51.684-23.379,100.311-59.858,137.197-36.456,36.861-84.798,58.596-136.389,61.382v31.244c0,5.705-4.641,10.347-10.347,10.347ZM10.347,244.415c-2.574,0-4.668,2.094-4.668,4.668,0,2.574,2.094,4.668,4.668,4.668h35.624s.1,2.736.1,2.736c1.877,51.295,22.987,99.516,59.439,135.78,36.466,36.277,84.823,57.134,136.163,58.728l2.751.086v36.627c0,2.574,2.094,4.668,4.668,4.668,2.574,0,4.667-2.094,4.667-4.668v-36.678l2.723-.112c51.171-2.097,99.225-23.346,135.307-59.831,36.113-36.515,56.823-84.858,58.318-136.125l.08-2.757h37.639c2.574,0,4.668-2.094,4.668-4.668,0-2.574-2.094-4.667-4.668-4.667h-37.71s-.116-2.718-.116-2.718c-2.174-50.669-23.177-98.345-59.141-134.244-35.969-35.904-83.691-56.821-134.377-58.899l-2.723-.112V10.347c0-2.574-2.094-4.668-4.667-4.668-2.574,0-4.668,2.094-4.668,4.668v36.496l-2.751.086c-51.382,1.595-99.767,22.48-136.243,58.807-36.464,36.316-57.548,84.593-59.368,135.94l-.097,2.739H10.347ZM244.424,439.214l-2.936-.1c-48.095-1.634-93.403-21.248-127.578-55.228-34.161-33.967-54.034-79.134-55.958-127.183l-.118-2.953h69.771c2.574,0,4.668-2.094,4.668-4.668,0-2.574-2.094-4.668-4.668-4.668H57.827l.115-2.95c1.864-48.101,21.712-93.327,55.886-127.348,34.185-34.032,79.523-53.675,127.66-55.31l2.936-.1v68.896c0,2.574,2.094,4.668,4.668,4.668,2.574,0,4.667-2.094,4.667-4.668V58.754l2.967.133c47.422,2.127,92.078,21.802,125.744,55.401,33.661,33.594,53.424,78.203,55.649,125.607l.14,2.973h-67.688c-2.574,0-4.668,2.094-4.668,4.667,0,2.574,2.094,4.668,4.668,4.668h67.751l-.093,2.93c-1.531,48.02-20.995,93.315-54.806,127.541-33.781,34.196-78.776,54.212-126.697,56.361l-2.967.133v-68.719c0-2.574-2.094-4.667-4.667-4.667-2.574,0-4.668,2.094-4.668,4.667v68.765ZM63.768,259.43c2.546,45.508,21.705,88.173,54.146,120.429,32.459,32.274,75.268,51.19,120.831,53.457v-62.867c0-5.705,4.642-10.347,10.347-10.347s10.347,4.641,10.347,10.347v62.755c45.375-2.762,87.869-22.053,119.944-54.522,32.113-32.507,50.885-75.305,53.053-120.8h-61.865c-5.705,0-10.347-4.642-10.347-10.347,0-5.705,4.642-10.347,10.347-10.347h61.711c-2.83-44.875-21.873-86.993-53.824-118.881-31.957-31.893-74.124-50.855-119.019-53.59v62.886c0,5.705-4.641,10.347-10.347,10.347-5.705,0-10.347-4.642-10.347-10.347v-62.997c-45.602,2.27-88.441,21.213-120.91,53.536-32.454,32.308-51.59,75.035-54.08,120.593h63.849c5.705,0,10.347,4.642,10.347,10.347s-4.642,10.347-10.347,10.347h-63.836Z"/>
  </g>
  <g>
    <path class="cls-5" d="M48.355,302.276l24.103,4.837.178-.883c-3.462-.669-6.862-1.41-10.164-2.249-1.187-.303-2.668.009-2.998-1.704l87.489,12.199c3.355-.027,9.058,4.48,11.467,4.694,2.731.241,12.235-4.408,16.17-4.89.366-.045.625-.062.821-.036l.25-2.07-116.804-13.921-10.512,4.025Z"/>
    <path class="cls-5" d="M72.636,306.229l-.178.883,71.738,14.403,9.397,5.568c-3.703-.598-7.389-1.249-11.119-1.704.366,1.49,2.302,4.007,2.57,5.14.455-.553,1.089-.446,1.785-.116,1.053.509,2.231,1.526,3.132,1.678,7.371,1.231,34.937-17.794,37.007-16.107-7.987,13.261-25.094,16.223-38.836,20.605l-3.052-5.14-.036-.062c-15.001,21.828-32.206,42.665-47.921,64.198,1.767-1.294,3.346-1.196,6.015-3.828,15.599-15.385,29.752-34.044,45.288-49.706l8.585-2.543-52.597,57.808c-1.446,1.223-6.193,2.882-8.147,3.4l.866.446-1.722,2.981c2.213-.58,4.658-.571,6.862-1.267l59.441-64.653c3.088-2.463,9.557-2.195,12.386-3.873,1.347-.803,1.571-2.552,2.65-3.346.696-.5,6.479-2.436,6.791-2.177-23.951,44.244-49.152,87.837-73.586,131.813,1.499-.143,2.981.143,3.427,1.713,4.569-4.319,21.506-6.639,26.557-12.377l97.475-120.766c3.025-2.775,8.968-2.347,11.976-4.283,2.784-1.794,5.345-8.344,8.835-10.851,4.042-2.909,22.425-12.404,27.119-13.957.883-.294,1.642-.571,2.597-.402l-.866,1.704c1.446-.446,2.418,1.669,2.57,1.713.687.196,2.347-1.133,2.561-.857l-.446,5.979,5.899,2.57c25.245-7.835,50.973-13.056,74.969-24.398.875-.41,2.918-2.133,3.436-.41,1.624-1.419,4.248-7.023,5.131-9.424-3.097.419-5.854-2.865-8.344-3.284-3.23-.535-15.688,7.523-20.302,9.299-16,6.166-34.517,9.165-50.723,15.233-1.481.428-3.213.125-3.623-1.544,15.92-6.425,35.338-10.218,50.723-17.321,2.998-1.383,8.272-4.631,10.878-6.657-7.166-3.561-8.924,1.776-15.215,4.034l-93.173,24.88-4.551-2.811,94.03-27.476c3.07-1.571,12.27-9.54,12.583-12.752.33-3.436-6.827-10.771-4.792-14.983l-93.263,24.817,58.826-19.409,6.193-6.693c-17.089.5-33.741,5.586-50.08,10.477l-1.249-1.472,27.307-12.493,4.328-5.069c-.803-1.24-1.642-1.178-2.927-1.33-5.916-.669-19.552,3.65-26.147,5.185.437.785.803,1.651.857,2.57.036.544.125,1.098-.062,1.624-12.993,1.758-27.048,7.835-39.818,9.415-.919.107-3.105.732-2.891-.759,10.593-2.677,21.078-5.809,31.653-8.576l-1.713-.848c-15.26,3.659-30.662,6.791-45.77,11.137l-.036-2.615,32.964-12.797-35.927,6.845-.518-3.462,94.646-32.911.848-1.285c-3.712-.054-6.782-1.258-10.628-.794-15.715,1.901-36.213,12.243-52.472,15.135-1.205.214-3.159,1.035-2.775-1.071l72.711-23.568-1.133-1.571c-11.396,2.936-22.89,6.969-34.419,9.272-1.294.259-1.624,1.535-2.945-.419,12.181-5.961,27.485-6.193,37.649-15.822l-91.558,32.509.857-1.276,109.522-42.37.857-1.713c.277-.286.625-.535.857-.857l-107.487,40.148-1.178-1.615c7.719-2.945,15.402-5.997,23.068-9.102l-.83-2.044-31.626,10.753-65.911-64.662-1.481,1.481,61.422,61.378c1.464,3.186,1.82,8.005-1.758,9.888l.857.446-.857,3.837c2.445-.651,6.434-2.32,8.147-2.561,1.678-.241,1.339.321,1.267,1.696-9.415,3.748-20.792,7.692-29.35,13.02-10.958,6.809-19.106,20.266-20.266,33.214l4.435-9.673,4.096-4.881c-2.615,5.872-2.454,10.914,1.347,16.215,2.445,3.4,8.951,7.558,7.719.892-1.392-7.523-4.64-10.61-2.481-19.516.687-2.82,5.497-10.833,7.532-13.011,2.436-2.606,7.514-5.577,10.709-5.551-12.797,8.558-16.045,24.915-9.441,38.595,11.994-3.766,25.54-7.157,38.122-8.192.937-.071,3.98-.687,3.828.83l-55.354,16.955-24.21,22.006,36.784,7.264-10.655,1.74-3.204-.384-.25,2.07c.714.071.464.58.419,1.704l-18.249,8.379c-3.864-1.392-6.809-4.248-10.807-5.399-22.524-6.523-49.929-7.969-74.148-12.699ZM120.227,450.348l71.265-129.85,4.025-.687-5.988,9.843c3.195.241,6.247-1.008,9.361-1.347,1.187-.125,2.044-1.196,1.758.91l-77.592,120.087-2.829,1.044ZM171.574,401.151l39.175-66.116-1.508-10.994-14.573,2.186,6.336-8.629,76.655-20.462c.473,2.276-.58,1.472-1.687,2.124-5.568,3.284-13.859,5.89-18.785,9.486-4.31,3.141-8.754,11.958-12.574,13.957-4.48,2.356-10.325.509-14.046,3.926l-57.737,75.781-1.258-1.258ZM196.383,291.139l2.561-13.27c12.743-3.677,25.094-8.915,38.497-9.834.437,2.418-.571,1.401-1.874,1.919-9.816,3.909-21.426,6.032-31.456,9.656-3.052,2.035-1.696,11.86-7.728,11.53ZM241.296,297.127c-1.339-.759.286-1.936.759-2.659,1.696-2.597,7.666-11.904,9.352-13.332,14.626-12.404,57.924-15.572,76.539-24.076l13.029,3.275-11.155,1.231c-22.782,9.325-51.615,13.359-73.8,22.907-5.604,2.409-9.183,9.664-14.724,12.654ZM299.47,307.389l-.33-2.463,67.508-20.623-9.584,6.238-57.594,16.848Z"/>
    <path class="cls-5" d="M141.635,142.62l5.345,5.345,1.481-1.481,12.877,5.515,54.739,53.114c3.784,1.74,24.067-5.765,29.493-6.434l.428,1.713.83,2.044c25.335-10.28,50.437-21.194,75.968-30.921,3.061-1.169,6.987-2.963,9.941-3.802,1.901-.544.794-1.196,2.258,1.017,1.794-2.534,3.935-4.935,5.979-7.282l-1.258-.41-59.067,23.951c-.571.187-.616-.812-.41-1.267.143-.303,1.642-1.901,3.614-3.909l-2.07-.544c-.473.616-.571.973-2.409.58l71.033-120.685-1.883-1.107-75.95,128.886-22.292,9.165,2.534-3.043-.857-1.615-89.8-59.941-20.525,11.11ZM219.54,200.839l-26.584-23.541c11.351,3.4,19.481,11.985,28.868,18.624l12.199,3.614-14.483,1.303Z"/>
    <path class="cls-5" d="M281.783,179.27l2.07.544c3.766-3.819,9.227-9.129,10.128-9.745,4.337-2.963,10.914-4.114,15.617-6.621,6.398-3.418,11.824-9.022,18.053-12.761l25.87-58.174c1.223.134,3.364-.732,2.775,1.214l-16.206,50.607c.187,1.544,9.566,7.38,11.146,7.808,1.856.509,2.615-1.339,4.292-1.401l-10.28-8.04,24.897-80.448-12.404-6.452.357-3.489c-1.303.303-2.588,1.339-4.274.848l3.418-5.979c-.803.152-2.008-.518-2.633.553l-6.086,10.325,1.883,1.107,2.534,1.276-50.402,100.857c-11.512,1.633-13.448,11.119-20.337,17.5-.178.17-.312.33-.419.473Z"/>
  </g>
  <path class="cls-5" d="M233.171,158.458c-1.273,3.673-1.451,8.891-4.278,11.984,1.303.933,10.007,7.995,11.119,6.848l2.567-20.545-9.408,1.713Z"/>
  <polyline class="cls-5" points="224.675 257.31 284.086 240.635 279.163 231.77 216.966 249.518"/>
  <polygon class="cls-4" points="231.952 173.179 226.37 168.581 231.147 158.673 237.534 157.664 231.952 173.179"/>
  <polyline class="cls-5" points="208.405 209.344 206.646 219.235 208.405 220.09 212.205 214.96 208.405 209.344"/>
  <path class="cls-5" d="M246.006,148.185v2.568c.811-.316,1.774-.375,2.558-.856l-2.986,31.652c.666.768,1.402,1.934,2.554,1.728,1.917-.343,3.858-33.889,5.588-38.075-2.387-.521-5.408,1.966-7.714,2.983Z"/>
  <g>
    <path class="cls-5" d="M336.531,176.682c-5.622,10.369,3.346,22.631,10.441,30.145l-6.845-2.133c5.542,9.075,15.84,15.153,25.665,18.829l-7.255.83-15.84-3.4c5.417,5.979,14.242,9.129,22.238,9.415l-11.976,2.57c-.268.303.714,2.597.857,3.418,1.508.901,3.445,2.811,4.283,4.283.509-1.722,2.561-.009,3.427.41,1.687.821,4.105,2.472,5.747,2.811,4.167.866,27.807-1.58,32.973-2.57,6.14-1.178,13.011-5.042,19.454-5.8,1.312-1.214-.098-1.553-1.276-1.696-3.837-.482-8.049-.428-11.878-.973-1.089-.152-4.658-.339-4.81-1.597,21.596-2.543,43.227-9.914,63.038-18.686,4.158-1.838,8.362-3.793,12.449-5.943l-1.169-2.267c-14.938,7.398-55.738,22.55-70.587,23.425-1.562.098-3.204.205-3.73-1.66,7.255-2.115,14.813-3.552,22.042-5.774,2.499-.767,5.247-1.642,8.174-2.597l-.571-1.794c-2.4.803-4.605,1.49-6.541,2.026-2.436.678-19.936,4.533-20.998,4.382-.883-.125-2.588-2.133-2.963-3.097,35.856-7.103,75.924-20.48,98.376-50.999,1.124-1.071,3.302,1.258,3.311,1.767.009.607-1.16,2.293-2.9,4.462l2.454.544c.598-.803,1.098-1.383,1.419-1.597,1.231-.794,2.543.321,2.561.875.009.223-.08.553-.259.964l2.508.928c.625-1.58,1.16-3.213,1.615-4.917-3.953-2.017-2.383-7.799-6.398-8.54l-.009-1.267c6.318-3.864,2.463-5.899-2.74-7.541-15.813-4.979-35.338-1.579-51.49-3.275-11.94-1.24-24.764-8.46-37.712-9.343-21.765-1.49-64.269,15.447-75.085,35.383ZM352.299,192.504c-1.303-6.693-9.022-14.278-3.989-20.293,9.165-10.958,32.17-23.523,46.243-25.647,14.519-2.195,25.549.33,39.068,5.247,2.517.919,16.241,6.63,16.741,8.067.527,1.526.348,4.721-.303,6.265-2.633,6.193-37.578,32.75-44.53,35.071-1.285.428-2.615.821-3.989.66l-49.241-9.37ZM360.857,199.768c-1.526-.535-4.239-.553-3.614-2.784l46.216,9.923c15.84-5.658,28.984-20.685,43.503-28.449,1.178-.634,1.972-1.526,3.543-1.16-12.663,9.334-24.549,20.882-37.73,29.449-4.631,3.007-8.005,4.337-13.805,3.712-8.201-.875-29.645-7.701-38.114-10.691ZM367.496,239.363c-.741-.152-7.469-2.392-5.979-3.855,3.739-.196,6.916-2.561,10.7-2.65,3.989-.098,8.924,1.82,12.832,1.856,7.416.071,14.938-3.364,22.684.357,0,.41-6.318,1.865-7.389,2.035-7.184,1.169-26.504,3.587-32.848,2.258ZM458.787,162.895c-1.651.848-3.9,7.924-9.138,6.684,4.203-3.909,5.14-8.522.857-12.823,3.016-.375,4.391,2.32,7.255,2.624,4.087.428,10.816-1.624,15.376-1.82,9.111-.393,17.178,1.847,26.138,1.767-1.142,2.133-1.169,3.837,0,5.97-3.445-.66-4.667-3.016-8.362-4.034-6.666-1.838-26.022-1.499-32.126,1.633Z"/>
    <path class="cls-5" d="M431.382,215.929l.571,1.794c20.935-6.836,50.785-18.258,63.02-32.331,1.58-1.812,5.015-7.514,7.148-10.378l-2.454-.544c-4.435,5.506-12.591,14.082-14.528,15.643-10.78,8.674-36.98,20.186-53.757,25.817Z"/>
    <path class="cls-5" d="M476.054,204.328l1.169,2.267c1.794-.946,3.57-1.928,5.301-2.954l-1.24-2.115c-1.455.848-2.963,1.66-4.533,2.454-.223.116-.455.232-.696.348Z"/>
    <path class="cls-5" d="M481.283,201.526l1.24,2.115c1.749-1.035,3.471-2.115,5.131-3.248l-1.098-2.276c-1.696,1.223-3.445,2.347-5.274,3.409Z"/>
    <path class="cls-5" d="M486.557,198.117l1.098,2.276c9.013-6.122,16.607-13.805,20.694-24.21l-2.508-.928c-1.642,3.846-10.468,14.921-12.529,17.036-2.16,2.213-4.391,4.123-6.755,5.827Z"/>
  </g>
  <polygon class="cls-5" points="410.386 235.417 388.456 237.211 380.407 232.852 397.501 230.919 412.859 235.052 410.386 235.417"/>
  <polygon class="cls-4" points="351.189 252.35 323.228 247.816 348.27 237.211 352.941 250.247 351.189 252.35"/>
  <polygon class="cls-4" points="364.883 271.155 253.048 301.95 248.877 299.656 358.075 268.032 364.883 271.155"/>
  <polygon class="cls-4" points="291.576 302.422 287.465 300.643 283.6 302.422 289.192 305.74 291.576 302.422"/>
  <polyline class="cls-4" points="302.538 161.299 290.002 167.183 290.824 163.211 302.538 157.63 302.538 161.299"/>
  <path class="cls-4" d="M109.958,460.63c-2.101,3.781-4.591,7.916-5.99,11.984h32.087s114.648-139.539,114.648-139.539c34.468-12.222,72.013-19.325,106.335-31.438,23.801-8.4,29.089-20.396,35.007-43.944,26.055-13.437,54.219-24.254,80.156-37.726,1.817-.944,6.537-2.539,5.263-5.007l-87.985,41.022-5.285,16.308c-4.045-4.031-13.156-6.711-16.697-10.672-3.782-4.23-6.39-15.683-9.401-20.984-.836-1.472-2.774-3.377-4.278-4.28,1.499,8.388,6.679,15.564,8.548,23.968-.204.257-4.833-3.704-5.141-4.078-2.441-2.97-5.271-13.003-8.541-13.042-2.031,4.208,5.125,11.545,4.792,14.983-.312,3.215-9.508,11.178-12.58,12.75l-94.03,27.476,4.546,2.812,93.18-24.878c6.285-2.259,8.045-7.593,15.215-4.039,2.59-2.014,5.194-4.312,6.006-7.7l15.872,10.26c.577.661-.28,1.16-.486,1.719-.883,2.393-3.51,8.001-5.134,9.416-4.309,3.755-11.047,7.673-15.796,11.161l-98.443,29.061c-1.119-1.542,2.349-4.171,3.452-5.107,7.476-6.345,17.197-11.129,24.367-17.995-.148-.042-1.119-2.155-2.567-1.712-7.281,6.346-18.192,10.942-25.224,17.138-6.433,5.668-6.778,11.266-17.517,12.436l-108.031,134.593-24.635.179c-.153-.114,1.55-3.263,1.711-3.415-.448-1.57-1.93-1.857-3.423-1.712Z"/>
  <path class="cls-4" d="M357.24,47.176l-3.418,5.987c1.69.488,2.974-.547,4.274-.851,7.071-1.653,14.218-2.399,21.388-3.419l-24.884,92.891c2.761,2.365,5.434,6.603,9.484,4.679l-2.417-4.454,23.805-98.252c-9.291.963-19.075,1.693-28.232,3.419Z"/>
  <path class="cls-4" d="M142.473,325.38c-1.557-.189-3.401-2.113-5.165.403l-53.865,79.649c-.188,1.434-.076,1.366,1.269,1.281,3.553-.224,7.285-1.688,10.7-2.58l1.718-2.979-.863-.445c-1.434.385-3.845,1.451-5.13.432,1.841-2.687,3.513-3.76,5.985-5.568,15.712-21.533,32.922-42.37,47.916-64.201-.047-.277.062-.587,0-.856-.262-1.133-2.196-3.647-2.567-5.136Z"/>
  <path class="cls-4" d="M228.893,170.442c1.059-3.258,3.005-8.311,4.278-11.984,1.268-3.658,8.931-6.184,12.835-7.704v-2.568c-4.094,1.806-15.077,5.631-17.509,8.592-.754.918-4.764,9.041-4.745,9.854.059,2.464,3.846,2.883,5.141,3.81Z"/>
  <path class="cls-4" d="M206.646,219.235l-1.704.855c.152-1.956-1.061-9.175-3.844-8.556l-6.441,14.111c.16,2.076,11.08-1.888,11.989-2.13l.855-3.84-.855-.44Z"/>
  <path class="cls-4" d="M191.489,320.499l-71.263,129.85,2.834-1.042,77.587-120.089c.287-2.103-.572-1.041-1.761-.911-3.107.338-6.158,1.586-9.352,1.345l5.985-9.84-4.029.687Z"/>
  <path class="cls-4" d="M350.407,59.162l-71.031,120.687c2.273.496,1.877-.174,2.829-1.056,6.888-6.38,8.825-15.863,20.333-17.495l50.402-100.861-2.534-1.276Z"/>
  <path class="cls-4" d="M148.463,146.482l65.91,64.667,31.63-10.76-.435-1.71c-5.42.674-25.705,8.178-29.486,6.431l-54.746-53.11-12.873-5.517Z"/>
  <path class="cls-4" d="M59.475,302.277c.327,1.712,1.807,1.4,2.997,1.701,26.453,6.678,58.574,7.495,84.314,14.948,3.992,1.156,6.937,4.013,10.801,5.406l18.253-8.38c.058-1.432.449-1.876-1.236-1.671-3.941.48-13.445,5.13-16.173,4.886-2.409-.215-8.117-4.714-11.471-4.694l-87.484-12.195Z"/>
  <polygon class="cls-4" points="299.139 304.922 299.47 307.39 357.066 290.538 366.652 284.3 299.139 304.922"/>
  <path class="cls-4" d="M401.736,226.093c.529,1.869,2.17,1.754,3.727,1.662,15.088-.891,56.953-16.514,71.292-23.777,6.261-3.171,11.632-6.639,16.555-11.686,2.285-2.342,12.876-15.702,12.791-18.004-.02-.547-1.327-1.666-2.561-.868-1.486.961-6.544,9.648-8.567,11.976-13.936,16.033-50.771,28.63-71.194,34.921-7.227,2.226-14.783,3.664-22.043,5.777Z"/>
  <path class="cls-4" d="M361.517,235.507c-1.492,1.46,5.241,3.702,5.98,3.857,6.346,1.327,25.668-1.088,32.85-2.256,1.071-.174,7.389-1.623,7.385-2.037-16.416-.888-15.268-.286-22.679-.354-3.914-.036-8.845-1.959-12.835-1.861-3.785.093-6.959,2.458-10.701,2.652Z"/>
  <path class="cls-10" d="M94.557,476.894l77.008-136.953c-.805-.632-8.732,2.139-9.453,3.802l-52.675,62.008-39.692,9.503,59.037-92.431-96.684-18.832,24.382-9.428,85.609,8.175c1.727-.185,8.421-5.501,9.668-7.02.998-1.216,9.153-15.34,9.309-16.264.254-1.503-1.367-4.586-1.468-6.729-.844-17.906,4.89-33.555,21.768-41.547l14.03-25.942-61.472-63.026,26.577-15.834,2.712-.302,54.161,36.697,7.876-10.33,33.589-15.378-4.31,49.927c2.769,2.897,6.416-.932,9.696-1.319l87.484-141.034,40.614-7.727-22.734,105.328c1.655,2.338,13.717-3.117,16.75-3.89,27.709-7.071,35.792.713,60.423,5.455,20.22,3.893,92.884-5.45,79.943,34.818-7.326,22.795-33.535,21.348-42.605,41.496l-85.57,42.133c-3.961,10.415-6.26,21.79-13.457,30.626-8.191,10.058-19.72,12.502-31.454,16.469-33.847,11.444-68.444,20.904-102.223,32.56l-109.31,134.166c-1.906,3.112-3.898.848-5.174.824-14.107-.265-28.253.197-42.355,0ZM354.606,47.731l-82.035,139.214-22.286,9.168,2.536-3.049-.857-1.617-89.804-59.938-20.525,11.112,66.771,66.723c.558.546-.903,6.624-1.758,9.891l-1.704.855c.152-1.956-1.061-9.175-3.844-8.556l-6.441,14.111c.16,2.076,11.08-1.888,11.989-2.13,2.446-.65,6.435-2.322,8.148-2.564,1.678-.236,1.336.322,1.265,1.698-9.417,3.743-20.791,7.696-29.352,13.019-10.956,6.812-19.109,20.267-20.268,33.211l4.441-9.668,4.098-4.88c-2.623,5.873-2.46,10.91,1.347,16.209,2.442,3.4,8.948,7.558,7.716.892-1.389-7.517-4.643-10.61-2.479-19.511.687-2.823,5.492-10.84,7.527-13.014,2.439-2.606,7.512-5.572,10.706-5.553-12.792,8.564-16.045,24.919-9.441,38.599,11.996-3.763,25.542-7.158,38.129-8.189.936-.077,3.974-.695,3.824.828l-55.357,16.957-24.207,22.007,36.783,7.262-10.658,1.735-120.007-14.303-10.505,4.028,95.84,19.235,9.393,5.57c-3.703-.602-7.387-1.25-11.118-1.704-1.557-.189-3.401-2.113-5.165.403l-53.865,79.649c-.188,1.434-.076,1.366,1.269,1.281,3.553-.224,7.285-1.688,10.7-2.58,2.21-.577,4.653-.573,6.861-1.271l59.442-64.651c3.082-2.465,9.558-2.192,12.386-3.873,1.344-.8,1.566-2.554,2.649-3.342.695-.505,6.482-2.436,6.794-2.182-23.955,44.246-49.151,87.843-73.585,131.817-2.101,3.781-4.591,7.916-5.99,11.984h32.087s114.648-139.539,114.648-139.539c34.468-12.222,72.013-19.325,106.335-31.438,23.801-8.4,29.089-20.396,35.007-43.944,26.055-13.437,54.219-24.254,80.156-37.726,1.817-.944,6.537-2.539,5.263-5.007l-87.985,41.022-5.285,16.308c-4.045-4.031-13.156-6.711-16.697-10.672-3.782-4.23-6.39-15.683-9.401-20.984.512-1.714,2.565-.002,3.434.418,1.684.815,4.098,2.469,5.743,2.811,4.168.866,27.804-1.58,32.975-2.575,6.134-1.18,13.01-5.042,19.456-5.799,1.309-1.216-.104-1.549-1.279-1.696-3.839-.482-8.051-.432-11.877-.971-1.087-.153-4.656-.341-4.811-1.595,21.594-2.549,43.227-9.921,63.041-18.686,19.243-8.512,39.399-19.453,45.189-41.276-3.954-2.012-2.385-7.802-6.405-8.544l-.002-1.261c6.312-3.864,2.461-5.899-2.743-7.539-15.815-4.983-35.338-1.586-51.488-3.274-11.945-1.249-24.769-8.465-37.716-9.348-21.766-1.485-64.269,15.451-75.084,35.387-5.621,10.362,3.35,22.626,10.44,30.141l-6.84-2.136c5.541,9.076,15.836,15.155,25.663,18.835l-7.252.83-15.843-3.401c5.418,5.982,14.242,9.131,22.242,9.416l-11.979,2.566c-.269.3.713,2.593.86,3.417,1.499,8.388,6.679,15.564,8.548,23.968-.204.257-4.833-3.704-5.141-4.078-2.441-2.97-5.271-13.003-8.541-13.042l-93.261,24.815,58.829-19.406,6.192-6.697c-17.092.499-33.742,5.589-50.08,10.477l-1.252-1.474,27.31-12.491,4.329-5.069c-.808-1.238-1.649-1.179-2.935-1.326-5.916-.675-19.545,3.648-26.139,5.179-4.035.936-8.026,2.475-11.979,3.424-15.261,3.665-30.666,6.797-45.765,11.141l-.043-2.612,32.97-12.8-35.927,6.844-.516-3.456,94.641-32.92.846-1.285c-3.712-.046-6.779-1.256-10.624-.792-15.718,1.899-36.215,12.248-52.471,15.133-1.207.214-3.161,1.035-2.781-1.069l72.72-23.566-1.135-1.569c-11.397,2.933-22.893,6.969-34.423,9.272-1.295.259-1.625,1.529-2.94-.419,12.178-5.964,27.477-6.199,37.644-15.823l-91.554,32.511.853-1.277,109.525-42.37c1.021-.223.722-1.571.856-1.712.271-.287.623-.541.856-.856,1.152-1.562,1.672-3.021,2.567-4.28,1.799-2.532,3.935-4.936,5.985-7.28l-1.258-.407-59.066,23.946c-.577.186-.621-.812-.415-1.267.4-.882,12.366-12.714,13.739-13.652,4.338-2.962,10.914-4.11,15.624-6.625,6.397-3.416,11.821-9.021,18.051-12.758l25.866-58.171c1.223.136,3.365-.734,2.774,1.21l-16.203,50.608c.187,1.547,9.563,7.383,11.148,7.813,1.855.503,2.613-1.345,4.287-1.403l-10.28-8.04,24.898-80.449-12.401-6.451.353-3.491c7.071-1.653,14.218-2.399,21.388-3.419l-24.884,92.891c2.761,2.365,5.434,6.603,9.484,4.679l-2.417-4.454,23.805-98.252c-9.291.963-19.075,1.693-28.232,3.419-.805.152-2.006-.513-2.634.555ZM228.497,156.777c-.754.918-4.764,9.041-4.745,9.854.059,2.464,3.846,2.883,5.141,3.81,1.303.933,10.007,7.995,11.119,6.848l2.567-20.545-9.408,1.713c1.268-3.658,8.931-6.184,12.835-7.704.811-.316,1.774-.375,2.558-.856l-2.986,31.652c.666.768,1.402,1.934,2.554,1.728,1.917-.343,3.858-33.889,5.588-38.075-2.387-.521-5.408,1.966-7.714,2.983-4.094,1.806-15.077,5.631-17.509,8.592Z"/>
  <path class="cls-10" d="M334.993,168.73c-1.462-2.211-.352-1.561-2.256-1.018-2.953.843-6.881,2.636-9.936,3.801-33.252,12.677-65.788,27.357-99.043,40.027l1.183,1.615,107.485-40.145c1.152-1.562,1.672-3.021,2.567-4.28Z"/>
  <path class="cls-3" d="M330.715,175.578c1.021-.223.722-1.571.856-1.712l-.856,1.712Z"/>
  <path class="cls-10" d="M113.381,462.342c-.161.152-1.864,3.301-1.711,3.415l24.635-.179,108.031-134.593c10.739-1.17,11.084-6.768,17.517-12.436,7.032-6.196,17.943-10.792,25.224-17.138l.861-1.704c-.956-.17-1.71.11-2.591.401-4.7,1.553-23.081,11.044-27.124,13.954-3.492,2.513-6.048,9.063-8.833,10.851-3.012,1.934-8.948,1.509-11.976,4.283l-97.47,120.771c-5.052,5.736-21.988,8.059-26.563,12.375Z"/>
  <path class="cls-10" d="M194.668,326.227l14.574-2.188,1.51,10.999-39.177,66.112,1.261,1.262,57.731-75.787c3.726-3.412,9.57-1.571,14.049-3.922,3.819-2.004,8.263-10.821,12.57-13.961,4.932-3.595,13.216-6.203,18.791-9.482,1.107-.651,2.157.151,1.683-2.127l-76.654,20.461-6.337,8.632Z"/>
  <path class="cls-10" d="M376.064,286.003c-.521-1.72-2.559.005-3.434.418-23.995,11.335-49.726,16.562-74.969,24.395l-5.899-2.572.441-5.976c-.215-.275-1.875,1.051-2.559.855-7.17,6.867-16.891,11.651-24.367,17.995-1.103.936-4.571,3.565-3.452,5.107l98.443-29.061c4.75-3.488,11.487-7.407,15.796-11.161Z"/>
  <path class="cls-10" d="M251.403,281.137c-1.685,1.428-7.657,10.737-9.346,13.328-.475.728-2.103,1.902-.763,2.661,5.543-2.989,9.118-10.243,14.729-12.657,22.183-9.542,51.015-13.579,73.793-22.904l11.159-1.231-13.029-3.275c-18.615,8.502-61.913,11.674-76.544,24.078Z"/>
  <path class="cls-10" d="M97.124,395.573c-2.473,1.808-4.144,2.882-5.985,5.568,1.285,1.019,3.696-.047,5.13-.432,1.951-.524,6.703-2.182,8.149-3.403l52.598-57.806-8.586,2.539c-15.538,15.66-29.688,34.321-45.293,49.705-2.669,2.631-4.248,2.539-6.012,3.829Z"/>
  <path class="cls-10" d="M381.198,276.587c.206-.559,1.063-1.058.486-1.719l-15.872-10.26c-.812,3.388-3.416,5.686-6.006,7.7-2.606,2.026-7.882,5.274-10.884,6.66-15.385,7.101-34.799,10.894-50.721,17.319.41,1.669,2.141,1.974,3.62,1.549,16.211-6.07,34.727-9.069,50.729-15.238,4.609-1.777,17.064-9.832,20.298-9.293,2.492.415,5.247,3.695,8.348,3.283Z"/>
  <path class="cls-10" d="M145.04,330.516c.062.269-.047.579,0,.856l3.093,5.205c13.744-4.381,30.847-7.341,38.834-20.604-2.065-1.685-29.636,17.343-37.003,16.109-1.508-.253-3.796-2.932-4.923-1.565Z"/>
  <path class="cls-10" d="M192.956,177.298l26.587,23.544,14.478-1.306-12.199-3.617c-9.386-6.633-17.519-15.224-28.867-18.621Z"/>
  <path class="cls-10" d="M196.383,291.135c6.034.33,4.679-9.491,7.723-11.525,10.039-3.623,21.646-5.745,31.463-9.653,1.302-.518,2.312.494,1.876-1.926-13.409.926-25.759,6.162-38.499,9.84l-2.562,13.264Z"/>
  <polygon class="cls-4" points="448.212 160.622 448.212 164.778 434.258 180.018 408.56 196.969 403.034 198.754 390.737 196.969 354.961 191.569 350.435 181.46 348.185 177.214 350.435 173.142 361.944 162.308 376.775 154.267 392.321 148.847 406.387 146.95 416.021 148.049 432.435 152.99 448.212 160.622"/>
  <path class="cls-10" d="M348.313,172.209c9.164-10.954,32.167-23.518,46.238-25.646,14.522-2.197,25.547.331,39.068,5.249,2.521.917,16.249,6.63,16.744,8.066.527,1.527.353,4.724-.304,6.269-2.631,6.187-37.576,32.744-44.53,35.068-1.283.429-2.612.819-3.988.664l-49.241-9.374c-1.301-6.692-9.022-14.275-3.985-20.296ZM396.609,174.717l2.547-5.981,5.577,11.973,2.139-12.832,8.543,6.844-2.553-17.116c.747-.835,14.894,8.81,16.697,9.4,1.287.421,1.352.027,1.127-1.116-.564-2.856-1.101-5.317-.71-8.284l16.252,4.268c-1.178-1.811-4.277-2.68-6.275-3.558-6.951-3.054-21.219-8.325-28.45-9.201-4.994-.605-9.767-.107-15.189.746-1.016.241-1.164,2.56-1.425,3.462-2.143,7.403,1.104,13.881,1.72,21.396ZM361.509,164.872c-1.928,1.632-10.58,10.431-10.992,12.177-.812,3.439,4.629,7.999,7.156,9.653l.432-5.131,5.972,5.136-1.694-10.271,8.98,9.411-.46-9.194c1.279,1.086,1.478,1.165,1.986,1.735,1.882,2.113,3.335,5.061,5.734,6.608l-2.549-14.552,10.691,12.836-.428-8.551,5.985,3.411c-2.89-8.513-4.845-17.627-2.57-26.522-1.151-1.006-16.793,5.696-19.142,6.945-2.292,1.219-3.17,2.091-5.079,3.111-1.634.873-2.094,1.569-4.022,3.2ZM409.863,174.738l-4.274,11.963-5.557-6.843c-2.228,6.126,2.698,12.789,7.734,15.925,5.642-3.377,37.529-26.356,37.614-30.898l-12.84-3.006-.441,9.427-13.253-6.001v15.408s-8.984-5.975-8.984-5.975ZM381.203,181.574l.842,9.411-7.269-5.988-.432,5.132-7.687-5.131.042,6.8,32.468,5.17c-2.263-2.383-5.446-13.791-7.286-14.535-2.549-1.031-1.467,6.058-2.982,6.84-.644-.674-.876-1.02-1.711-1.712.357-1.667-5.118-6.942-5.985-5.988ZM359.803,190.99l4.282-.013c-.275-.747-3.247-5.472-4.273-4.267l-.009,4.28Z"/>
  <path class="cls-10" d="M400.878,219.243c.38.963,2.083,2.969,2.966,3.092,1.062.148,18.561-3.702,20.997-4.379,15.513-4.315,47.985-17.928,60.298-27.845,2.693-2.169,17.45-17.952,17.423-20.104-.006-.506-2.182-2.838-3.305-1.765-22.454,30.517-62.525,43.895-98.38,51.002Z"/>
  <path class="cls-10" d="M357.246,196.981c-.627,2.236,2.086,2.252,3.608,2.789,8.473,2.991,29.919,9.814,38.113,10.693,5.805.623,9.18-.708,13.812-3.719,13.175-8.567,25.067-20.111,37.727-29.445-1.568-.364-2.369.527-3.543,1.155-14.522,7.765-27.66,22.798-43.502,28.454l-46.214-9.926Z"/>
  <path class="cls-10" d="M450.506,156.754c4.282,4.3,3.343,8.92-.856,12.823,5.233,1.24,7.485-5.833,9.141-6.683,6.1-3.13,25.454-3.47,32.124-1.634,3.691,1.016,4.919,3.374,8.362,4.037-1.177-2.132-1.144-3.842,0-5.975-8.959.082-17.031-2.152-26.138-1.762-4.567.195-11.291,2.25-15.376,1.817-2.869-.304-4.239-2.992-7.257-2.622Z"/>
  <path class="cls-10" d="M370.935,159.318l1.698,11.98-4.261-3.424c-.443.953-.932,5.965-1.28,7.696l-7.276-6.84-.018,6.848-4.265-2.563c-1.308,5.818-.031,7.696.436,9.403l1.279-5.127,4.261,4.275.018-8.555,7.269,6.844.432-7.7,5.972,5.136-2.55-14.552,12.402,14.548.432-6.843,4.269,1.703c-.485-3.531-2.542-3.878-5.552-5.136l-.86,5.141c-2.02-.658-10.857-14.568-12.406-12.832Z"/>
  <path class="cls-10" d="M407.728,150.758l1.698,11.98-5.114-3.422-.875,7.702-5.553-7.686c-1.997,1.857-2.216,4.413-1.272,6.824l.853-2.562,5.992,10.265,1.705-10.261,6.832,4.276-1.694-14.552,17.955,9.412-.892-7.677-2.524-.024-.423,2.563-16.688-6.838Z"/>
  <polygon class="cls-10" points="192.188 291.144 194.657 279.588 179.059 284.3 160.464 302.277 184.165 305.74 182.949 302.277 181.734 292.664 192.188 291.144"/>
  <polygon class="cls-10" points="234.022 298.007 194.657 309.052 190.662 297.126 202.42 297.126 203.614 299.656 234.022 298.007"/>
  <polygon class="cls-10" points="340.042 245.081 247.619 271.156 249.649 268.032 340.976 239.751 340.042 245.081"/>
  <polygon class="cls-10" points="252.603 185.821 212.27 159.314 209.692 162.117 251.387 190.169 252.603 185.821"/>
  <polygon class="cls-10" points="268.284 183.301 253.72 189.07 255.155 191.17 269.864 185.821 268.284 183.301"/>
  <polygon class="cls-10" points="154.367 460.995 140.404 478.292 93.604 478.292 97.846 471.045 101.505 474.888 135.663 475.982 151.587 459.937 154.367 460.995"/>
  <polygon class="cls-10" points="204.942 220.09 133.921 142.209 156.287 159.97 207.501 213.154 204.942 220.09"/>
</svg>