<?xml version="1.0" encoding="UTF-8"?>
<svg id="Layer_1" data-name="Layer 1" xmlns="http://www.w3.org/2000/svg" viewBox="0 0 222.028 51.111">
  <defs>
    <style>
      .cls-1 {
        fill: #fff;
      }

      .cls-2 {
        fill: #3f0000;
      }

      .cls-3 {
        fill: #f03127;
      }

      .cls-4 {
        fill: #ad0000;
      }
    </style>
  </defs>
  <rect class="cls-2" x="85.458" y="-85.458" width="51.111" height="222.028" rx="14" ry="14" transform="translate(136.57 -85.458) rotate(90)"/>
  <rect class="cls-4" x="4.416" y="4" width="213.196" height="43.112" rx="10" ry="10"/>
  <rect class="cls-3" x="8.132" y="6.998" width="205.517" height="36.361" rx="10" ry="10"/>
  <rect class="cls-2" x="12.021" y="8.94" width="198.078" height="32.329" rx="10" ry="10"/>
  <rect class="cls-4" x="14.307" y="10.929" width="193.624" height="28.06" rx="10" ry="10"/>
  <path class="cls-2" d="M29.055,36.38v-8.174h3.594c-.481-.306-.937-.672-1.364-1.1-1.479-1.479-2.229-3.289-2.229-5.379s.75-3.9,2.229-5.38c1.479-1.479,3.289-2.229,5.38-2.229h13.348v8.174h-3.594c.481.306.937.672,1.364,1.1,1.479,1.479,2.229,3.289,2.229,5.379s-.75,3.9-2.229,5.38c-1.479,1.479-3.289,2.229-5.379,2.229h-13.349Z"/>
  <path class="cls-1" d="M48.012,28.771c0,1.549-.548,2.87-1.644,3.966s-2.417,1.644-3.965,1.644h-11.349v-4.174h11.349c.4,0,.739-.14,1.018-.418.278-.277.417-.617.417-1.018s-.14-.738-.417-1.017c-.279-.278-.618-.418-1.018-.418h-5.739c-1.548,0-2.87-.548-3.966-1.644s-1.644-2.417-1.644-3.965.548-2.87,1.644-3.966,2.417-1.644,3.966-1.644h11.348v4.174h-11.348c-.4,0-.74.14-1.018.418-.278.278-.417.617-.417,1.018s.139.739.417,1.017c.278.278.617.418,1.018.418h5.739c1.548,0,2.87.548,3.965,1.644s1.644,2.417,1.644,3.965Z"/>
  <polygon class="cls-2" points="57.838 36.38 57.838 22.293 51.447 22.293 51.447 14.119 73.462 14.119 69.886 22.293 66.013 22.293 66.013 36.38 57.838 36.38"/>
  <path class="cls-1" d="M70.404,16.119l-1.826,4.174h-4.565v14.088h-4.174v-14.088h-6.392v-4.174h16.958Z"/>
  <path class="cls-2" d="M78.14,36.38l-.786-1.796-.795,1.796h-9.054l9.859-22.262h5.995l9.858,22.262h-15.077ZM80.543,28.207l-.183-.412-.183.412h.365Z"/>
  <path class="cls-1" d="M90.144,34.38h-10.696l-1.826-4.174h5.994l-3.255-7.353-5.104,11.526h-4.679l8.087-18.262h3.392l8.087,18.262Z"/>
  <path class="cls-2" d="M106.475,36.38l-4.113-4.479v4.479h-8.174V14.119h13.349c2.09,0,3.9.75,5.379,2.229,1.479,1.479,2.229,3.289,2.229,5.38s-.749,3.898-2.224,5.378c-.694.695-1.461,1.229-2.296,1.601l7.125,7.674h-11.275Z"/>
  <path class="cls-1" d="M113.163,34.38h-5.81l-6.47-7.044,1.826-4.174h4.826c.4,0,.739-.14,1.018-.418.278-.277.417-.617.417-1.017s-.14-.739-.417-1.018c-.279-.278-.618-.418-1.018-.418h-7.174v14.088h-4.174v-18.262h11.349c1.548,0,2.87.548,3.965,1.644s1.644,2.418,1.644,3.966-.547,2.869-1.64,3.965-2.413,1.644-3.957,1.644l-.937-.013,6.553,7.057Z"/>
  <polygon class="cls-2" points="122.58 36.38 122.58 22.293 116.188 22.293 116.188 14.119 138.204 14.119 134.627 22.293 130.754 22.293 130.754 36.38 122.58 36.38"/>
  <path class="cls-1" d="M135.146,16.119l-1.826,4.174h-4.565v14.088h-4.174v-14.088h-6.392v-4.174h16.958Z"/>
  <rect class="cls-2" x="139.189" y="14.119" width="8.174" height="22.262"/>
  <path class="cls-1" d="M145.363,34.38h-4.174v-18.262h4.174v18.262Z"/>
  <polygon class="cls-2" points="163.244 36.38 157.573 29.558 157.573 36.38 149.398 36.38 149.398 14.119 156.522 14.119 162.182 20.928 162.182 14.119 170.356 14.119 170.356 36.38 163.244 36.38"/>
  <path class="cls-1" d="M168.356,34.38h-4.174l-8.609-10.357v10.357h-4.174v-18.262h4.185l8.599,10.345v-10.345h4.174v18.262Z"/>
  <path class="cls-2" d="M182.531,36.38c-3.061,0-5.709-1.097-7.872-3.26-2.163-2.163-3.26-4.812-3.26-7.871s1.097-5.708,3.26-7.871,4.812-3.26,7.871-3.26h10.884l-3.082,7.044h2.024v15.218h-9.826ZM181.73,22.389c-.484.126-.905.377-1.293.766-.588.588-.862,1.254-.862,2.095,0,.51.101.955.311,1.357l1.845-4.218Z"/>
  <path class="cls-1" d="M190.357,34.38h-7.826c-2.522,0-4.674-.891-6.457-2.674-1.783-1.783-2.674-3.936-2.674-6.457s.891-4.674,2.674-6.457c1.783-1.782,3.935-2.674,6.457-2.674h7.826l-1.826,4.174h-6c-1.375,0-2.544.482-3.509,1.448-.965.965-1.448,2.135-1.448,3.509s.482,2.544,1.448,3.509,2.135,1.448,3.509,1.448h3.652v-2.87h-4.435l1.826-4.174h6.783v11.218Z"/>
</svg>