<?xml version="1.0" encoding="UTF-8"?>
<svg id="Layer_1" data-name="Layer 1" xmlns="http://www.w3.org/2000/svg" viewBox="0 0 222.028 51.111">
  <defs>
    <style>
      .cls-1 {
        fill: #fff;
      }

      .cls-2 {
        fill: #3f0000;
      }

      .cls-3 {
        fill: #f03127;
      }

      .cls-4 {
        fill: #ad0000;
      }
    </style>
  </defs>
  <rect class="cls-2" x="85.458" y="-85.458" width="51.111" height="222.028" rx="14" ry="14" transform="translate(136.57 -85.458) rotate(90)"/>
  <rect class="cls-4" x="4.416" y="4" width="213.196" height="43.112" rx="10" ry="10"/>
  <rect class="cls-3" x="8.132" y="6.998" width="205.517" height="36.361" rx="10" ry="10"/>
  <rect class="cls-2" x="12.021" y="8.94" width="198.078" height="32.329" rx="10" ry="10"/>
  <rect class="cls-4" x="14.307" y="10.929" width="193.624" height="28.06" rx="10" ry="10"/>
  <polygon class="cls-2" points="127.036 36.38 127.036 35.522 126.71 36.38 122.601 36.38 122.276 35.521 122.276 36.38 115.834 36.38 115.834 14.119 121.701 14.119 124.656 22.247 127.611 14.119 133.478 14.119 133.478 36.38 127.036 36.38"/>
  <path class="cls-1" d="M131.776,34.38h-3.038v-8.27l-3.133,8.27h-1.898l-3.133-8.27v8.27h-3.038v-18.262h3.041l4.079,11.219,4.079-11.219h3.041v18.262Z"/>
  <polygon class="cls-2" points="141.818 36.38 141.473 35.297 141.124 36.38 134.079 36.38 141.253 14.119 146.073 14.119 153.247 36.38 141.818 36.38"/>
  <path class="cls-1" d="M150.782,34.38h-7.784l-1.329-4.174h4.362l-2.369-7.353-3.714,11.526h-3.405l5.886-18.262h2.468l5.885,18.262Z"/>
  <polygon class="cls-2" points="154.418 36.38 154.418 22.293 149.767 22.293 149.767 14.119 166.264 14.119 163.661 22.293 160.86 22.293 160.86 36.38 154.418 36.38"/>
  <path class="cls-1" d="M163.81,16.119l-1.329,4.174h-3.323v14.088h-3.038v-14.088h-4.652v-4.174h12.341Z"/>
  <path class="cls-2" d="M173.362,36.38c-2.348,0-4.364-1.136-5.993-3.374-1.562-2.147-2.355-4.757-2.355-7.757s.792-5.609,2.355-7.757c1.63-2.239,3.646-3.374,5.993-3.374h7.201l-2.603,8.174h-4.598c-.502,0-.879.224-1.26.748-.44.604-.645,1.307-.645,2.209s.205,1.604.645,2.208c.382.525.759.749,1.261.749h6.449v8.174h-6.449Z"/>
  <path class="cls-1" d="M178.108,34.38h-4.746c-1.836,0-3.402-.891-4.699-2.674-1.298-1.783-1.946-3.936-1.946-6.457s.649-4.674,1.946-6.457c1.297-1.782,2.863-2.674,4.699-2.674h4.746l-1.329,4.174h-3.417c-1,0-1.851.482-2.554,1.448-.703.965-1.054,2.135-1.054,3.509s.351,2.544,1.054,3.509,1.554,1.448,2.554,1.448h4.746v4.174Z"/>
  <polygon class="cls-2" points="190.478 36.38 190.478 29.337 187.616 29.337 187.616 36.38 181.174 36.38 181.174 14.119 187.616 14.119 187.616 21.163 190.478 21.163 190.478 14.119 196.919 14.119 196.919 36.38 190.478 36.38"/>
  <path class="cls-1" d="M185.914,34.38h-3.038v-18.262h3.038v18.262ZM195.217,34.38h-3.038v-7.044h-5.886l1.329-4.174h4.557v-7.044h3.038v18.262Z"/>
  <path class="cls-2" d="M25.718,36.686v-8.174h2.731c-.404-.334-.781-.739-1.127-1.214-1.065-1.463-1.604-3.234-1.604-5.265s.54-3.803,1.604-5.266c1.116-1.533,2.561-2.344,4.18-2.344h9.961v8.174h-2.731c.404.334.781.739,1.126,1.214,1.065,1.463,1.604,3.234,1.604,5.265s-.54,3.803-1.604,5.266c-1.116,1.533-2.561,2.344-4.179,2.344h-9.961Z"/>
  <path class="cls-1" d="M39.761,29.077c0,1.549-.399,2.87-1.196,3.966s-1.759,1.644-2.886,1.644h-8.259v-4.174h8.259c.291,0,.538-.14.741-.418.202-.277.304-.617.304-1.018s-.102-.738-.304-1.017c-.203-.278-.45-.418-.741-.418h-4.177c-1.127,0-2.089-.548-2.886-1.644s-1.196-2.417-1.196-3.965.399-2.87,1.196-3.966,1.759-1.644,2.886-1.644h8.259v4.174h-8.259c-.291,0-.538.14-.741.418-.203.278-.304.617-.304,1.018s.101.739.304,1.017c.202.278.449.418.741.418h4.177c1.126,0,2.088.548,2.886,1.644s1.196,2.417,1.196,3.965Z"/>
  <polygon class="cls-2" points="47.763 36.686 47.763 22.598 43.111 22.598 43.111 14.424 59.608 14.424 57.006 22.598 54.205 22.598 54.205 36.686 47.763 36.686"/>
  <path class="cls-1" d="M57.154,16.425l-1.329,4.174h-3.323v14.088h-3.038v-14.088h-4.652v-4.174h12.341Z"/>
  <polygon class="cls-2" points="63.653 36.686 63.308 35.603 62.959 36.686 55.913 36.686 63.088 14.424 67.907 14.424 75.082 36.686 63.653 36.686"/>
  <path class="cls-1" d="M72.617,34.686h-7.784l-1.329-4.174h4.362l-2.369-7.353-3.714,11.526h-3.405l5.886-18.262h2.468l5.885,18.262Z"/>
  <path class="cls-2" d="M85.412,36.686l-2.559-3.828v3.828h-6.442V14.424h9.961c1.618,0,3.064.811,4.179,2.344,1.065,1.463,1.605,3.234,1.605,5.266s-.539,3.8-1.601,5.263c-.524.723-1.121,1.284-1.775,1.677l5.212,7.713h-8.58Z"/>
  <path class="cls-1" d="M90.467,34.686h-4.228l-4.708-7.044,1.329-4.174h3.512c.291,0,.538-.14.741-.418.202-.277.304-.617.304-1.017s-.102-.739-.304-1.018c-.203-.278-.45-.418-.741-.418h-5.221v14.088h-3.038v-18.262h8.259c1.126,0,2.088.548,2.886,1.644s1.196,2.418,1.196,3.966-.398,2.869-1.194,3.965-1.756,1.644-2.88,1.644l-.682-.013,4.769,7.057Z"/>
  <polygon class="cls-2" points="98.171 36.686 98.171 22.598 93.52 22.598 93.52 14.424 110.017 14.424 107.414 22.598 104.613 22.598 104.613 36.686 98.171 36.686"/>
  <path class="cls-1" d="M107.563,16.425l-1.329,4.174h-3.323v14.088h-3.038v-14.088h-4.652v-4.174h12.341Z"/>
</svg>