<?xml version="1.0" encoding="UTF-8"?>
<svg id="Layer_1" data-name="Layer 1" xmlns="http://www.w3.org/2000/svg" viewBox="0 0 556.963 163.687">
  <defs>
    <style>
      .cls-1 {
        fill: none;
      }

      .cls-2 {
        fill: #444;
      }

      .cls-3 {
        fill: #595959;
      }

      .cls-4 {
        fill: #727272;
      }

      .cls-5 {
        fill: #030303;
      }

      .cls-6 {
        fill: #b5b5b5;
      }

      .cls-7 {
        fill: #fff;
      }

      .cls-8 {
        fill: #02182b;
      }

      .cls-9 {
        fill: #666;
      }

      .cls-10 {
        stroke: #ad0000;
      }

      .cls-10, .cls-11, .cls-12, .cls-13, .cls-14, .cls-15 {
        stroke-miterlimit: 10;
      }

      .cls-10, .cls-16 {
        fill: #ff2727;
      }

      .cls-17 {
        fill: #565656;
      }

      .cls-11 {
        fill: #2d2d2d;
      }

      .cls-11, .cls-15 {
        stroke: #4c4c4c;
      }

      .cls-12 {
        stroke: #1e1e1e;
      }

      .cls-12, .cls-15, .cls-18 {
        fill: #191919;
      }

      .cls-19 {
        fill: #3f0000;
      }

      .cls-20, .cls-14 {
        fill: #f03127;
      }

      .cls-21 {
        fill: #701111;
      }

      .cls-13 {
        fill: #437a89;
        stroke: #3ca6bf;
      }

      .cls-22 {
        fill: #424242;
      }

      .cls-14 {
        stroke: #f03127;
      }

      .cls-23 {
        fill: #ad0000;
      }

      .cls-24 {
        fill: #9fc5ce;
      }

      .cls-15 {
        stroke-width: 2px;
      }

      .cls-25 {
        fill: #4d4d4d;
      }
    </style>
  </defs>
  <rect class="cls-12" x="227.256" y="-99.758" width="90.012" height="366.194" transform="translate(355.601 -188.922) rotate(90)"/>
  <rect class="cls-11" x="94.593" y="41.742" width="355.337" height="83.195"/>
  <rect class="cls-15" x="242.098" y="-80.425" width="75.673" height="327.251" transform="translate(363.135 -196.734) rotate(90)"/>
  <g>
    <path class="cls-21" d="M210.124,84.66c5.03,0,8.848,1.302,11.452,3.907s3.907,6.422,3.907,11.453v16.027c0,5.031-1.302,8.848-3.907,11.453s-6.423,3.907-11.452,3.907h-26.044v-46.745h26.044ZM213.462,100.02c0-4.007-2.004-6.01-6.011-6.01h-11.352v28.047h11.352c4.007,0,6.011-2.004,6.011-6.01v-16.027Z"/>
    <path class="cls-19" d="M210.124,132.192h-26.83v-48.318h26.83c5.224,0,9.264,1.392,12.009,4.137,2.745,2.746,4.137,6.786,4.137,12.009v16.027c0,5.223-1.392,9.263-4.137,12.009-2.745,2.745-6.785,4.137-12.009,4.137ZM184.866,130.619h25.257c4.791,0,8.457-1.237,10.896-3.676,2.439-2.44,3.676-6.106,3.676-10.897v-16.027c0-4.791-1.237-8.457-3.676-10.897-2.439-2.439-6.105-3.676-10.896-3.676h-25.257v45.172ZM207.452,122.843h-12.138v-29.62h12.138c4.447,0,6.797,2.35,6.797,6.797v16.027c0,4.446-2.35,6.797-6.797,6.797ZM196.886,121.27h10.565c3.564,0,5.224-1.66,5.224-5.224v-16.027c0-3.564-1.66-5.224-5.224-5.224h-10.565v26.474Z"/>
    <path class="cls-23" d="M187.127,128.359v-40.651h22.997c4.17,0,7.298,1.014,9.298,3.014,2,2,3.014,5.129,3.014,9.298v16.027c0,4.17-1.014,7.298-3.014,9.298-2,2-5.128,3.014-9.298,3.014h-22.997ZM193.053,125.104h14.399c5.672,0,9.058-3.386,9.058-9.057v-16.027c0-5.671-3.386-9.057-9.058-9.057h-14.399v34.141Z"/>
    <path class="cls-20" d="M210.124,128.831h-23.469v-41.595h23.469c4.299,0,7.54,1.061,9.631,3.152,2.092,2.092,3.152,5.333,3.152,9.632v16.027c0,4.299-1.061,7.54-3.152,9.632-2.091,2.092-5.332,3.152-9.631,3.152ZM187.599,127.887h22.525c4.04,0,7.056-.967,8.964-2.876,1.908-1.909,2.876-4.925,2.876-8.965v-16.027c0-4.04-.968-7.056-2.876-8.965-1.908-1.908-4.924-2.876-8.964-2.876h-22.525v39.708ZM207.452,125.576h-14.871v-35.085h14.871c5.967,0,9.53,3.562,9.53,9.529v16.027c0,5.967-3.563,9.529-9.53,9.529ZM193.525,124.632h13.927c5.376,0,8.586-3.21,8.586-8.585v-16.027c0-5.376-3.21-8.585-8.586-8.585h-13.927v33.197Z"/>
    <path class="cls-21" d="M264.961,84.66h12.02v34.057c0,4.675-1.058,8.07-3.172,10.184-2.115,2.115-5.509,3.172-10.183,3.172h-15.36c-4.675,0-8.069-1.057-10.183-3.172-2.115-2.114-3.172-5.509-3.172-10.184v-34.057h12.02v34.057c0,2.672,1.335,4.007,4.006,4.007h10.018c2.671,0,4.006-1.336,4.006-4.007v-34.057Z"/>
    <path class="cls-19" d="M263.626,132.86h-15.36c-4.87,0-8.483-1.145-10.74-3.403-2.257-2.257-3.402-5.87-3.402-10.74v-34.844h13.593v34.844c0,2.227.993,3.221,3.22,3.221h10.018c2.227,0,3.22-.993,3.22-3.221v-34.844h13.593v34.844c0,4.869-1.145,8.482-3.402,10.74-2.257,2.258-5.87,3.403-10.74,3.403ZM235.698,85.447v33.271c0,4.438.99,7.677,2.942,9.628,1.951,1.952,5.19,2.942,9.627,2.942h15.36c4.437,0,7.676-.99,9.627-2.942,1.952-1.952,2.942-5.191,2.942-9.628v-33.271h-10.447v33.271c0,3.091-1.702,4.794-4.793,4.794h-10.018c-3.091,0-4.793-1.702-4.793-4.794v-33.271h-10.447Z"/>
    <path class="cls-23" d="M248.266,129.027c-3.816,0-6.517-.767-8.028-2.279-1.513-1.513-2.28-4.214-2.28-8.03v-31.01h5.926v31.01c0,4.351,2.702,7.054,7.053,7.054h10.018c4.351,0,7.053-2.703,7.053-7.054v-31.01h5.926v31.01c0,3.815-.767,6.517-2.279,8.029-1.513,1.513-4.214,2.28-8.029,2.28h-15.36Z"/>
    <path class="cls-20" d="M263.626,129.499h-15.36c-3.945,0-6.759-.814-8.362-2.418-1.604-1.604-2.418-4.418-2.418-8.364v-31.482h6.87v31.482c0,4.06,2.522,6.582,6.581,6.582h10.018c4.06,0,6.581-2.522,6.581-6.582v-31.482h6.87v31.482c0,3.945-.813,6.759-2.418,8.363-1.604,1.605-4.418,2.418-8.363,2.418ZM238.43,88.179v30.538c0,3.686.721,6.276,2.142,7.696,1.42,1.421,4.009,2.141,7.695,2.141h15.36c3.685,0,6.274-.72,7.695-2.142,1.421-1.421,2.141-4.01,2.141-7.696v-30.538h-4.982v30.538c0,4.642-2.883,7.526-7.525,7.526h-10.018c-4.642,0-7.525-2.884-7.525-7.526v-30.538h-4.982Z"/>
    <path class="cls-21" d="M324.809,131.406h-37.062v-46.745h37.062v9.349h-25.042v9.015h19.699v9.349h-19.699v9.683h25.042v9.349Z"/>
    <path class="cls-19" d="M325.596,132.192h-38.635v-48.318h38.635v10.922h-25.042v7.442h19.699v10.922h-19.699v8.11h25.042v10.922ZM288.533,130.619h35.489v-7.776h-25.042v-11.256h19.699v-7.776h-19.699v-10.588h25.042v-7.776h-35.489v45.172Z"/>
    <polygon class="cls-23" points="290.794 128.359 290.794 87.707 321.762 87.707 321.762 90.963 296.72 90.963 296.72 106.072 316.419 106.072 316.419 109.327 296.72 109.327 296.72 125.104 321.762 125.104 321.762 128.359 290.794 128.359"/>
    <path class="cls-20" d="M322.234,128.831h-31.912v-41.595h31.912v4.199h-25.042v14.165h19.699v4.199h-19.699v14.833h25.042v4.199ZM291.266,127.887h30.025v-2.311h-25.042v-16.721h19.699v-2.311h-19.699v-16.053h25.042v-2.311h-30.025v39.708Z"/>
    <path class="cls-21" d="M347.399,122.057h24.374v9.349h-36.394v-46.745h12.02v37.396Z"/>
    <path class="cls-19" d="M372.56,132.192h-37.967v-48.318h13.593v37.396h24.374v10.922ZM336.166,130.619h34.821v-7.776h-24.374v-37.396h-10.447v45.172Z"/>
    <polygon class="cls-23" points="338.426 128.359 338.426 87.707 344.352 87.707 344.352 125.104 368.726 125.104 368.726 128.359 338.426 128.359"/>
    <path class="cls-20" d="M369.198,128.831h-31.244v-41.595h6.87v37.396h24.374v4.199ZM338.898,127.887h29.356v-2.311h-24.374v-37.396h-4.982v39.708Z"/>
  </g>
  <g>
    <g>
      <path class="cls-16" d="M366.688,54.866h-1.993c-.26-6.052-5.125-10.91-11.18-11.159v-1.927c0-.236-.191-.428-.428-.428s-.428.191-.428.428v1.922c-6.139.191-11.084,5.119-11.301,11.251h-1.873c-.236,0-.428.191-.428.428s.191.428.428.428h1.874c.224,6.126,5.166,11.047,11.301,11.237v1.93c0,.236.191.428.428.428s.428-.191.428-.428v-1.934c6.109-.25,11.008-5.193,11.186-11.321h1.987c.236,0,.428-.191.428-.428s-.191-.428-.428-.428ZM353.514,66.042v-3.746c0-.236-.191-.428-.428-.428s-.428.191-.428.428v3.75c-5.582-.19-10.077-4.663-10.3-10.237h3.807c.236,0,.428-.191.428-.428s-.191-.428-.428-.428h-3.807c.216-5.58,4.714-10.061,10.301-10.251v3.758c0,.236.191.428.428.428s.428-.191.428-.428v-3.753c5.503.247,9.922,4.658,10.18,10.158h-3.687c-.236,0-.428.191-.428.428s.191.428.428.428h3.693c-.178,5.575-4.629,10.072-10.186,10.321Z"/>
      <path class="cls-23" d="M353.086,69.557c-.32,0-.58-.26-.58-.58v-1.783c-6.076-.264-10.996-5.158-11.294-11.232h-1.728c-.32,0-.58-.26-.58-.58s.26-.58.58-.58h1.727c.291-6.082,5.212-10.981,11.295-11.246v-1.776c0-.32.26-.58.58-.58s.58.26.58.58v1.782c5.975.32,10.842,5.178,11.173,11.152h1.849c.32,0,.58.26.58.58s-.26.58-.58.58h-1.84c-.252,6.062-5.123,10.991-11.181,11.314v1.789c0,.32-.26.58-.58.58ZM339.485,55.106c-.152,0-.275.124-.275.276s.124.275.275.275h2.02l.005.147c.221,6.032,5.12,10.904,11.153,11.091l.147.005v2.077c0,.152.124.276.275.276s.276-.124.276-.276v-2.08l.146-.006c6.016-.247,10.865-5.155,11.04-11.173l.004-.148h2.135c.152,0,.275-.124.275-.275s-.124-.276-.275-.276h-2.139l-.006-.146c-.254-5.932-5.101-10.77-11.034-11.013l-.146-.006v-2.073c0-.152-.124-.276-.276-.276s-.275.124-.275.276v2.07l-.147.005c-6.04.188-10.94,5.065-11.154,11.104l-.005.147h-2.02ZM352.811,66.204l-.157-.005c-5.633-.191-10.222-4.752-10.447-10.383l-.006-.158h3.965c.152,0,.276-.124.276-.275s-.124-.276-.276-.276h-3.965l.006-.158c.219-5.639,4.808-10.205,10.448-10.397l.157-.005v3.915c0,.152.124.276.275.276s.276-.124.276-.276v-3.912l.159.007c5.622.252,10.061,4.682,10.325,10.303l.008.159h-3.846c-.152,0-.275.124-.275.276s.124.275.275.275h3.85l-.005.157c-.179,5.618-4.717,10.216-10.331,10.468l-.159.007v-3.905c0-.152-.124-.275-.276-.275s-.275.124-.275.275v3.908ZM342.518,55.962c.295,5.347,4.639,9.664,9.989,9.926v-3.592c0-.32.26-.58.58-.58s.58.26.58.58v3.586c5.331-.32,9.626-4.672,9.875-10.008h-3.534c-.32,0-.58-.26-.58-.58s.26-.58.58-.58h3.526c-.329-5.335-4.531-9.529-9.867-9.846v3.593c0,.32-.26.58-.58.58s-.58-.26-.58-.58v-3.599c-5.356.262-9.701,4.586-9.989,9.94h3.648c.32,0,.58.26.58.58s-.26.58-.58.58h-3.647Z"/>
    </g>
    <g>
      <path class="cls-16" d="M353.086,69.566c-.325,0-.59-.264-.59-.59v-1.774c-2.949-.13-5.72-1.346-7.819-3.434-2.098-2.087-3.328-4.851-3.475-7.797h-1.719c-.325,0-.59-.264-.59-.59s.264-.59.59-.59h1.718c.143-2.949,1.372-5.716,3.471-7.807,2.099-2.091,4.872-3.308,7.824-3.439v-1.767c0-.325.264-.59.59-.59s.589.264.589.59v1.773c2.911.157,5.646,1.376,7.716,3.443,2.07,2.066,3.294,4.798,3.456,7.709h1.839c.325,0,.59.264.59.589s-.264.59-.59.59h-1.831c-.125,2.945-1.332,5.715-3.41,7.816-2.077,2.1-4.831,3.338-7.77,3.497v1.78c0,.325-.264.59-.589.59ZM339.485,55.116c-.147,0-.266.119-.266.266s.119.266.266.266h2.03l.006.156c.107,2.922,1.31,5.67,3.386,7.736,2.078,2.067,4.833,3.255,7.758,3.346l.157.005v2.087c0,.147.119.266.266.266s.266-.119.266-.266v-2.09l.155-.006c2.915-.119,5.653-1.33,7.709-3.409,2.057-2.08,3.237-4.835,3.323-7.755l.005-.157h2.144c.147,0,.266-.119.266-.266s-.119-.266-.266-.266h-2.148l-.007-.155c-.124-2.887-1.32-5.603-3.369-7.648-2.049-2.046-4.768-3.237-7.656-3.356l-.155-.006v-2.082c0-.147-.119-.266-.266-.266s-.266.119-.266.266v2.079l-.157.005c-2.927.091-5.684,1.281-7.762,3.35-2.077,2.069-3.279,4.819-3.382,7.745l-.006.156h-2.029ZM352.821,66.214l-.167-.006c-2.74-.093-5.321-1.211-7.268-3.146-1.946-1.935-3.078-4.508-3.188-7.246l-.007-.168h3.975c.147,0,.266-.119.266-.266s-.119-.266-.266-.266h-3.975l.007-.168c.106-2.74,1.237-5.317,3.184-7.255,1.948-1.939,4.531-3.058,7.273-3.151l.167-.006v3.925c0,.147.119.266.266.266s.266-.119.266-.266v-3.923l.169.008c2.702.121,5.246,1.242,7.164,3.156,1.918,1.914,3.044,4.455,3.17,7.156l.008.169h-3.856c-.147,0-.266.119-.266.266s.119.266.266.266h3.86l-.005.167c-.087,2.736-1.196,5.316-3.122,7.266-1.925,1.948-4.488,3.089-7.218,3.211l-.169.008v-3.915c0-.147-.119-.266-.266-.266s-.266.119-.266.266v3.918ZM342.528,55.972c.145,2.593,1.237,5.023,3.085,6.861,1.849,1.839,4.288,2.916,6.884,3.046v-3.582c0-.325.264-.589.59-.589s.589.264.589.589v3.575c2.585-.157,5.006-1.256,6.833-3.106,1.83-1.852,2.899-4.29,3.023-6.882h-3.525c-.325,0-.59-.264-.59-.59s.264-.589.59-.589h3.516c-.161-2.557-1.246-4.956-3.067-6.773-1.821-1.817-4.223-2.897-6.781-3.053v3.583c0,.325-.264.59-.589.59s-.59-.264-.59-.59v-3.589c-2.598.129-5.039,1.209-6.889,3.05-1.849,1.841-2.939,4.275-3.081,6.87h3.638c.325,0,.59.264.59.59s-.264.59-.59.59h-3.637Z"/>
      <path class="cls-23" d="M353.086,69.719c-.409,0-.742-.333-.742-.742v-1.629c-2.931-.165-5.686-1.394-7.774-3.471-2.087-2.076-3.331-4.825-3.511-7.753h-1.575c-.409,0-.742-.333-.742-.742s.333-.742.742-.742h1.574c.178-2.931,1.42-5.683,3.508-7.762,2.088-2.08,4.846-3.31,7.779-3.475v-1.622c0-.409.333-.742.742-.742s.742.333.742.742v1.629c2.893.191,5.612,1.423,7.672,3.478,2.059,2.055,3.295,4.772,3.492,7.664h1.697c.409,0,.741.333.741.742s-.333.742-.741.742h-1.686c-.159,2.926-1.38,5.681-3.447,7.771-2.066,2.089-4.805,3.341-7.727,3.533v1.637c0,.409-.333.742-.742.742ZM339.485,54.945c-.241,0-.437.196-.437.437s.196.437.437.437h1.863l.007.145c.144,2.907,1.362,5.64,3.43,7.697,2.068,2.057,4.809,3.261,7.718,3.39l.145.006v1.92c0,.241.196.437.437.437s.437-.196.437-.437v-1.924l.144-.008c2.899-.157,5.624-1.383,7.67-3.452,2.048-2.071,3.243-4.811,3.366-7.716l.006-.146h1.977c.241,0,.437-.196.437-.437s-.196-.437-.437-.437h-1.983l-.008-.144c-.16-2.871-1.372-5.573-3.412-7.609-2.04-2.036-4.745-3.243-7.617-3.398l-.144-.008v-1.917c0-.241-.196-.437-.437-.437s-.437.196-.437.437v1.912l-.145.006c-2.912.129-5.654,1.334-7.723,3.394-2.068,2.06-3.285,4.796-3.426,7.706l-.007.145h-1.863ZM353.086,69.395c-.23,0-.418-.188-.418-.418l-.009-1.94c-2.964-.092-5.755-1.296-7.86-3.39-2.104-2.094-3.323-4.877-3.431-7.838v-.009h-1.883c-.231,0-.418-.188-.418-.418s.188-.418.418-.418l1.883-.009c.105-2.964,1.322-5.751,3.427-7.847,2.106-2.097,4.899-3.302,7.865-3.395h.009v-1.932c0-.231.188-.418.418-.418s.418.188.418.418l.009,1.936c2.926.12,5.681,1.328,7.757,3.4,2.076,2.072,3.288,4.824,3.414,7.749v.009h2.003c.231,0,.418.188.418.418s-.188.418-.418.418l-1.997.009c-.086,2.96-1.282,5.75-3.367,7.858-2.083,2.106-4.857,3.333-7.811,3.454h-.009v1.944c0,.231-.188.418-.418.418ZM339.485,55.268c-.063,0-.114.051-.114.114s.051.114.114.114h2.176l.011.302c.106,2.884,1.292,5.595,3.342,7.633,2.05,2.04,4.769,3.212,7.655,3.302l.304.01v2.234c0,.063.051.114.114.114s.114-.051.114-.114v-2.236l.301-.012c2.877-.118,5.578-1.313,7.607-3.364,2.03-2.053,3.194-4.77,3.279-7.653l.009-.305h2.292c.063,0,.114-.051.114-.114s-.051-.114-.114-.114h-2.295l-.013-.301c-.122-2.849-1.303-5.529-3.325-7.547-2.022-2.018-4.705-3.194-7.554-3.311l-.301-.012v-2.228c0-.063-.051-.114-.114-.114s-.114.051-.114.114v2.227l-.304.01c-2.888.089-5.609,1.264-7.659,3.306-2.05,2.042-3.235,4.756-3.338,7.642l-.011.303h-2.176ZM352.973,66.372l-.325-.011c-2.779-.094-5.396-1.228-7.37-3.191-1.974-1.962-3.122-4.572-3.233-7.348l-.013-.326h4.133c.063,0,.114-.051.114-.114s-.051-.114-.114-.114h-4.134l.013-.326c.108-2.779,1.254-5.392,3.229-7.357,1.975-1.966,4.594-3.101,7.375-3.195l.325-.011v4.082c0,.063.051.114.114.114s.114-.051.114-.114v-4.082l.328.015c2.74.123,5.32,1.26,7.265,3.201,1.945,1.941,3.086,4.518,3.215,7.257l.016.329h-4.016c-.063,0-.114.051-.114.114s.051.114.114.114h4.017l-.01.324c-.088,2.774-1.213,5.391-3.166,7.368-1.952,1.975-4.551,3.132-7.32,3.256l-.328.015v-4.074c0-.063-.051-.114-.114-.114s-.114.051-.114.114v4.075ZM342.348,55.8v.01c.108,2.699,1.225,5.236,3.144,7.144,1.92,1.909,4.465,3.01,7.166,3.102h.01s0-3.76,0-3.76c0-.23.188-.418.418-.418s.418.188.418.418v3.756h.01c2.692-.121,5.219-1.246,7.117-3.166,1.899-1.922,2.992-4.467,3.078-7.164v-.01s-3.702,0-3.702,0c-.231,0-.418-.188-.418-.418s.188-.418.418-.418h3.697v-.01c-.125-2.663-1.235-5.168-3.126-7.055-1.891-1.887-4.4-2.993-7.063-3.112h-.01s0,3.763,0,3.763c0,.231-.188.418-.418.418s-.418-.188-.418-.418v-3.768h-.01c-2.704.092-5.251,1.196-7.171,3.107-1.92,1.911-3.034,4.452-3.139,7.153v.01s3.817,0,3.817,0c.231,0,.418.188.418.418s-.188.418-.418.418h-3.817ZM352.649,66.038l-.16-.008c-2.632-.131-5.112-1.228-6.984-3.09-1.871-1.86-2.982-4.332-3.129-6.961l-.009-.161h3.798c.241,0,.437-.196.437-.437s-.196-.437-.437-.437h-3.798l.009-.16c.144-2.631,1.254-5.107,3.126-6.97,1.873-1.864,4.354-2.963,6.988-3.094l.16-.008v3.749c0,.241.196.437.437.437s.437-.196.437-.437v-3.744l.161.01c2.593.158,5.036,1.258,6.879,3.097,1.843,1.839,2.947,4.279,3.111,6.871l.01.162h-3.678c-.241,0-.437.196-.437.437s.196.437.437.437h3.684l-.008.159c-.125,2.628-1.214,5.107-3.066,6.982-1.85,1.873-4.312,2.992-6.932,3.151l-.161.01v-3.737c0-.241-.196-.437-.437-.437s-.437.196-.437.437v3.742ZM342.69,56.124c.178,2.493,1.25,4.832,3.03,6.601,1.781,1.771,4.128,2.829,6.625,2.992v-3.421c0-.409.333-.742.742-.742s.742.333.742.742v3.412c2.485-.19,4.814-1.27,6.573-3.05,1.762-1.783,2.813-4.13,2.97-6.623h-3.364c-.409,0-.742-.333-.742-.742s.333-.742.742-.742h3.352c-.193-2.457-1.259-4.765-3.01-6.513-1.752-1.749-4.062-2.809-6.521-2.998v3.42c0,.409-.333.742-.742.742s-.742-.333-.742-.742v-3.428c-2.499.163-4.848,1.224-6.629,2.997-1.78,1.772-2.851,4.114-3.026,6.61h3.476c.409,0,.742.333.742.742s-.333.742-.742.742h-3.475Z"/>
    </g>
    <path class="cls-8" d="M379.062,55.379c0,7.218-2.551,13.377-7.653,18.479-5.102,5.102-11.262,7.652-18.478,7.652s-13.377-2.55-18.478-7.652c-5.103-5.102-7.653-11.261-7.653-18.479s2.55-13.375,7.653-18.478c5.101-5.101,11.26-7.652,18.478-7.652s13.376,2.551,18.478,7.652c5.102,5.103,7.653,11.262,7.653,18.478ZM367.116,55.379c0-3.931-1.381-7.279-4.144-10.041-2.762-2.762-6.11-4.144-10.042-4.144-3.882,0-7.218,1.381-10.004,4.144-2.788,2.762-4.181,6.11-4.181,10.041s1.393,7.279,4.181,10.042c2.787,2.762,6.122,4.144,10.004,4.144,3.932,0,7.279-1.381,10.042-4.144s4.144-6.109,4.144-10.042Z"/>
    <path class="cls-13" d="M352.931,77.915c-6.284,0-11.497-2.159-15.936-6.599-4.442-4.441-6.6-9.654-6.6-15.937s2.159-11.495,6.6-15.936c4.441-4.441,9.654-6.6,15.937-6.6s11.495,2.159,15.937,6.6c4.441,4.442,6.6,9.655,6.6,15.936s-2.159,11.496-6.6,15.937c-4.441,4.441-9.654,6.6-15.936,6.6ZM352.931,37.599c-4.846,0-9.064,1.745-12.535,5.185-3.48,3.447-5.245,7.685-5.245,12.594s1.765,9.147,5.246,12.595c3.47,3.44,7.687,5.185,12.534,5.185,4.901,0,9.135-1.748,12.583-5.197,3.448-3.448,5.197-7.681,5.197-12.583s-1.748-9.136-5.197-12.583c-3.448-3.448-7.681-5.196-12.583-5.196Z"/>
    <circle class="cls-14" cx="352.72" cy="55.375" r="2.738"/>
    <path class="cls-10" d="M352.72,58.265c-1.594,0-2.89-1.297-2.89-2.89s1.297-2.89,2.89-2.89,2.89,1.297,2.89,2.89-1.297,2.89-2.89,2.89ZM352.72,52.789c-1.426,0-2.586,1.16-2.586,2.586s1.16,2.586,2.586,2.586,2.586-1.16,2.586-2.586-1.16-2.586-2.586-2.586Z"/>
    <path class="cls-8" d="M225.217,80.057h-28.685l-4.897-11.783h16.076l-8.727-19.71-13.679,31.493h-12.561v-11.783h4.968l16.722-37.782h9.095l21.688,49.565Z"/>
    <polygon class="cls-13" points="198.725 76.704 196.761 72.215 212.862 72.215 198.982 40.281 183.122 76.704 176.096 76.704 176.096 72.215 179.894 72.215 196.615 33.844 201.346 33.844 220.065 76.704 198.725 76.704"/>
    <path class="cls-8" d="M273.349,80.057h-41.98V30.492h41.98v11.195h-30.785v7.696h23.789v11.195h-23.789v7.696h30.785v11.783Z"/>
    <polygon class="cls-13" points="234.722 76.704 234.722 33.844 269.996 33.844 269.996 38.333 239.21 38.333 239.21 52.735 262.999 52.735 262.999 57.224 239.21 57.224 239.21 72.215 269.996 72.215 269.996 76.704 234.722 76.704"/>
    <path class="cls-8" d="M325.028,80.057h-15.582l-17.352-19.48,4.897-11.195h12.944c1.072,0,1.982-.373,2.729-1.119.745-.746,1.119-1.655,1.119-2.729s-.374-1.982-1.119-2.729c-.747-.745-1.656-1.119-2.729-1.119h-19.241v38.37h-11.195V30.492h30.436c4.151,0,7.696,1.469,10.635,4.408,2.939,2.939,4.408,6.484,4.408,10.635s-1.467,7.696-4.399,10.635c-2.932,2.939-6.47,4.408-10.612,4.408l-2.513-.034,17.574,19.514Z"/>
    <path class="cls-13" d="M310.919,76.704l-14.877-16.785,3.142-7.183h10.751c1.961,0,3.724-.726,5.099-2.101,1.376-1.377,2.102-3.14,2.102-5.1s-.726-3.722-2.099-5.097c-1.38-1.377-3.143-2.103-5.102-2.103h-22.594v38.37h-4.489v-42.86h27.083c3.256,0,5.959,1.121,8.264,3.426,2.306,2.306,3.426,5.009,3.426,8.264s-1.119,5.96-3.42,8.267c-2.293,2.298-4.981,3.418-8.217,3.423l-10.323-.14,17.672,19.62h-6.42Z"/>
  </g>
  <path class="cls-18" d="M185.379,150.554l-3.851-3.865h-1.872v3.865h-5.665v-13.225h16.506v3.532c0,2.223-.833,3.9-2.357,4.87l4.682,4.823h-7.442Z"/>
  <path class="cls-7" d="M179.163,142.83h5.677c.984,0,1.54-.542,1.683-1.526h-8.488v7.631h-2.425v-9.985h13.266v1.912c0,2.525-1.227,3.908-3.68,4.165l3.794,3.908h-2.939l-3.851-3.865h-3.038v-2.239Z"/>
  <path class="cls-18" d="M188.349,150.554v-6.625c0-4.071,2.534-6.599,6.612-6.599h9.094v5.594h-9.052c-.79,0-.99.103-.99,1.047v.977h10.042v5.607h-15.707Z"/>
  <path class="cls-7" d="M202.435,148.934h-12.467v-5.006c0-3.124,1.811-4.979,4.993-4.979h7.474v2.354h-7.432c-1.74,0-2.61.884-2.61,2.667v2.597h10.042v2.367Z"/>
  <path class="cls-18" d="M218.714,150.554v-3.865h-4.89v3.865h-5.665v-6.625c0-4.071,2.528-6.599,6.598-6.599h9.637v13.225h-5.68Z"/>
  <path class="cls-7" d="M222.774,148.934h-2.44v-3.865h-8.13v3.865h-2.425v-5.006c0-3.124,1.812-4.979,4.978-4.979h8.017v9.985ZM220.334,141.303h-4.393c-2.91,0-3.381.641-3.58,1.569h7.974v-1.569Z"/>
  <path class="cls-18" d="M229.543,150.554c-3.955,0-6.612-2.646-6.612-6.584v-6.641h15.906v5.594h-.257v2.024h.257v5.607h-9.294Z"/>
  <path class="cls-7" d="M237.217,141.303h-10.242v1.526h9.985v2.239h-9.857c.3.97.999,1.498,2.482,1.498h7.632v2.367h-7.674c-3.096,0-4.993-1.911-4.993-4.964v-5.021h12.667v2.354Z"/>
  <path class="cls-18" d="M248.449,150.554l-3.851-3.865h-1.873v3.865h-5.664v-13.225h16.506v3.532c0,2.223-.833,3.9-2.357,4.87l4.682,4.823h-7.442Z"/>
  <path class="cls-7" d="M242.232,142.83h5.677c.984,0,1.54-.542,1.683-1.526h-8.487v7.631h-2.425v-9.985h13.266v1.912c0,2.525-1.228,3.908-3.681,4.165l3.795,3.908h-2.939l-3.851-3.865h-3.038v-2.239Z"/>
  <rect class="cls-18" x="252.088" y="137.329" width="5.665" height="13.225"/>
  <path class="cls-7" d="M256.133,148.934h-2.425v-9.985h2.425v9.985Z"/>
  <path class="cls-18" d="M266.882,150.554v-3.865h-4.89v3.865h-5.665v-6.625c0-4.071,2.529-6.599,6.599-6.599h9.636v13.225h-5.68Z"/>
  <path class="cls-7" d="M270.942,148.934h-2.44v-3.865h-8.13v3.865h-2.425v-5.006c0-3.124,1.812-4.979,4.979-4.979h8.017v9.985ZM268.502,141.303h-4.393c-2.911,0-3.381.641-3.581,1.569h7.974v-1.569Z"/>
  <path class="cls-18" d="M271.199,150.554v-13.225h5.664v7.618h3.586c.769,0,.846-.224.907-.404l.375-1.094h5.582l-.316,1.888c-.548,3.266-2.979,5.217-6.504,5.217h-9.294Z"/>
  <path class="cls-7" d="M275.243,138.949v7.618h5.207c1.283,0,2.096-.499,2.439-1.498h2.511c-.429,2.553-2.211,3.865-4.907,3.865h-7.674v-9.985h2.424Z"/>
  <path class="cls-18" d="M290.752,150.554v-6.625c0-4.071,2.534-6.599,6.613-6.599h9.094v5.594h-9.052c-.789,0-.99.103-.99,1.047v.977h10.042v5.607h-15.707Z"/>
  <path class="cls-7" d="M304.839,148.934h-12.467v-5.006c0-3.124,1.812-4.979,4.993-4.979h7.474v2.354h-7.432c-1.74,0-2.61.884-2.61,2.667v2.597h10.042v2.367Z"/>
  <path class="cls-18" d="M304.682,150.554v-6.625c0-4.009,2.595-6.599,6.613-6.599h9.878v6.641c0,3.999-2.59,6.584-6.598,6.584h-9.893ZM314.518,144.948c.562,0,.804-.058.894-.089.032-.091.097-.346.097-.93v-1.005h-4.173c-.557,0-.802.059-.891.09-.033.093-.099.353-.099.957v.977h4.171Z"/>
  <path class="cls-7" d="M319.553,138.949v5.021c0,3.11-1.811,4.964-4.978,4.964h-8.273v-5.006c0-3.054,1.84-4.979,4.993-4.979h8.258ZM317.129,141.303h-5.792c-1.997,0-2.61.613-2.61,2.667v2.597h5.791c1.955,0,2.611-.571,2.611-2.639v-2.625Z"/>
  <path class="cls-18" d="M332.278,150.554v-6.612c0-.855-.153-1-.784-1.017v7.629h-5.679v-7.631h-.469v7.631h-5.65v-13.225h11.633c3.832,0,6.614,2.607,6.614,6.2v7.025h-5.665Z"/>
  <path class="cls-7" d="M321.316,138.949h10.013c2.968,0,4.993,1.883,4.993,4.58v5.406h-2.425v-4.992c0-1.769-.856-2.639-2.568-2.639h-7.603v7.631h-2.41v-9.985ZM327.435,142.53h2.439v6.404h-2.439v-6.404Z"/>
  <path class="cls-18" d="M336.581,150.554v-13.225h12.16c2.73,0,4.359,1.55,4.359,4.145,0,.947-.224,1.766-.64,2.413.416.677.64,1.527.64,2.508,0,2.604-1.629,4.159-4.359,4.159h-12.16Z"/>
  <path class="cls-7" d="M338.201,138.949h10.541c1.826,0,2.739.842,2.739,2.525,0,1.383-.598,2.169-1.726,2.368,1.099.228,1.726,1.056,1.726,2.553,0,1.698-.913,2.539-2.739,2.539h-10.541v-9.985ZM340.625,146.624h7.475c.541,0,.813-.257.813-.771,0-.555-.272-.841-.813-.841h-5.763v-2.126h5.763c.541,0,.813-.286.813-.87,0-.486-.272-.728-.813-.728h-7.475v5.336Z"/>
  <path class="cls-18" d="M371.145,150.554v-7.631s-.131,0-.157.003c-.002.012-.127,1.523-.127,1.523h-5.546l.144-1.753c.285-3.461,2.418-5.368,6.008-5.368h9.937v5.594h-4.593v7.631h-5.665Z"/>
  <path class="cls-7" d="M379.783,141.303h-4.594v7.631h-2.425v-7.631h-1.683c-1.056,0-1.626.499-1.712,1.526h-2.296c.214-2.596,1.669-3.881,4.394-3.881h8.316v2.354Z"/>
  <path class="cls-18" d="M362.393,150.554v-3.865h-4.89v3.865h-5.665v-6.625c0-4.071,2.528-6.599,6.598-6.599h9.637v13.225h-5.68Z"/>
  <path class="cls-7" d="M366.453,148.934h-2.44v-3.865h-8.13v3.865h-2.425v-5.006c0-3.124,1.812-4.979,4.978-4.979h8.017v9.985ZM364.013,141.303h-4.393c-2.91,0-3.381.641-3.58,1.569h7.974v-1.569Z"/>
  <g>
    <path class="cls-5" d="M108.746,57.676c.336-.073.237-.516.281-.562l-.281.562Z"/>
    <path class="cls-18" d="M118.304,61.333l-.003,1.406,1.407-.004c-.09-.246-1.067-1.797-1.404-1.402Z"/>
    <path class="cls-24" d="M144.211,83.954c0,35.454-28.741,64.195-64.195,64.195-35.454,0-64.195-28.741-64.195-64.195,0-35.454,28.741-64.195,64.195-64.195,35.454,0,64.195,28.741,64.195,64.195Z"/>
    <path class="cls-9" d="M15.372,83.954c0-35.645,29-64.645,64.644-64.645,35.645,0,64.645,29,64.645,64.645s-29,64.645-64.645,64.645c-35.645,0-64.644-29-64.644-64.645ZM16.271,83.954c0,35.149,28.596,63.745,63.745,63.745s63.746-28.596,63.746-63.745c0-35.149-28.597-63.745-63.746-63.745-35.149,0-63.745,28.596-63.745,63.745Z"/>
    <path class="cls-3" d="M80.016,148.304c-35.483,0-64.351-28.868-64.351-64.351,0-35.483,28.868-64.351,64.351-64.351,35.483,0,64.351,28.868,64.351,64.351,0,35.483-28.868,64.351-64.351,64.351ZM80.016,19.914c-35.312,0-64.04,28.728-64.04,64.04,0,35.312,28.728,64.04,64.04,64.04,35.312,0,64.04-28.728,64.04-64.04,0-35.312-28.728-64.04-64.04-64.04Z"/>
    <path class="cls-3" d="M15.188,83.953c0-35.746,29.082-64.827,64.828-64.827,35.746,0,64.827,29.082,64.827,64.827,0,35.746-29.082,64.828-64.827,64.828-35.746,0-64.828-29.082-64.828-64.828ZM16.454,83.953c0,35.049,28.514,63.563,63.563,63.563,35.049,0,63.562-28.514,63.562-63.563,0-35.049-28.514-63.562-63.562-63.562-35.049,0-63.563,28.514-63.563,63.562Z"/>
    <path class="cls-7" d="M21.975,98.444c36.583-10.642,78.335-22.816,118.197-34.45-.266-.991-.513-1.985-.729-2.984-.421-1.95-.844-3.904-1.328-5.841L21.024,93.305c.329,1.71.635,3.426.951,5.139Z"/>
    <path class="cls-7" d="M22.475,101.069c.329,1.665.686,3.324,1.104,4.969,36.434-9.331,78.23-20.064,118.373-30.383-.797-2.952-1.361-5.915-1.232-8.911L22.475,101.069Z"/>
    <path class="cls-7" d="M140.892,102.992l-75.338,5.928-40.398,2.251c.933,2.494,2.088,4.889,3.393,7.206.278.32.528.657.748,1.011,24.724,3.115,57.52,7.215,93.048,11.705,7.959-7.853,14.01-17.859,18.547-28.102Z"/>
    <path class="cls-7" d="M20.317,89.853c27.534-14.867,63.931-34.545,103.512-55.907-1.694-1.44-3.408-2.85-5.226-4.113-4.837-3.36-10.216-5.725-15.552-8.159l-58.196,42.406-25.983,18.261c.362,2.523.905,5.023,1.446,7.513Z"/>
    <circle class="cls-1" cx="81.865" cy="81.26" r="61.602"/>
    <path class="cls-18" d="M160.326,78.886h-.794s-10.706,0-10.706,0c-1.498-34.913-29.564-62.938-64.494-64.37V4.194s0-.794,0-.794c0-1.363-1.105-2.467-2.467-2.467s-2.467,1.105-2.467,2.467v.794s0,10.296,0,10.296C43.983,15.59,15.459,44.019,14.206,79.394H4.194s-.794,0-.794,0c-1.363,0-2.467,1.105-2.467,2.467,0,1.363,1.105,2.467,2.467,2.467h10.808c1.294,35.338,29.801,63.725,65.189,64.824v11.133c0,1.363,1.105,2.467,2.467,2.467s2.467-1.105,2.467-2.467v-.794s0-10.365,0-10.365c35.242-1.445,63.5-29.959,64.53-65.307h10.67s.794,0,.794,0c1.363,0,2.467-1.105,2.467-2.467,0-1.363-1.105-2.467-2.467-2.467ZM84.332,143.358v-20.815s0-.794,0-.794c0-1.363-1.105-2.467-2.467-2.467s-2.467,1.105-2.467,2.467v.794s0,20.841,0,20.841c-32.203-1.094-58.131-26.901-59.419-59.055h21.959c1.363,0,2.467-1.105,2.467-2.467s-1.105-2.467-2.467-2.467h-.794s-21.168,0-21.168,0c1.248-32.19,27.193-58.04,59.422-59.134v21.677c0,1.363,1.105,2.467,2.467,2.467,1.363,0,2.467-1.105,2.467-2.467v-.794s0-20.858,0-20.858c31.745,1.424,57.236,26.872,58.725,58.6h-21.268c-1.363,0-2.467,1.105-2.467,2.467,0,1.363,1.105,2.467,2.467,2.467h.794s20.509,0,20.509,0c-1.026,32.163-26.703,58.1-58.76,59.537Z"/>
    <path class="cls-23" d="M81.865,163.687c-1.875,0-3.401-1.526-3.401-3.401v-10.234c-17.011-.751-32.998-7.765-45.105-19.81-12.103-12.041-19.2-27.984-20.045-44.98H3.401c-1.875,0-3.401-1.526-3.401-3.401s1.526-3.401,3.401-3.401h9.91c.825-17.013,7.915-32.975,20.022-45.033,12.11-12.061,28.107-19.084,45.131-19.836V3.401c0-1.875,1.526-3.401,3.401-3.401,1.875,0,3.4,1.526,3.4,3.401v10.226c16.793.908,32.569,7.939,44.51,19.859,11.94,11.919,19,27.68,19.939,44.468h10.611c1.875,0,3.401,1.525,3.401,3.4,0,1.875-1.526,3.401-3.401,3.401h-10.563c-.718,16.986-7.684,32.968-19.673,45.09-11.981,12.115-27.869,19.258-44.825,20.173v10.269c0,1.875-1.525,3.401-3.4,3.401ZM3.401,80.328c-.846,0-1.534.688-1.534,1.534,0,.846.688,1.534,1.534,1.534h11.708s.033.899.033.899c.617,16.858,7.555,32.706,19.535,44.624,11.985,11.923,27.877,18.777,44.75,19.301l.904.028v12.037c0,.846.688,1.534,1.534,1.534.846,0,1.534-.688,1.534-1.534v-12.054l.895-.037c16.818-.689,32.61-7.673,44.469-19.664,11.869-12.001,18.675-27.889,19.166-44.738l.026-.906h12.37c.846,0,1.534-.688,1.534-1.534,0-.846-.688-1.534-1.534-1.534h-12.394l-.038-.893c-.714-16.653-7.617-32.321-19.437-44.12-11.821-11.8-27.505-18.675-44.163-19.357l-.895-.037V3.401c0-.846-.688-1.534-1.534-1.534s-1.534.688-1.534,1.534v11.995l-.904.028c-16.887.524-32.789,7.388-44.777,19.327-11.984,11.935-18.913,27.802-19.512,44.677l-.032.9H3.401ZM80.331,144.349l-.965-.033c-15.806-.537-30.697-6.983-41.929-18.151-11.227-11.163-17.758-26.008-18.391-41.799l-.039-.971h22.93c.846,0,1.534-.688,1.534-1.534s-.688-1.534-1.534-1.534h-22.932l.038-.969c.613-15.809,7.136-30.672,18.367-41.853,11.235-11.185,26.135-17.64,41.956-18.178l.965-.033v22.643c0,.846.688,1.534,1.534,1.534.846,0,1.534-.688,1.534-1.534v-22.628l.975.044c15.585.699,30.262,7.165,41.326,18.208,11.063,11.041,17.558,25.702,18.289,41.281l.046.977h-22.246c-.846,0-1.534.688-1.534,1.534s.688,1.534,1.534,1.534h22.267l-.031.963c-.503,15.782-6.9,30.668-18.012,41.917-11.102,11.238-25.89,17.817-41.639,18.523l-.975.044v-22.585c0-.846-.688-1.534-1.534-1.534-.846,0-1.534.688-1.534,1.534v22.6ZM20.957,85.262c.837,14.956,7.133,28.978,17.795,39.579,10.668,10.607,24.737,16.824,39.711,17.569v-20.661c0-1.875,1.526-3.4,3.401-3.4s3.4,1.525,3.4,3.4v20.625c14.913-.908,28.878-7.248,39.42-17.919,10.554-10.683,16.723-24.749,17.436-39.701h-20.332c-1.875,0-3.401-1.526-3.401-3.401s1.526-3.4,3.401-3.4h20.282c-.93-14.748-7.189-28.591-17.69-39.071-10.503-10.482-24.361-16.714-39.116-17.613v20.668c0,1.875-1.525,3.401-3.4,3.401-1.875,0-3.401-1.526-3.401-3.401v-20.704c-14.987.746-29.066,6.972-39.737,17.595-10.666,10.618-16.955,24.66-17.774,39.633h20.984c1.875,0,3.401,1.526,3.401,3.401,0,1.875-1.526,3.401-3.401,3.401h-20.98Z"/>
    <g>
      <path class="cls-22" d="M57.737,102.594l-38.391-4.572-3.452,1.323,7.919,1.59.059-.293c-1.138-.22-2.255-.463-3.34-.739-.39-.097-.877.006-.985-.557l28.753,4.006c1.103-.006,2.977,1.472,3.769,1.543.897.082,4.021-1.446,5.317-1.604.117-.015.205-.021.27-.012l.082-.683Z"/>
      <path class="cls-22" d="M76.912,65.579l-4.757.428-8.74-7.737c3.731,1.114,6.402,3.939,9.488,6.118l4.009,1.191ZM91.817,59.109l23.345-39.667-.619-.364-24.961,42.362-7.326,3.012.836-1.003-.284-.531-29.513-19.697-6.746,3.651,1.757,1.754.487-.487,4.232,1.815,17.993,17.453c1.241.575,7.907-1.892,9.69-2.112l.144.56.273.672c8.326-3.376,16.576-6.963,24.967-10.162,1.003-.381,2.293-.971,3.264-1.246.625-.179.261-.393.742.334.589-.833,1.293-1.625,1.968-2.393l-.414-.135-19.412,7.869c-.191.062-.205-.267-.138-.414.047-.1.54-.625,1.188-1.285l-.68-.179c-.155.202-.188.32-.792.191Z"/>
      <path class="cls-22" d="M65.366,107.9c.39-.044.672-.393.578.299l-25.498,39.467-.933.343,23.422-42.676,1.323-.226-1.965,3.232c1.05.079,2.05-.328,3.074-.44ZM68.768,106.498l-4.789.719,2.082-2.839,25.193-6.722c.155.748-.191.484-.554.698-1.83,1.076-4.555,1.936-6.174,3.118-1.417,1.029-2.877,3.927-4.132,4.587-1.472.771-3.393.167-4.616,1.288l-18.975,24.909-.414-.414,12.875-21.729-.496-3.613ZM117.35,95.485l-18.928,5.54-.109-.812,22.19-6.778-3.153,2.05ZM97.826,102.151c8.297-2.575,16.755-4.294,24.639-8.018.29-.135.959-.704,1.129-.138.534-.463,1.399-2.308,1.689-3.094-1.021.135-1.927-.941-2.745-1.079-1.062-.176-5.156,2.469-6.672,3.056-5.259,2.027-11.344,3.012-16.67,5.006-.487.141-1.056.041-1.191-.507,5.232-2.112,11.614-3.361,16.67-5.693.985-.458,2.719-1.522,3.575-2.191-2.355-1.167-2.933.587-5,1.329l-30.622,8.177-1.496-.924,30.903-9.03c1.009-.516,4.033-3.135,4.135-4.191.109-1.129-2.244-3.54-1.575-4.924l-30.651,8.156,19.333-6.379,2.035-2.2c-5.616.164-11.089,1.836-16.459,3.443l-.411-.484,8.974-4.106,1.425-1.666c-.267-.408-.543-.387-.965-.437-1.944-.22-6.426,1.2-8.593,1.704.144.258.264.543.282.842.012.182.041.364-.021.537-4.27.578-8.886,2.575-13.086,3.091-.302.038-1.021.243-.95-.246,3.481-.88,6.927-1.909,10.403-2.818l-.563-.282c-5.015,1.205-10.077,2.235-15.04,3.663l-.015-.859,10.834-4.206-11.808,2.249-.167-1.138,31.103-10.819.279-.422c-1.22-.015-2.229-.414-3.493-.258-5.165.622-11.901,4.024-17.245,4.971-.396.07-1.038.34-.912-.349l23.9-7.746-.375-.516c-3.745.965-7.523,2.291-11.312,3.047-.425.085-.534.502-.965-.138,4-1.959,9.03-2.038,12.371-5.2l-30.091,10.684.282-.419,35.995-13.925.282-.563c.091-.094.205-.176.282-.282l-35.326,13.195-.387-.531c2.54-.968,5.065-1.971,7.584-2.994l-.273-.672-10.397,3.537-21.662-21.254-.487.487,20.187,20.175c.484,1.044.598,2.631-.578,3.25l.282.144-.282,1.264c.804-.214,2.115-.765,2.678-.845.551-.076.44.109.416.56-3.094,1.229-6.833,2.528-9.646,4.279-3.602,2.238-6.279,6.66-6.66,10.913l1.458-3.176,1.349-1.604c-.862,1.93-.809,3.587.443,5.326.801,1.117,2.939,2.484,2.534.293-.455-2.469-1.525-3.487-.815-6.411.226-.927,1.807-3.563,2.475-4.276.801-.856,2.469-1.833,3.519-1.827-4.206,2.816-5.273,8.191-3.103,12.687,3.942-1.238,8.394-2.352,12.532-2.692.305-.023,1.305-.229,1.255.273l-18.192,5.572-7.957,7.232,12.089,2.387-3.502.569-1.05-.126-.082.683c.232.023.15.191.135.56l-5.998,2.754c-1.27-.458-2.238-1.396-3.552-1.777-7.402-2.144-16.409-2.616-24.369-4.173l-.059.293,23.577,4.734,3.088,1.83c-1.217-.199-2.428-.411-3.654-.56.123.49.757,1.314.845,1.686.15-.179.358-.147.587-.035.343.164.733.502,1.029.551,2.423.405,11.482-5.848,12.162-5.294-2.625,4.358-8.247,5.332-12.764,6.772l-1-1.689-.015-.023c-4.93,7.177-10.585,14.025-15.749,21.102.581-.425,1.1-.396,1.977-1.258,5.13-5.056,9.778-11.192,14.884-16.336l2.824-.836-17.289,18.999c-.475.402-2.035.944-2.678,1.117l.284.147-.566.98c.727-.191,1.531-.188,2.255-.419l19.536-21.245c1.015-.812,3.141-.721,4.071-1.273.443-.264.516-.842.871-1.1.229-.167,2.129-.801,2.232-.719-7.872,14.544-16.151,28.871-24.184,43.324.493-.047.98.047,1.126.563,1.505-1.419,7.068-2.182,8.731-4.068l32.032-39.693c.994-.909,2.947-.771,3.936-1.408.915-.587,1.757-2.739,2.904-3.566,1.329-.956,7.37-4.074,8.913-4.584.29-.097.54-.188.853-.132l-.284.56c.478-.147.795.548.845.563.226.065.771-.372.842-.282l-.147,1.965,1.939.845ZM64.541,95.682l.842-4.358c4.188-1.208,8.247-2.93,12.655-3.235.141.798-.191.463-.619.633-3.226,1.285-7.039,1.983-10.338,3.173-1.003.669-.557,3.895-2.54,3.786ZM79.302,97.652c-.44-.249.094-.636.249-.877.557-.851,2.519-3.909,3.074-4.379,4.807-4.077,19.037-5.121,25.155-7.913l4.282,1.076-3.666.405c-7.488,3.065-16.964,4.39-24.255,7.526-1.842.795-3.018,3.179-4.839,4.162Z"/>
      <path class="cls-22" d="M93.289,59.097c1.238-1.255,3.033-3,3.329-3.203,1.425-.974,3.587-1.352,5.135-2.179,2.1-1.123,3.883-2.965,5.93-4.191l8.502-19.119c.402.044,1.106-.24.912.396l-5.326,16.635c.062.507,3.144,2.425,3.663,2.566.61.167.859-.443,1.411-.46l-3.379-2.642,8.183-26.439-4.077-2.12.117-1.147c-.428.1-.851.44-1.405.279l1.123-1.968c-.264.05-.66-.167-.865.182l-2,3.393.619.364.833.419-16.565,33.15c-3.783.537-4.42,3.651-6.684,5.748-.059.056-.103.109-.138.158l.68.179Z"/>
    </g>
    <path class="cls-22" d="M76.632,52.078c-.418,1.207-.477,2.922-1.406,3.939.428.307,3.289,2.628,3.654,2.251l.844-6.752-3.092.563Z"/>
    <polyline class="cls-22" points="73.84 84.566 93.366 79.085 91.748 76.172 71.306 82.005"/>
    <polygon class="cls-22" points="76.232 56.916 74.397 55.405 75.967 52.148 78.066 51.817 76.232 56.916"/>
    <polyline class="cls-22" points="68.493 68.802 67.915 72.052 68.493 72.333 69.742 70.647 68.493 68.802"/>
    <path class="cls-22" d="M80.851,48.702v.844c.266-.104.583-.123.841-.281l-.981,10.402c.219.252.461.636.839.568.63-.113,1.268-11.138,1.837-12.514-.784-.171-1.777.646-2.535.98Z"/>
    <g>
      <path class="cls-22" d="M142.511,49.894c.827.302,5.341,2.179,5.502,2.651.173.502.117,1.551-.1,2.059-.865,2.032-12.35,10.761-14.635,11.526-.422.141-.859.27-1.311.217l-16.183-3.079c-.428-2.2-2.965-4.693-1.311-6.672,3.012-3.599,10.573-7.728,15.198-8.426,4.772-.724,8.397.109,12.84,1.725ZM147.778,55.731c1.381-1.282,1.689-2.801.282-4.212.991-.123,1.443.76,2.384.859,1.343.144,3.555-.531,5.053-.595,2.994-.129,5.649.604,8.59.578-.375.701-.384,1.264,0,1.965-1.129-.217-1.534-.994-2.748-1.329-2.191-.601-8.552-.49-10.555.54-.546.279-1.285,2.601-3.006,2.194ZM126.55,77.14c2.434.023,4.907-1.106,7.452.117,0,.135-2.076.61-2.428.669-2.358.384-8.711,1.176-10.796.742-.243-.053-2.455-.789-1.965-1.267,1.229-.065,2.273-.842,3.516-.874,1.311-.029,2.933.601,4.22.613ZM133.613,76.518c-.355-.05-1.528-.111-1.581-.525,7.097-.839,14.207-3.261,20.72-6.141,2.346-1.038,4.737-2.188,6.91-3.59l-.431-.683c-.801.528-1.642,1-2.543,1.458-4.713,2.387-18.474,7.523-23.43,7.816-.513.029-1.053.067-1.226-.546,2.387-.695,4.869-1.167,7.244-1.9.839-.258,1.763-.548,2.745-.871l-.199-.584c-.807.27-1.546.499-2.197.68-.801.223-6.552,1.487-6.901,1.44-.29-.041-.848-.701-.974-1.018,11.784-2.335,24.953-6.731,32.332-16.761.37-.352,1.085.414,1.088.581.003.199-.381.754-.953,1.466l.807.176c.196-.261.361-.452.466-.522.408-.261.836.106.842.284.003.073-.026.182-.085.317l.824.308c.205-.516.381-1.056.531-1.616-1.299-.663-.783-2.566-2.103-2.81l-.003-.414c2.076-1.27.809-1.939-.9-2.478-5.197-1.637-11.614-.522-16.922-1.076-3.924-.411-8.139-2.78-12.394-3.071-7.153-.49-21.122,5.077-24.677,11.629-1.848,3.405,1.1,7.438,3.431,9.907l-2.249-.704c1.821,2.983,5.206,4.983,8.435,6.191l-2.384.273-5.206-1.117c1.78,1.965,4.681,3,7.309,3.094l-3.936.845c-.088.097.235.851.282,1.123.496.296,1.132.921,1.408,1.405.167-.563.842,0,1.126.138.554.267,1.349.812,1.889.924,1.37.284,9.139-.519,10.837-.845,2.018-.39,4.276-1.657,6.394-1.906.431-.402-.032-.51-.419-.557-1.261-.158-2.645-.144-3.904-.32ZM118.596,65.655c-.502-.176-1.393-.182-1.185-.918l15.186,3.264c5.209-1.859,9.526-6.801,14.298-9.353.387-.205.648-.499,1.164-.378-4.162,3.068-8.068,6.86-12.4,9.675-1.522.991-2.631,1.428-4.537,1.223-2.692-.287-9.743-2.531-12.526-3.514Z"/>
      <path class="cls-22" d="M142.021,71.536c6.877-2.249,16.644-5.995,20.653-10.605.519-.598,1.648-2.469,2.349-3.414l-.807-.176c-1.458,1.807-4.138,4.628-4.775,5.141-3.531,2.842-12.104,6.611-17.62,8.47l.199.584Z"/>
      <path class="cls-22" d="M162.128,63.198c-.909.933-1.868,1.701-2.898,2.381l.431.683c3.223-2.076,5.974-4.707,7.408-8.359l-.824-.308c-.54,1.264-3.44,4.907-4.118,5.602Z"/>
    </g>
    <polygon class="cls-22" points="134.875 77.371 127.667 77.96 125.022 76.527 130.64 75.892 135.688 77.251 134.875 77.371"/>
    <polygon class="cls-4" points="115.419 82.936 106.23 81.446 114.46 77.96 115.995 82.245 115.419 82.936"/>
    <polygon class="cls-4" points="119.92 89.116 83.165 99.237 81.794 98.483 117.683 88.09 119.92 89.116"/>
    <polygon class="cls-4" points="95.827 99.392 94.476 98.807 93.206 99.392 95.044 100.483 95.827 99.392"/>
    <polyline class="cls-4" points="99.43 53.011 95.31 54.945 95.58 53.64 99.43 51.806 99.43 53.011"/>
    <path class="cls-4" d="M36.138,151.388c-.691,1.243-1.509,2.601-1.968,3.939h10.545s37.679-45.86,37.679-45.86c11.328-4.017,23.667-6.351,34.947-10.332,7.822-2.761,9.56-6.703,11.505-14.442,8.563-4.416,17.819-7.971,26.344-12.399.597-.31,2.149-.834,1.73-1.646l-28.917,13.482-1.737,5.36c-1.33-1.325-4.324-2.206-5.488-3.507-1.243-1.39-2.1-5.154-3.09-6.896-.275-.484-.912-1.11-1.406-1.407.493,2.757,2.195,5.115,2.809,7.877-.067.084-1.589-1.217-1.69-1.34-.802-.976-1.732-4.274-2.807-4.286-.667,1.383,1.684,3.794,1.575,4.924-.102,1.057-3.125,3.674-4.134,4.19l-30.903,9.03,1.494.924,30.624-8.176c2.066-.742,2.644-2.496,5.001-1.327.851-.662,1.707-1.417,1.974-2.531l5.216,3.372c.19.217-.092.381-.16.565-.29.787-1.153,2.63-1.687,3.095-1.416,1.234-3.63,2.522-5.191,3.668l-32.354,9.551c-.368-.507.772-1.371,1.134-1.678,2.457-2.085,5.652-3.658,8.008-5.914-.049-.014-.368-.708-.844-.563-2.393,2.086-5.979,3.596-8.29,5.632-2.114,1.863-2.228,3.703-5.757,4.087l-35.505,44.234-8.096.059c-.05-.037.509-1.073.562-1.122-.147-.516-.634-.61-1.125-.563Z"/>
    <path class="cls-4" d="M117.408,15.505l-1.123,1.968c.555.16.977-.18,1.405-.28,2.324-.543,4.673-.789,7.029-1.124l-8.178,30.529c.907.777,1.786,2.17,3.117,1.538l-.794-1.464,7.824-32.291c-3.054.317-6.269.556-9.279,1.124Z"/>
    <path class="cls-4" d="M46.824,106.937c-.512-.062-1.118-.695-1.697.132l-17.703,26.177c-.062.471-.025.449.417.421,1.168-.074,2.394-.555,3.517-.848l.565-.979-.283-.146c-.471.127-1.264.477-1.686.142.605-.883,1.154-1.236,1.967-1.83,5.164-7.077,10.82-13.925,15.748-21.1-.015-.091.02-.193,0-.281-.086-.372-.722-1.199-.844-1.688Z"/>
    <path class="cls-4" d="M75.226,56.016c.348-1.071.988-2.731,1.406-3.939s2.935-2.032,4.218-2.532v-.844c-1.346.594-4.955,1.85-5.754,2.824-.248.302-1.566,2.971-1.559,3.239.019.81,1.264.947,1.69,1.252Z"/>
    <path class="cls-4" d="M67.915,72.052l-.56.281c.05-.643-.349-3.015-1.263-2.812l-2.117,4.638c.053.682,3.641-.621,3.94-.7l.281-1.262-.281-.145Z"/>
    <path class="cls-4" d="M62.934,105.333l-23.421,42.676.931-.342,25.499-39.468c.094-.691-.188-.342-.579-.299-1.021.111-2.024.521-3.074.442l1.967-3.234-1.324.226Z"/>
    <path class="cls-4" d="M115.162,19.444l-23.344,39.664c.747.163.617-.057.93-.347,2.264-2.097,2.9-5.213,6.683-5.75l16.565-33.148-.833-.419Z"/>
    <path class="cls-4" d="M48.793,48.142l21.662,21.253,10.395-3.536-.143-.562c-1.781.222-8.448,2.688-9.691,2.114l-17.992-17.455-4.231-1.813Z"/>
    <path class="cls-4" d="M19.547,99.344c.108.563.594.46.985.559,8.694,2.195,19.25,2.463,27.71,4.913,1.312.38,2.28,1.319,3.55,1.777l5.999-2.754c.019-.471.148-.617-.406-.549-1.295.158-4.419,1.686-5.315,1.606-.792-.071-2.668-1.549-3.77-1.543l-28.752-4.008Z"/>
    <polygon class="cls-4" points="98.313 100.214 98.422 101.025 117.351 95.486 120.501 93.436 98.313 100.214"/>
    <path class="cls-4" d="M132.032,74.306c.174.614.713.576,1.225.546,4.959-.293,18.718-5.428,23.43-7.814,2.058-1.042,3.823-2.182,5.441-3.841.751-.77,4.232-5.161,4.204-5.917-.007-.18-.436-.548-.842-.285-.488.316-2.151,3.171-2.816,3.936-4.58,5.269-16.686,9.409-23.398,11.477-2.375.732-4.858,1.204-7.244,1.899Z"/>
    <path class="cls-4" d="M118.814,77.4c-.49.48,1.722,1.217,1.965,1.267,2.086.436,8.436-.357,10.796-.742.352-.057,2.428-.533,2.427-.669-5.395-.292-5.018-.094-7.453-.116-1.286-.012-2.907-.644-4.218-.612-1.244.031-2.287.808-3.517.872Z"/>
    <path class="cls-18" d="M31.076,156.733l25.309-45.01c-.265-.208-2.87.703-3.107,1.25l-17.312,20.379-13.045,3.123,19.403-30.378-31.776-6.189,8.013-3.099,28.136,2.687c.568-.061,2.768-1.808,3.177-2.307.328-.4,3.008-5.041,3.059-5.345.083-.494-.449-1.507-.482-2.211-.277-5.885,1.607-11.028,7.154-13.655l4.611-8.526-20.203-20.714,8.735-5.204.891-.099,17.8,12.06,2.588-3.395,11.039-5.054-1.416,16.409c.91.952,2.109-.306,3.186-.433l28.752-46.351,13.348-2.54-7.472,34.616c.544.768,4.508-1.024,5.505-1.279,9.107-2.324,11.763.234,19.858,1.793,6.645,1.28,30.527-1.791,26.274,11.443-2.408,7.492-11.021,7.016-14.002,13.638l-28.123,13.847c-1.302,3.423-2.058,7.161-4.423,10.065-2.692,3.306-6.481,4.109-10.338,5.413-11.124,3.761-22.494,6.87-33.596,10.701l-35.925,44.094c-.626,1.023-1.281.279-1.7.271-4.636-.087-9.286.065-13.92,0ZM116.542,15.687l-26.961,45.753-7.325,3.013.833-1.002-.282-.531-29.514-19.699-6.746,3.652,21.944,21.929c.184.179-.297,2.177-.578,3.251l-.56.281c.05-.643-.349-3.015-1.263-2.812l-2.117,4.638c.053.682,3.641-.621,3.94-.7.804-.214,2.115-.763,2.678-.843.552-.078.439.106.416.558-3.095,1.23-6.833,2.529-9.647,4.279-3.601,2.239-6.28,6.661-6.661,10.915l1.46-3.177,1.347-1.604c-.862,1.93-.809,3.586.443,5.327.803,1.117,2.941,2.484,2.536.293-.456-2.471-1.526-3.487-.815-6.412.226-.928,1.805-3.563,2.474-4.277.802-.856,2.469-1.831,3.519-1.825-4.204,2.815-5.273,8.19-3.103,12.686,3.942-1.237,8.394-2.352,12.531-2.691.308-.025,1.306-.228,1.257.272l-18.193,5.573-7.956,7.233,12.089,2.387-3.503.57-39.441-4.701-3.453,1.324,31.498,6.322,3.087,1.831c-1.217-.198-2.428-.411-3.654-.56-.512-.062-1.118-.695-1.697.132l-17.703,26.177c-.062.471-.025.449.417.421,1.168-.074,2.394-.555,3.517-.848.726-.19,1.529-.188,2.255-.418l19.536-21.248c1.013-.81,3.141-.72,4.071-1.273.442-.263.515-.84.87-1.098.228-.166,2.13-.801,2.233-.717-7.873,14.542-16.154,28.87-24.184,43.322-.691,1.243-1.509,2.601-1.968,3.939h10.545s37.679-45.86,37.679-45.86c11.328-4.017,23.667-6.351,34.947-10.332,7.822-2.761,9.56-6.703,11.505-14.442,8.563-4.416,17.819-7.971,26.344-12.399.597-.31,2.149-.834,1.73-1.646l-28.917,13.482-1.737,5.36c-1.33-1.325-4.324-2.206-5.488-3.507-1.243-1.39-2.1-5.154-3.09-6.896.168-.563.843,0,1.129.137.554.268,1.347.811,1.888.924,1.37.285,9.138-.519,10.837-.846,2.016-.388,4.276-1.657,6.394-1.906.43-.4-.034-.509-.42-.557-1.262-.158-2.646-.142-3.903-.319-.357-.05-1.53-.112-1.581-.524,7.097-.838,14.207-3.261,20.719-6.141,6.324-2.798,12.949-6.393,14.851-13.566-1.299-.661-.784-2.564-2.105-2.808v-.414c2.074-1.27.808-1.939-.902-2.478-5.198-1.638-11.614-.521-16.922-1.076-3.926-.41-8.14-2.782-12.396-3.072-7.153-.488-21.122,5.078-24.677,11.63-1.847,3.405,1.101,7.436,3.431,9.906l-2.248-.702c1.821,2.983,5.204,4.981,8.434,6.19l-2.383.273-5.207-1.118c1.781,1.966,4.681,3.001,7.31,3.095l-3.937.843c-.088.099.234.852.283,1.123.493,2.757,2.195,5.115,2.809,7.877-.067.084-1.589-1.217-1.69-1.34-.802-.976-1.732-4.274-2.807-4.286l-30.651,8.156,19.334-6.378,2.035-2.201c-5.617.164-11.089,1.837-16.459,3.443l-.411-.485,8.976-4.105,1.423-1.666c-.265-.407-.542-.387-.965-.436-1.944-.222-6.424,1.199-8.591,1.702-1.326.308-2.638.813-3.937,1.125-5.016,1.204-10.078,2.234-15.041,3.661l-.014-.859,10.836-4.207-11.808,2.249-.17-1.136,31.104-10.819.278-.422c-1.22-.015-2.228-.413-3.492-.26-5.166.624-11.902,4.025-17.245,4.974-.397.07-1.039.34-.914-.351l23.9-7.745-.373-.516c-3.746.964-7.524,2.29-11.313,3.047-.426.085-.534.503-.966-.138,4.002-1.96,9.03-2.037,12.372-5.2l-30.089,10.685.28-.42,35.996-13.925c.336-.073.237-.516.281-.563.089-.094.205-.178.281-.281.379-.513.55-.993.844-1.407.591-.832,1.293-1.622,1.967-2.393l-.414-.134-19.412,7.87c-.19.061-.204-.267-.136-.416.131-.29,4.064-4.179,4.515-4.487,1.426-.973,3.587-1.351,5.135-2.177,2.102-1.123,3.885-2.965,5.932-4.193l8.501-19.118c.402.045,1.106-.241.912.398l-5.325,16.633c.061.508,3.143,2.426,3.664,2.568.61.165.859-.442,1.409-.461l-3.379-2.642,8.183-26.44-4.076-2.12.116-1.147c2.324-.543,4.673-.789,7.029-1.124l-8.178,30.529c.907.777,1.786,2.17,3.117,1.538l-.794-1.464,7.824-32.291c-3.054.317-6.269.556-9.279,1.124-.265.05-.659-.169-.866.183ZM75.096,51.525c-.248.302-1.566,2.971-1.559,3.239.019.81,1.264.947,1.69,1.252.428.307,3.289,2.628,3.654,2.251l.844-6.752-3.092.563c.417-1.202,2.935-2.032,4.218-2.532.266-.104.583-.123.841-.281l-.981,10.402c.219.252.461.636.839.568.63-.113,1.268-11.138,1.837-12.514-.784-.171-1.777.646-2.535.98-1.346.594-4.955,1.85-5.754,2.824Z"/>
    <path class="cls-18" d="M110.097,55.454c-.481-.727-.116-.513-.742-.334-.97.277-2.261.866-3.265,1.249-10.928,4.166-21.621,8.991-32.551,13.155l.389.531,35.325-13.194c.379-.513.55-.993.844-1.407Z"/>
    <line class="cls-25" x1="85.35" y1="79.085" x2="85.912" y2="79.367"/>
    <path class="cls-25" d="M89.568,78.804c-.018-.3-.139-.584-.281-.844"/>
    <path class="cls-5" d="M108.691,57.704c.336-.073.237-.516.281-.563l-.281.563Z"/>
    <path class="cls-18" d="M37.263,151.95c-.053.05-.613,1.085-.562,1.122l8.096-.059,35.505-44.234c3.529-.385,3.643-2.224,5.757-4.087,2.311-2.036,5.897-3.547,8.29-5.632l.283-.56c-.314-.056-.562.036-.852.132-1.545.51-7.586,3.63-8.914,4.586-1.148.826-1.988,2.979-2.903,3.566-.99.636-2.941.496-3.936,1.408l-32.034,39.692c-1.66,1.885-7.226,2.649-8.73,4.067Z"/>
    <path class="cls-18" d="M63.978,107.216l4.79-.719.496,3.615-12.876,21.728.415.415,18.973-24.908c1.225-1.121,3.145-.516,4.617-1.289,1.255-.659,2.716-3.556,4.131-4.588,1.621-1.181,4.343-2.039,6.176-3.116.364-.214.709.05.553-.699l-25.193,6.725-2.083,2.837Z"/>
    <path class="cls-18" d="M123.595,93.996c-.171-.565-.841.001-1.129.137-7.886,3.725-16.343,5.443-24.639,8.018l-1.939-.845.145-1.964c-.071-.09-.616.345-.841.281-2.356,2.257-5.551,3.829-8.008,5.914-.363.308-1.502,1.171-1.134,1.678l32.354-9.551c1.561-1.146,3.775-2.434,5.191-3.668Z"/>
    <path class="cls-18" d="M82.625,92.397c-.554.469-2.516,3.529-3.072,4.38-.156.239-.691.625-.251.875,1.822-.982,2.997-3.366,4.841-4.16,7.291-3.136,16.766-4.463,24.252-7.528l3.668-.404-4.282-1.076c-6.118,2.794-20.348,3.837-25.156,7.913Z"/>
    <path class="cls-18" d="M31.92,130.006c-.813.594-1.362.947-1.967,1.83.422.335,1.215-.016,1.686-.142.641-.172,2.203-.717,2.678-1.119l17.286-18.998-2.822.834c-5.107,5.147-9.757,11.28-14.886,16.336-.877.865-1.396.834-1.976,1.258Z"/>
    <path class="cls-18" d="M125.282,90.901c.068-.184.349-.348.16-.565l-5.216-3.372c-.267,1.113-1.123,1.869-1.974,2.531-.856.666-2.59,1.733-3.577,2.189-5.056,2.334-11.437,3.58-16.67,5.692.135.549.704.649,1.19.509,5.328-1.995,11.413-2.981,16.672-5.008,1.515-.584,5.608-3.231,6.671-3.054.819.137,1.724,1.214,2.744,1.079Z"/>
    <path class="cls-18" d="M47.668,108.625c.02.088-.015.19,0,.281l1.016,1.711c4.517-1.44,10.138-2.413,12.763-6.772-.679-.554-9.74,5.7-12.161,5.294-.496-.083-1.248-.964-1.618-.514Z"/>
    <path class="cls-18" d="M63.416,58.27l8.738,7.738,4.758-.429-4.009-1.189c-3.085-2.18-5.758-5.004-9.487-6.12Z"/>
    <path class="cls-18" d="M64.542,95.683c1.983.108,1.538-3.119,2.538-3.788,3.299-1.191,7.114-1.888,10.34-3.172.428-.17.76.162.616-.633-4.407.304-8.466,2.025-12.653,3.234l-.842,4.359Z"/>
    <polygon class="cls-4" points="135.459 48.296 128.938 48.919 124.641 50.223 119.261 53.202 114.425 57.423 114.765 59.637 116.659 62.034 117.081 63.307 132.032 65.48 133.564 65.139 146.376 55.78 147.458 53.643 147.458 52.311 136.424 48.589 135.459 48.296"/>
    <path class="cls-18" d="M114.474,56.597c3.012-3.6,10.572-7.729,15.196-8.429,4.773-.722,8.396.109,12.84,1.725.829.301,5.34,2.179,5.503,2.651.173.502.116,1.553-.1,2.06-.865,2.033-12.349,10.761-14.635,11.525-.422.141-.859.269-1.311.218l-16.183-3.081c-.427-2.199-2.965-4.692-1.31-6.67ZM130.347,57.421l.837-1.966,1.833,3.935.703-4.217,2.808,2.249-.839-5.625c.246-.274,4.895,2.895,5.487,3.089.423.138.444.009.37-.367-.185-.939-.362-1.747-.233-2.723l5.341,1.403c-.387-.595-1.406-.881-2.062-1.169-2.284-1.004-6.974-2.736-9.35-3.024-1.641-.199-3.21-.035-4.992.245-.334.079-.382.841-.468,1.138-.704,2.433.363,4.562.565,7.032ZM118.811,54.186c-.634.536-3.477,3.428-3.613,4.002-.267,1.13,1.521,2.629,2.352,3.173l.142-1.686,1.963,1.688-.557-3.376,2.951,3.093-.151-3.022c.42.357.486.383.653.57.619.695,1.096,1.663,1.885,2.172l-.838-4.783,3.514,4.219-.141-2.81,1.967,1.121c-.95-2.798-1.592-5.793-.844-8.716-.378-.331-5.519,1.872-6.291,2.282-.753.401-1.042.687-1.669,1.022-.537.287-.688.516-1.322,1.052ZM134.703,57.428l-1.405,3.932-1.826-2.249c-.732,2.013.887,4.203,2.542,5.234,1.854-1.11,12.334-8.662,12.362-10.155l-4.22-.988-.145,3.098-4.356-1.972v5.064s-2.953-1.964-2.953-1.964ZM125.283,59.675l.277,3.093-2.389-1.968-.142,1.686-2.527-1.686.014,2.235,10.671,1.699c-.744-.783-1.79-4.532-2.395-4.777-.838-.339-.482,1.991-.98,2.248-.212-.222-.288-.335-.562-.563.117-.548-1.682-2.281-1.967-1.968ZM118.25,62.77l1.407-.004c-.09-.246-1.067-1.798-1.404-1.402l-.003,1.407Z"/>
    <path class="cls-18" d="M131.75,72.055c.125.317.685.976.975,1.016.349.049,6.1-1.217,6.901-1.439,5.098-1.418,15.77-5.892,19.817-9.151.885-.713,5.735-5.9,5.726-6.607-.002-.166-.717-.933-1.086-.58-7.38,10.03-20.549,14.426-32.333,16.762Z"/>
    <path class="cls-18" d="M117.41,64.738c-.206.735.686.74,1.186.917,2.785.983,9.833,3.226,12.526,3.514,1.908.205,3.017-.233,4.539-1.222,4.33-2.816,8.238-6.609,12.399-9.677-.515-.12-.779.173-1.164.38-4.773,2.552-9.091,7.493-14.297,9.351l-15.188-3.262Z"/>
    <path class="cls-18" d="M148.06,51.518c1.407,1.413,1.099,2.932-.281,4.214,1.72.407,2.46-1.917,3.004-2.196,2.005-1.029,8.365-1.14,10.558-.537,1.213.334,1.617,1.109,2.748,1.327-.387-.701-.376-1.263,0-1.964-2.944.027-5.597-.707-8.59-.579-1.501.064-3.711.739-5.053.597-.943-.1-1.393-.983-2.385-.862Z"/>
    <path class="cls-18" d="M121.909,52.36l.558,3.937-1.4-1.125c-.146.313-.306,1.96-.421,2.529l-2.391-2.248-.006,2.25-1.402-.842c-.43,1.912-.01,2.529.143,3.09l.42-1.685,1.4,1.405.006-2.812,2.389,2.249.142-2.53,1.963,1.688-.838-4.782,4.076,4.781.142-2.249,1.403.56c-.159-1.16-.835-1.275-1.825-1.688l-.283,1.69c-.664-.216-3.568-4.788-4.077-4.217Z"/>
    <path class="cls-18" d="M134.001,49.547l.558,3.937-1.681-1.125-.288,2.531-1.825-2.526c-.656.61-.728,1.45-.418,2.243l.28-.842,1.969,3.374.56-3.372,2.245,1.405-.557-4.783,5.901,3.093-.293-2.523-.829-.008-.139.842-5.484-2.247Z"/>
    <polygon class="cls-18" points="63.163 95.685 63.975 91.887 58.848 93.436 52.737 99.344 60.526 100.483 60.127 99.344 59.727 96.185 63.163 95.685"/>
    <polygon class="cls-18" points="76.912 97.941 63.975 101.571 62.662 97.651 66.526 97.651 66.919 98.483 76.912 97.941"/>
    <polygon class="cls-18" points="111.756 80.547 81.381 89.116 82.048 88.09 112.063 78.795 111.756 80.547"/>
    <polygon class="cls-18" points="83.019 61.071 69.763 52.359 68.916 53.28 82.619 62.5 83.019 61.071"/>
    <polygon class="cls-18" points="88.172 60.243 83.386 62.139 83.858 62.829 88.692 61.071 88.172 60.243"/>
    <polygon class="cls-18" points="50.733 151.508 46.144 157.192 30.763 157.192 32.157 154.81 33.36 156.074 44.586 156.433 49.82 151.16 50.733 151.508"/>
    <polygon class="cls-18" points="67.355 72.333 44.014 46.738 51.364 52.575 68.196 70.054 67.355 72.333"/>
  </g>
  <g>
    <g>
      <circle class="cls-24" cx="476.947" cy="83.954" r="64.195"/>
      <path class="cls-9" d="M476.947,148.598c-35.645,0-64.645-29-64.645-64.645s29-64.645,64.645-64.645c35.645,0,64.644,29,64.644,64.645s-29,64.645-64.644,64.645ZM476.947,20.208c-35.149,0-63.746,28.596-63.746,63.745s28.597,63.745,63.746,63.745,63.745-28.596,63.745-63.745-28.596-63.745-63.745-63.745Z"/>
    </g>
    <path class="cls-3" d="M412.596,83.953c0-35.483,28.868-64.351,64.351-64.351,35.483,0,64.351,28.868,64.351,64.351,0,35.483-28.868,64.351-64.351,64.351-35.483,0-64.351-28.868-64.351-64.351ZM412.907,83.953c0,35.312,28.728,64.04,64.04,64.04,35.312,0,64.04-28.728,64.04-64.04,0-35.312-28.728-64.04-64.04-64.04-35.312,0-64.04,28.728-64.04,64.04Z"/>
    <path class="cls-3" d="M476.947,148.781c-35.746,0-64.827-29.082-64.827-64.828s29.082-64.827,64.827-64.827c35.746,0,64.828,29.082,64.828,64.827,0,35.746-29.082,64.828-64.828,64.828ZM476.947,20.391c-35.049,0-63.562,28.514-63.562,63.562s28.514,63.563,63.562,63.563c35.049,0,63.563-28.514,63.563-63.563,0-35.049-28.514-63.562-63.563-63.562Z"/>
    <path class="cls-7" d="M534.988,98.444c-36.583-10.642-78.335-22.816-118.197-34.45.266-.991.513-1.985.729-2.984.421-1.95.844-3.904,1.328-5.841l117.091,38.136c-.329,1.71-.635,3.426-.951,5.139Z"/>
    <path class="cls-7" d="M534.488,101.069c-.329,1.665-.686,3.324-1.104,4.969-36.434-9.331-78.23-20.064-118.373-30.383.797-2.952,1.361-5.915,1.232-8.911l118.245,34.325Z"/>
    <path class="cls-7" d="M416.071,102.992l75.338,5.928,40.398,2.251c-.933,2.494-2.088,4.889-3.393,7.206-.278.32-.528.657-.748,1.011-24.724,3.115-57.52,7.215-93.048,11.705-7.959-7.853-14.01-17.859-18.547-28.102Z"/>
    <path class="cls-7" d="M536.646,89.853c-27.534-14.867-63.931-34.545-103.512-55.907,1.694-1.44,3.408-2.85,5.226-4.113,4.837-3.36,10.216-5.725,15.552-8.159l58.196,42.406,25.983,18.261c-.362,2.523-.905,5.023-1.446,7.513Z"/>
    <circle class="cls-1" cx="475.098" cy="81.26" r="61.602"/>
    <path class="cls-18" d="M394.17,81.353c0,1.363,1.105,2.467,2.467,2.467h.794s10.67,0,10.67,0c1.03,35.348,29.288,63.862,64.53,65.307v10.365s0,.794,0,.794c0,1.363,1.105,2.467,2.467,2.467s2.467-1.105,2.467-2.467v-.794s0-10.339,0-10.339c35.388-1.099,63.895-29.486,65.189-64.824h10.014s.794,0,.794,0c1.363,0,2.467-1.105,2.467-2.467,0-1.363-1.105-2.467-2.467-2.467h-.794s-10.011,0-10.011,0c-1.254-35.375-29.778-63.804-65.192-64.904V4.194s0-.794,0-.794c0-1.363-1.105-2.467-2.467-2.467s-2.467,1.105-2.467,2.467v.794s0,10.322,0,10.322c-34.93,1.432-62.997,29.457-64.494,64.37h-10.706s-.794,0-.794,0c-1.363,0-2.467,1.105-2.467,2.467ZM413.871,83.821h20.509s.794,0,.794,0c1.363,0,2.467-1.105,2.467-2.467,0-1.363-1.105-2.467-2.467-2.467h-.794s-20.474,0-20.474,0c1.489-31.728,26.979-57.176,58.725-58.6v20.858s0,.794,0,.794c0,1.363,1.105,2.467,2.467,2.467,1.363,0,2.467-1.105,2.467-2.467v-.794s0-20.884,0-20.884c32.229,1.095,58.174,26.944,59.422,59.134h-21.168s-.794,0-.794,0c-1.363,0-2.467,1.105-2.467,2.467,0,1.363,1.105,2.467,2.467,2.467h.794s21.165,0,21.165,0c-1.288,32.153-27.216,57.961-59.419,59.055v-20.841s0-.794,0-.794c0-1.363-1.105-2.467-2.467-2.467s-2.467,1.105-2.467,2.467v.794s0,20.815,0,20.815c-32.057-1.438-57.735-27.374-58.76-59.537Z"/>
    <path class="cls-23" d="M471.698,160.286v-10.269c-16.956-.916-32.843-8.059-44.825-20.173-11.989-12.123-18.954-28.104-19.673-45.09h-10.563c-1.875,0-3.401-1.526-3.401-3.401,0-1.875,1.526-3.4,3.401-3.4h10.611c.939-16.788,7.999-32.549,19.939-44.468,11.941-11.92,27.718-18.951,44.51-19.859V3.401C471.698,1.526,473.223,0,475.098,0c1.875,0,3.401,1.526,3.401,3.401v10.191c17.024.752,33.021,7.775,45.131,19.836,12.107,12.058,19.196,28.02,20.022,45.033h9.91c1.875,0,3.401,1.526,3.401,3.401s-1.526,3.401-3.401,3.401h-9.914c-.845,16.996-7.942,32.94-20.045,44.98-12.107,12.044-28.094,19.058-45.105,19.81v10.234c0,1.875-1.526,3.401-3.401,3.401-1.875,0-3.4-1.526-3.4-3.401ZM541.856,80.328l-.032-.9c-.598-16.875-7.527-32.742-19.512-44.677-11.988-11.939-27.89-18.803-44.777-19.327l-.904-.028V3.401c0-.846-.688-1.534-1.534-1.534s-1.534.688-1.534,1.534v12.011s-.895.037-.895.037c-16.658.683-32.342,7.558-44.163,19.357-11.82,11.799-18.723,27.467-19.437,44.12l-.038.893h-12.394c-.846,0-1.534.688-1.534,1.534s.688,1.534,1.534,1.534h12.37s.026.906.026.906c.491,16.849,7.298,32.737,19.166,44.738,11.859,11.991,27.651,18.974,44.469,19.664l.895.037v12.054c0,.846.688,1.534,1.534,1.534.846,0,1.534-.688,1.534-1.534v-12.037s.904-.028.904-.028c16.873-.524,32.766-7.378,44.75-19.301,11.98-11.918,18.918-27.766,19.535-44.624l.033-.899h11.708c.846,0,1.534-.688,1.534-1.534s-.688-1.534-1.534-1.534h-11.706ZM476.632,121.749c0-.846-.688-1.534-1.534-1.534-.846,0-1.534.688-1.534,1.534v22.585s-.975-.044-.975-.044c-15.749-.706-30.537-7.285-41.639-18.523-11.112-11.248-17.509-26.135-18.012-41.917l-.031-.963h22.267c.846,0,1.534-.688,1.534-1.534,0-.846-.688-1.534-1.534-1.534h-22.246s.046-.977.046-.977c.731-15.58,7.226-30.24,18.289-41.281,11.064-11.042,25.741-17.509,41.326-18.208l.975-.044v22.628c0,.846.688,1.534,1.534,1.534.846,0,1.534-.688,1.534-1.534v-22.643s.965.033.965.033c15.82.537,30.721,6.993,41.956,18.178,11.231,11.181,17.754,26.045,18.367,41.853l.038.969h-22.932c-.846,0-1.534.688-1.534,1.534,0,.846.688,1.534,1.534,1.534h22.93s-.039.971-.039.971c-.633,15.791-7.164,30.636-18.391,41.799-11.232,11.168-26.123,17.614-41.929,18.151l-.965.033v-22.6ZM515.026,85.262c-1.875,0-3.401-1.526-3.401-3.401s1.526-3.401,3.401-3.401h20.984c-.818-14.973-7.107-29.015-17.774-39.633-10.671-10.623-24.75-16.849-39.737-17.595v20.704c0,1.875-1.526,3.401-3.401,3.401-1.875,0-3.4-1.526-3.4-3.401v-20.668c-14.755.899-28.613,7.131-39.116,17.613-10.501,10.48-16.76,24.322-17.69,39.071h20.282c1.875,0,3.401,1.525,3.401,3.4,0,1.875-1.526,3.401-3.401,3.401h-20.332c.713,14.952,6.882,29.018,17.436,39.701,10.542,10.671,24.507,17.011,39.42,17.919v-20.625c0-1.875,1.525-3.4,3.4-3.4s3.401,1.525,3.401,3.4v20.661c14.974-.745,29.044-6.962,39.711-17.569,10.662-10.601,16.959-24.623,17.795-39.579h-20.98Z"/>
  </g>
  <g>
    <path class="cls-7" d="M541.07,99.345l-7.922,1.59-.059-.293c1.138-.22,2.252-.463,3.34-.739.393-.097.88.006.985-.557l-28.751,4.006c-1.103-.006-2.98,1.472-3.772,1.543-.895.082-4.018-1.446-5.314-1.604-.12-.015-.205-.021-.27-.012l-.082-.683,38.391-4.572,3.452,1.323Z"/>
    <path class="cls-7" d="M485.947,67.409c-1.244.575-7.91-1.892-9.69-2.112l-.144.56-.273.675c-8.326-3.379-16.576-6.965-24.967-10.165-1.003-.381-2.296-.971-3.264-1.246-.628-.179-.261-.393-.742.334-.592-.833-1.293-1.625-1.968-2.393l.414-.135,19.412,7.869c.191.062.205-.267.135-.414-.044-.1-.537-.625-1.185-1.285l.68-.179c.155.202.185.32.789.191l-23.345-39.667.619-.367,24.964,42.365,7.323,3.012-.833-1.003.282-.531,29.516-19.697,6.746,3.651-1.757,1.757-.49-.49-4.229,1.815-17.993,17.453ZM480.052,65.579l4.757.428,8.737-7.737c-3.728,1.114-6.402,3.939-9.485,6.118l-4.009,1.191Z"/>
    <path class="cls-7" d="M492.704,105.108l1.968,3.232c-1.05.079-2.053-.328-3.074-.44-.39-.044-.675-.393-.578.299l25.498,39.467.933.343-23.422-42.676-1.326-.226ZM488.194,106.498l4.792.719-2.085-2.839-25.19-6.722c-.158.748.188.484.551.698,1.833,1.076,4.555,1.936,6.177,3.118,1.417,1.029,2.877,3.927,4.129,4.587,1.472.771,3.393.167,4.619,1.288l18.972,24.909.414-.414-12.875-21.729.496-3.613ZM439.611,95.485l18.928,5.54.111-.812-22.19-6.778,3.15,2.05ZM498.177,102.72l1.05-.126.082.683c-.235.023-.153.191-.138.56l6.001,2.754c1.27-.458,2.238-1.396,3.549-1.777,7.402-2.144,16.409-2.616,24.369-4.173l.059.293-23.577,4.734-3.085,1.83c1.217-.199,2.425-.411,3.654-.56-.123.49-.76,1.314-.845,1.686-.15-.179-.358-.147-.589-.035-.343.164-.733.502-1.029.551-2.42.405-11.482-5.848-12.16-5.294,2.625,4.358,8.244,5.332,12.761,6.772l1.003-1.689.015-.023c4.927,7.177,10.585,14.025,15.746,21.102-.578-.425-1.097-.396-1.974-1.258-5.13-5.056-9.781-11.192-14.887-16.336l-2.821-.836,17.286,18.999c.475.402,2.038.944,2.678,1.117l-.282.147.563.98c-.727-.191-1.528-.188-2.255-.419l-19.536-21.245c-1.012-.812-3.141-.721-4.071-1.273-.44-.264-.513-.842-.871-1.1-.226-.167-2.129-.801-2.232-.719,7.875,14.544,16.154,28.871,24.184,43.324-.49-.047-.977.047-1.123.563-1.505-1.419-7.071-2.182-8.731-4.068l-32.035-39.693c-.994-.909-2.945-.771-3.936-1.408-.915-.587-1.754-2.739-2.901-3.566-1.329-.956-7.37-4.074-8.916-4.584-.29-.097-.537-.188-.851-.132l.282.56c-.475-.147-.795.548-.842.563-.226.065-.771-.372-.842-.282l.144,1.965-1.939.845c-8.297-2.575-16.752-4.294-24.639-8.018-.287-.135-.956-.704-1.129-.138-.534-.463-1.396-2.308-1.686-3.094,1.018.135,1.924-.941,2.742-1.079,1.065-.176,5.159,2.469,6.672,3.056,5.259,2.027,11.344,3.012,16.673,5.006.487.141,1.056.041,1.188-.507-5.232-2.112-11.611-3.361-16.667-5.693-.988-.458-2.722-1.522-3.578-2.191,2.358-1.167,2.936.587,5,1.329l30.625,8.177,1.493-.924-30.903-9.03c-1.009-.516-4.03-3.135-4.132-4.191-.111-1.129,2.241-3.54,1.575-4.924l30.648,8.156-19.333-6.379-2.035-2.2c5.619.164,11.089,1.836,16.459,3.443l.414-.484-8.977-4.106-1.422-1.666c.264-.408.543-.387.965-.437,1.944-.22,6.423,1.2,8.59,1.704-.141.258-.264.543-.282.842-.009.182-.041.364.021.537,4.273.578,8.889,2.575,13.086,3.091.305.038,1.024.243.953-.246-3.484-.88-6.927-1.909-10.403-2.818l.56-.282c5.018,1.205,10.08,2.235,15.042,3.663l.015-.859-10.837-4.206,11.808,2.249.17-1.138-31.103-10.819-.279-.422c1.22-.015,2.226-.414,3.49-.258,5.168.622,11.904,4.024,17.245,4.971.399.07,1.038.34.915-.349l-23.9-7.746.372-.516c3.745.965,7.523,2.291,11.315,3.047.425.085.534.502.965-.138-4.003-1.959-9.03-2.038-12.371-5.2l30.088,10.684-.279-.419-35.998-13.925-.282-.563c-.088-.094-.205-.176-.282-.282l35.326,13.195.39-.531c-2.54-.968-5.065-1.971-7.584-2.991l.273-.675,10.394,3.537,21.662-21.254.49.49-20.19,20.172c-.481,1.044-.598,2.631.578,3.25l-.282.144.282,1.264c-.804-.214-2.115-.765-2.678-.845-.551-.076-.44.109-.416.56,3.097,1.229,6.833,2.528,9.649,4.279,3.599,2.238,6.279,6.66,6.66,10.913l-1.461-3.176-1.346-1.604c.862,1.93.809,3.587-.443,5.326-.804,1.117-2.942,2.484-2.537.293.458-2.469,1.528-3.487.815-6.411-.226-.927-1.804-3.563-2.472-4.276-.804-.856-2.469-1.833-3.519-1.827,4.203,2.816,5.273,8.191,3.103,12.687-3.945-1.238-8.394-2.352-12.532-2.692-.308-.023-1.305-.229-1.258.273l18.195,5.572,7.954,7.232-12.086,2.387,3.502.569ZM492.42,95.682l-.842-4.358c-4.188-1.208-8.244-2.93-12.652-3.235-.144.798.188.463.616.633,3.226,1.285,7.042,1.983,10.341,3.173,1,.669.554,3.895,2.537,3.786ZM477.662,97.652c.44-.249-.097-.636-.252-.877-.554-.851-2.516-3.909-3.071-4.379-4.81-4.077-19.04-5.121-25.158-7.913l-4.282,1.076,3.669.405c7.485,3.065,16.961,4.39,24.252,7.526,1.845.795,3.018,3.179,4.842,4.162Z"/>
    <path class="cls-7" d="M440.679,17.472l-1.123-1.968c.264.05.66-.167.865.182l1.997,3.39-.619.367-.83.419,16.565,33.15c3.78.537,4.417,3.651,6.681,5.748.059.056.103.109.141.158l-.68.179c-1.238-1.255-3.033-3-3.329-3.203-1.425-.974-3.587-1.352-5.135-2.179-2.103-1.123-3.886-2.965-5.933-4.191l-8.499-19.119c-.402.044-1.106-.24-.912.396l5.323,16.635c-.059.507-3.141,2.425-3.663,2.566-.61.167-.859-.443-1.408-.46l3.379-2.642-8.183-26.439,4.074-2.12-.114-1.147c.428.1.848.44,1.405.279Z"/>
  </g>
  <path class="cls-7" d="M480.33,52.078c.418,1.207.477,2.922,1.406,3.939-.428.307-3.289,2.628-3.654,2.251l-.844-6.752,3.092.563Z"/>
  <polyline class="cls-7" points="483.123 84.566 463.597 79.085 465.215 76.172 485.656 82.005"/>
  <polygon class="cls-6" points="480.731 56.916 482.566 55.405 480.996 52.148 478.897 51.817 480.731 56.916"/>
  <polyline class="cls-7" points="488.47 68.802 489.048 72.052 488.47 72.333 487.221 70.647 488.47 68.802"/>
  <path class="cls-7" d="M476.112,48.702v.844c-.266-.104-.583-.123-.841-.281l.981,10.402c-.219.252-.461.636-.839.568-.63-.113-1.268-11.138-1.837-12.514.784-.171,1.777.646,2.535.98Z"/>
  <g>
    <path class="cls-7" d="M423.349,76.518c.358-.05,1.531-.111,1.581-.525-7.097-.839-14.207-3.261-20.718-6.141-1.367-.604-2.748-1.246-4.091-1.953l.384-.748c4.912,2.431,18.318,7.414,23.202,7.702.51.029,1.05.067,1.226-.546-2.387-.695-4.871-1.167-7.247-1.9-.824-.255-1.727-.54-2.692-.853l.194-.587c.789.264,1.513.487,2.15.666.801.223,6.552,1.487,6.901,1.44.29-.041.851-.701.977-1.018-11.784-2.335-24.955-6.731-32.334-16.761-.37-.352-1.082.414-1.085.581-.003.199.381.754.953,1.466l-.809.176c-.196-.261-.361-.452-.466-.522-.405-.261-.833.106-.842.284-.003.073.029.182.085.317l-.824.308c-.205-.516-.381-1.056-.531-1.616,1.299-.663.783-2.566,2.106-2.81v-.414c-2.074-1.27-.809-1.939.9-2.478,5.2-1.637,11.617-.522,16.922-1.076,3.927-.411,8.142-2.78,12.397-3.071,7.153-.49,21.122,5.077,24.677,11.629,1.848,3.405-1.103,7.438-3.431,9.907l2.247-.704c-1.821,2.983-5.203,4.983-8.432,6.191l2.381.273,5.209-1.117c-1.78,1.965-4.681,3-7.312,3.094l3.939.845c.088.097-.235.851-.284,1.123-.493.296-1.132.921-1.405,1.405-.17-.563-.845,0-1.129.138-.554.267-1.346.812-1.889.924-1.37.284-9.136-.519-10.837-.845-2.015-.39-4.276-1.657-6.394-1.906-.431-.402.035-.51.419-.557,1.264-.158,2.645-.144,3.904-.32ZM409.183,55.731c-1.378-1.282-1.686-2.801-.282-4.212-.991-.123-1.44.76-2.384.859-1.343.144-3.552-.531-5.053-.595-2.991-.129-5.646.604-8.59.578.375.701.387,1.264,0,1.965,1.132-.217,1.537-.994,2.748-1.329,2.194-.601,8.552-.49,10.558.54.543.279,1.285,2.601,3.003,2.194ZM408.949,52.546c-.173.502-.114,1.551.103,2.059.862,2.032,12.347,10.761,14.635,11.526.419.141.856.27,1.311.217l16.183-3.079c.425-2.2,2.965-4.693,1.308-6.672-3.012-3.599-10.57-7.728-15.195-8.426-4.775-.724-8.397.109-12.84,1.725-.83.302-5.341,2.179-5.505,2.651ZM422.962,77.258c0,.135,2.074.61,2.425.669,2.361.384,8.711,1.176,10.796.742.243-.053,2.458-.789,1.965-1.267-1.229-.065-2.273-.842-3.516-.874-1.311-.029-2.93.601-4.217.613-2.434.023-4.907-1.106-7.452.117ZM438.368,65.655c.499-.176,1.39-.182,1.185-.918l-15.189,3.264c-5.206-1.859-9.523-6.801-14.298-9.353-.384-.205-.648-.499-1.164-.378,4.162,3.068,8.071,6.86,12.4,9.675,1.522.991,2.631,1.428,4.54,1.223,2.692-.287,9.74-2.531,12.526-3.514Z"/>
    <path class="cls-7" d="M414.993,71.553c-6.877-2.247-16.688-6.001-20.706-10.623-.519-.598-1.645-2.469-2.349-3.414l.809-.176c1.455,1.807,4.135,4.628,4.772,5.141,3.54,2.851,12.157,6.631,17.667,8.485l-.194.587Z"/>
    <path class="cls-7" d="M400.505,67.151l-.384.748c-.589-.311-1.173-.633-1.745-.974l.408-.695c.481.279.98.546,1.493.807.073.038.15.076.229.114Z"/>
    <path class="cls-7" d="M398.783,66.23l-.408.695c-.575-.337-1.138-.692-1.683-1.065l.364-.748c.554.402,1.129.768,1.727,1.117Z"/>
    <path class="cls-7" d="M397.056,65.113l-.364.748c-2.959-2.012-5.455-4.537-6.801-7.957l.824-.308c.54,1.258,3.443,4.907,4.121,5.602.71.727,1.443,1.352,2.22,1.915Z"/>
  </g>
  <polygon class="cls-7" points="422.088 77.371 429.296 77.96 431.941 76.527 426.323 75.892 421.275 77.251 422.088 77.371"/>
  <polygon class="cls-6" points="441.544 82.936 450.733 81.446 442.503 77.96 440.968 82.245 441.544 82.936"/>
  <polygon class="cls-6" points="437.043 89.116 473.798 99.237 475.169 98.483 439.28 88.09 437.043 89.116"/>
  <polygon class="cls-6" points="461.136 99.392 462.487 98.807 463.757 99.392 461.919 100.483 461.136 99.392"/>
  <polyline class="cls-6" points="457.533 53.011 461.653 54.945 461.383 53.64 457.533 51.806 457.533 53.011"/>
  <path class="cls-6" d="M520.825,151.388c.691,1.243,1.509,2.601,1.968,3.939h-10.545s-37.679-45.86-37.679-45.86c-11.328-4.017-23.667-6.351-34.947-10.332-7.822-2.761-9.56-6.703-11.505-14.442-8.563-4.416-17.819-7.971-26.344-12.399-.597-.31-2.149-.834-1.73-1.646l28.917,13.482,1.737,5.36c1.33-1.325,4.324-2.206,5.488-3.507,1.243-1.39,2.1-5.154,3.09-6.896.275-.484.912-1.11,1.406-1.407-.493,2.757-2.195,5.115-2.809,7.877.067.084,1.589-1.217,1.69-1.34.802-.976,1.732-4.274,2.807-4.286.667,1.383-1.684,3.794-1.575,4.924.102,1.057,3.125,3.674,4.134,4.19l30.903,9.03-1.494.924-30.624-8.176c-2.066-.742-2.644-2.496-5.001-1.327-.851-.662-1.707-1.417-1.974-2.531l-5.216,3.372c-.19.217.092.381.16.565.29.787,1.153,2.63,1.687,3.095,1.416,1.234,3.63,2.522,5.191,3.668l32.354,9.551c.368-.507-.772-1.371-1.134-1.678-2.457-2.085-5.652-3.658-8.008-5.914.049-.014.368-.708.844-.563,2.393,2.086,5.979,3.596,8.29,5.632,2.114,1.863,2.228,3.703,5.757,4.087l35.505,44.234,8.096.059c.05-.037-.509-1.073-.562-1.122.147-.516.634-.61,1.125-.563Z"/>
  <path class="cls-6" d="M439.555,15.505l1.123,1.968c-.555.16-.977-.18-1.405-.28-2.324-.543-4.673-.789-7.029-1.124l8.178,30.529c-.907.777-1.786,2.17-3.117,1.538l.794-1.464-7.824-32.291c3.054.317,6.269.556,9.279,1.124Z"/>
  <path class="cls-6" d="M510.139,106.937c.512-.062,1.118-.695,1.697.132l17.703,26.177c.062.471.025.449-.417.421-1.168-.074-2.394-.555-3.517-.848l-.565-.979.283-.146c.471.127,1.264.477,1.686.142-.605-.883-1.154-1.236-1.967-1.83-5.164-7.077-10.82-13.925-15.748-21.1.015-.091-.02-.193,0-.281.086-.372.722-1.199.844-1.688Z"/>
  <path class="cls-6" d="M481.737,56.016c-.348-1.071-.988-2.731-1.406-3.939s-2.935-2.032-4.218-2.532v-.844c1.346.594,4.955,1.85,5.754,2.824.248.302,1.566,2.971,1.559,3.239-.019.81-1.264.947-1.69,1.252Z"/>
  <path class="cls-6" d="M489.048,72.052l.56.281c-.05-.643.349-3.015,1.263-2.812l2.117,4.638c-.053.682-3.641-.621-3.94-.7l-.281-1.262.281-.145Z"/>
  <path class="cls-6" d="M494.029,105.333l23.421,42.676-.931-.342-25.499-39.468c-.094-.691.188-.342.579-.299,1.021.111,2.024.521,3.074.442l-1.967-3.234,1.324.226Z"/>
  <path class="cls-6" d="M441.801,19.444l23.344,39.664c-.747.163-.617-.057-.93-.347-2.264-2.097-2.9-5.213-6.683-5.75l-16.565-33.148.833-.419Z"/>
  <path class="cls-6" d="M508.17,48.142l-21.662,21.253-10.395-3.536.143-.562c1.781.222,8.448,2.688,9.691,2.114l17.992-17.455,4.231-1.813Z"/>
  <path class="cls-6" d="M537.416,99.344c-.108.563-.594.46-.985.559-8.694,2.195-19.25,2.463-27.71,4.913-1.312.38-2.28,1.319-3.55,1.777l-5.999-2.754c-.019-.471-.148-.617.406-.549,1.295.158,4.419,1.686,5.315,1.606.792-.071,2.668-1.549,3.77-1.543l28.752-4.008Z"/>
  <polygon class="cls-6" points="458.65 100.214 458.541 101.025 439.612 95.486 436.462 93.436 458.65 100.214"/>
  <path class="cls-6" d="M424.931,74.306c-.174.614-.713.576-1.225.546-4.959-.293-18.718-5.428-23.43-7.814-2.058-1.042-3.823-2.182-5.441-3.841-.751-.77-4.232-5.161-4.204-5.917.007-.18.436-.548.842-.285.488.316,2.151,3.171,2.816,3.936,4.58,5.269,16.686,9.409,23.398,11.477,2.375.732,4.858,1.204,7.244,1.899Z"/>
  <path class="cls-6" d="M438.149,77.4c.49.48-1.722,1.217-1.965,1.267-2.086.436-8.436-.357-10.796-.742-.352-.057-2.428-.533-2.427-.669,5.395-.292,5.018-.094,7.453-.116,1.286-.012,2.907-.644,4.218-.612,1.244.031,2.287.808,3.517.872Z"/>
  <path class="cls-2" d="M511.967,156.733c-.419.008-1.074.752-1.7-.271l-35.925-44.094c-11.102-3.831-22.472-6.94-33.596-10.701-3.856-1.304-7.645-2.107-10.338-5.413-2.365-2.904-3.121-6.642-4.423-10.065l-28.123-13.847c-2.981-6.622-11.595-6.146-14.002-13.638-4.253-13.234,19.628-10.163,26.274-11.443,8.095-1.559,10.752-4.117,19.858-1.793.997.254,4.961,2.047,5.505,1.279l-7.472-34.616,13.348,2.54,28.752,46.351c1.078.127,2.277,1.385,3.186.433l-1.416-16.409,11.039,5.054,2.588,3.395,17.8-12.06.891.099,8.735,5.204-20.203,20.714,4.611,8.526c5.547,2.627,7.431,7.77,7.154,13.655-.033.704-.566,1.717-.482,2.211.051.304,2.732,4.945,3.059,5.345.41.499,2.61,2.246,3.177,2.307l28.136-2.687,8.013,3.099-31.776,6.189,19.403,30.378-13.045-3.123-17.312-20.379c-.237-.547-2.842-1.457-3.107-1.25l25.309,45.01c-4.634.065-9.284-.087-13.92,0ZM439.555,15.505c-3.01-.567-6.225-.807-9.279-1.124l7.824,32.291-.794,1.464c1.331.632,2.21-.76,3.117-1.538l-8.178-30.529c2.356.335,4.705.58,7.029,1.124l.116,1.147-4.076,2.12,8.183,26.44-3.379,2.642c.55.019.799.627,1.409.461.521-.141,3.603-2.059,3.664-2.568l-5.325-16.633c-.194-.639.51-.353.912-.398l8.501,19.118c2.048,1.228,3.83,3.07,5.932,4.193,1.548.827,3.709,1.204,5.135,2.177.451.308,4.384,4.197,4.515,4.487.068.149.053.478-.136.416l-19.412-7.87-.414.134c.674.77,1.376,1.561,1.967,2.393.294.414.465.893.844,1.407.076.104.192.187.281.281.044.046-.054.489.281.563l35.996,13.925.28.42-30.089-10.685c3.341,3.163,8.369,3.24,12.372,5.2-.432.64-.541.223-.966.138-3.789-.757-7.568-2.083-11.313-3.047l-.373.516,23.9,7.745c.125.692-.517.422-.914.351-5.342-.948-12.079-4.35-17.245-4.974-1.264-.153-2.272.245-3.492.26l.278.422,31.104,10.819-.17,1.136-11.808-2.249,10.836,4.207-.014.859c-4.962-1.428-10.025-2.457-15.041-3.661-1.299-.312-2.611-.818-3.937-1.125-2.167-.503-6.647-1.924-8.591-1.702-.423.048-.699.029-.965.436l1.423,1.666,8.976,4.105-.411.485c-5.37-1.607-10.842-3.279-16.459-3.443l2.035,2.201,19.334,6.378-30.651-8.156c-1.075.013-2.005,3.31-2.807,4.286-.101.123-1.622,1.425-1.69,1.34.614-2.762,2.317-5.121,2.809-7.877.048-.271.371-1.024.283-1.123l-3.937-.843c2.629-.094,5.529-1.129,7.31-3.095l-5.207,1.118-2.383-.273c3.23-1.209,6.613-3.207,8.434-6.19l-2.248.702c2.33-2.47,5.279-6.5,3.431-9.906-3.554-6.552-17.523-12.118-24.677-11.63-4.255.29-8.47,2.662-12.396,3.072-5.308.555-11.724-.562-16.922,1.076-1.71.539-2.976,1.208-.901,2.478v.414c-1.322.244-.806,2.147-2.106,2.808,1.903,7.172,8.527,10.768,14.851,13.566,6.512,2.881,13.622,5.304,20.719,6.141-.051.412-1.224.474-1.581.524-1.257.177-2.642.161-3.903.319-.386.048-.851.158-.42.557,2.118.249,4.378,1.518,6.394,1.906,1.7.327,9.467,1.131,10.837.846.541-.112,1.334-.656,1.888-.924.286-.138.96-.701,1.129-.137-.989,1.742-1.847,5.506-3.09,6.896-1.164,1.302-4.158,2.182-5.488,3.507l-1.737-5.36-28.917-13.482c-.419.811,1.132,1.335,1.73,1.646,8.524,4.428,17.78,7.983,26.344,12.399,1.945,7.739,3.683,11.682,11.505,14.442,11.28,3.981,23.619,6.315,34.947,10.332l37.679,45.86h10.545c-.46-1.337-1.278-2.696-1.968-3.939-8.03-14.452-16.311-28.781-24.184-43.322.102-.083,2.004.551,2.233.717.356.259.429.836.87,1.098.929.553,3.058.463,4.071,1.273l19.536,21.248c.726.229,1.529.228,2.255.418,1.122.293,2.349.774,3.517.848.442.028.479.05.417-.421l-17.703-26.177c-.58-.827-1.186-.195-1.697-.132-1.226.149-2.437.362-3.654.56l3.087-1.831,31.498-6.322-3.453-1.324-39.441,4.701-3.503-.57,12.089-2.387-7.956-7.233-18.193-5.573c-.049-.5.949-.297,1.257-.272,4.137.339,8.589,1.455,12.531,2.691,2.17-4.496,1.101-9.871-3.103-12.686,1.05-.006,2.717.969,3.519,1.825.669.714,2.248,3.349,2.474,4.277.711,2.925-.358,3.942-.815,6.412-.405,2.191,1.733.824,2.536-.293,1.251-1.742,1.305-3.397.443-5.327l1.347,1.604,1.46,3.177c-.381-4.254-3.06-8.676-6.661-10.915-2.814-1.749-6.551-3.048-9.647-4.279-.023-.452-.136-.636.416-.558.563.079,1.874.629,2.678.843.299.079,3.888,1.382,3.94.7l-2.117-4.638c-.915-.203-1.313,2.169-1.263,2.812l-.56-.281c-.281-1.074-.761-3.071-.578-3.251l21.944-21.929-6.746-3.652-29.514,19.699-.282.531.833,1.002-7.325-3.013-26.961-45.753c-.206-.351-.601-.133-.866-.183ZM476.112,48.702c-.758-.334-1.751-1.152-2.535-.98.569,1.376,1.206,12.401,1.837,12.514.379.068.621-.315.839-.568l-.981-10.402c.258.158.574.177.841.281,1.283.5,3.801,1.33,4.218,2.532l-3.092-.563.844,6.752c.365.377,3.226-1.944,3.654-2.251.426-.305,1.67-.442,1.69-1.252.006-.267-1.312-2.937-1.559-3.239-.799-.973-4.409-2.23-5.754-2.824Z"/>
  <path class="cls-2" d="M446.866,55.454c.481-.727.116-.513.742-.334.97.277,2.261.866,3.265,1.249,10.928,4.166,21.621,8.991,32.551,13.155l-.389.531-35.325-13.194c-.379-.513-.55-.993-.844-1.407Z"/>
  <line class="cls-25" x1="471.613" y1="79.085" x2="471.051" y2="79.367"/>
  <path class="cls-25" d="M467.395,78.804c.018-.3.139-.584.281-.844"/>
  <path class="cls-5" d="M448.272,57.704c-.336-.073-.237-.516-.281-.563l.281.563Z"/>
  <path class="cls-2" d="M519.7,151.95c.053.05.613,1.085.562,1.122l-8.096-.059-35.505-44.234c-3.529-.385-3.643-2.224-5.757-4.087-2.311-2.036-5.897-3.547-8.29-5.632l-.283-.56c.314-.056.562.036.852.132,1.545.51,7.586,3.63,8.914,4.586,1.148.826,1.988,2.979,2.903,3.566.99.636,2.941.496,3.936,1.408l32.034,39.692c1.66,1.885,7.226,2.649,8.73,4.067Z"/>
  <path class="cls-2" d="M492.985,107.216l-4.79-.719-.496,3.615,12.876,21.728-.415.415-18.973-24.908c-1.225-1.121-3.145-.516-4.617-1.289-1.255-.659-2.716-3.556-4.131-4.588-1.621-1.181-4.343-2.039-6.176-3.116-.364-.214-.709.05-.553-.699l25.193,6.725,2.083,2.837Z"/>
  <path class="cls-2" d="M433.368,93.996c.171-.565.841.001,1.129.137,7.886,3.725,16.343,5.443,24.639,8.018l1.939-.845-.145-1.964c.071-.09.616.345.841.281,2.356,2.257,5.551,3.829,8.008,5.914.363.308,1.502,1.171,1.134,1.678l-32.354-9.551c-1.561-1.146-3.775-2.434-5.191-3.668Z"/>
  <path class="cls-2" d="M474.338,92.397c.554.469,2.516,3.529,3.072,4.38.156.239.691.625.251.875-1.822-.982-2.997-3.366-4.841-4.16-7.291-3.136-16.766-4.463-24.252-7.528l-3.668-.404,4.282-1.076c6.118,2.794,20.348,3.837,25.156,7.913Z"/>
  <path class="cls-2" d="M525.043,130.006c.813.594,1.362.947,1.967,1.83-.422.335-1.215-.016-1.686-.142-.641-.172-2.203-.717-2.678-1.119l-17.286-18.998,2.822.834c5.107,5.147,9.757,11.28,14.886,16.336.877.865,1.396.834,1.976,1.258Z"/>
  <path class="cls-2" d="M431.681,90.901c-.068-.184-.349-.348-.16-.565l5.216-3.372c.267,1.113,1.123,1.869,1.974,2.531.856.666,2.59,1.733,3.577,2.189,5.056,2.334,11.437,3.58,16.67,5.692-.135.549-.704.649-1.19.509-5.328-1.995-11.413-2.981-16.672-5.008-1.515-.584-5.608-3.231-6.671-3.054-.819.137-1.724,1.214-2.744,1.079Z"/>
  <path class="cls-17" d="M509.295,108.625c-.02.088.015.19,0,.281l-1.016,1.711c-4.517-1.44-10.138-2.413-12.763-6.772.679-.554,9.74,5.7,12.161,5.294.496-.083,1.248-.964,1.618-.514Z"/>
  <path class="cls-2" d="M493.547,58.27l-8.738,7.738-4.758-.429,4.009-1.189c3.085-2.18,5.758-5.004,9.487-6.12Z"/>
  <path class="cls-2" d="M492.421,95.683c-1.983.108-1.538-3.119-2.538-3.788-3.299-1.191-7.114-1.888-10.34-3.172-.428-.17-.76.162-.616-.633,4.407.304,8.466,2.025,12.653,3.234l.842,4.359Z"/>
  <polygon class="cls-6" points="409.657 52.789 409.657 54.155 414.243 59.163 422.688 64.735 424.505 65.321 428.546 64.735 440.304 62.96 441.791 59.637 442.531 58.242 441.791 56.904 438.009 53.343 433.135 50.7 428.025 48.919 423.403 48.296 420.236 48.657 414.842 50.281 409.657 52.789"/>
  <path class="cls-2" d="M441.179,63.267l-16.183,3.081c-.452.051-.889-.077-1.311-.218-2.286-.764-13.77-9.492-14.635-11.525-.216-.508-.273-1.558-.1-2.06.163-.472,4.674-2.349,5.503-2.651,4.444-1.616,8.067-2.447,12.84-1.725,4.624.7,12.184,4.828,15.196,8.429,1.655,1.979-.882,4.471-1.31,6.67ZM427.182,50.39c-.086-.296-.134-1.059-.468-1.138-1.782-.28-3.351-.444-4.992-.245-2.376.288-7.066,2.02-9.35,3.024-.657.288-1.675.574-2.062,1.169l5.341-1.403c.129.975-.048,1.784-.233,2.723-.074.375-.053.505.37.367.593-.194,5.242-3.364,5.487-3.089l-.839,5.625,2.808-2.249.703,4.217,1.833-3.935.837,1.966c.203-2.47,1.27-4.599.565-7.032ZM436.83,53.134c-.627-.335-.916-.622-1.669-1.022-.772-.411-5.913-2.613-6.291-2.282.748,2.923.105,5.918-.844,8.716l1.967-1.121-.141,2.81,3.514-4.219-.838,4.783c.788-.508,1.266-1.477,1.885-2.172.167-.187.232-.213.653-.57l-.151,3.022,2.951-3.093-.557,3.376,1.963-1.688.142,1.686c.83-.544,2.619-2.042,2.352-3.173-.135-.574-2.979-3.466-3.613-4.002s-.785-.765-1.322-1.052ZM419.308,59.392v-5.064s-4.356,1.972-4.356,1.972l-.145-3.098-4.22.988c.028,1.493,10.508,9.045,12.362,10.155,1.655-1.031,3.274-3.221,2.542-5.234l-1.826,2.249-1.405-3.932-2.953,1.964ZM429.712,61.643c-.275.227-.351.341-.562.563-.498-.257-.142-2.587-.98-2.248-.605.245-1.651,3.994-2.395,4.777l10.671-1.699.014-2.235-2.527,1.686-.142-1.686-2.389,1.968.277-3.093c-.285-.314-2.084,1.42-1.967,1.968ZM438.71,61.363c-.337-.396-1.314,1.157-1.404,1.402l1.407.004-.003-1.407Z"/>
  <path class="cls-17" d="M425.213,72.055c-.125.317-.685.976-.975,1.016-.349.049-6.1-1.217-6.901-1.439-5.098-1.418-15.77-5.892-19.817-9.151-.885-.713-5.735-5.9-5.726-6.607.002-.166.717-.933,1.086-.58,7.38,10.03,20.549,14.426,32.333,16.762Z"/>
  <path class="cls-17" d="M439.553,64.738c.206.735-.686.74-1.186.917-2.785.983-9.833,3.226-12.526,3.514-1.908.205-3.017-.233-4.539-1.222-4.33-2.816-8.238-6.609-12.399-9.677.515-.12.779.173,1.164.38,4.773,2.552,9.091,7.493,14.297,9.351l15.188-3.262Z"/>
  <path class="cls-17" d="M408.903,51.518c-1.407,1.413-1.099,2.932.281,4.214-1.72.407-2.46-1.917-3.004-2.196-2.005-1.029-8.365-1.14-10.558-.537-1.213.334-1.617,1.109-2.748,1.327.387-.701.376-1.263,0-1.964,2.944.027,5.597-.707,8.59-.579,1.501.064,3.711.739,5.053.597.943-.1,1.393-.983,2.385-.862Z"/>
  <path class="cls-2" d="M435.054,52.36l-.558,3.937,1.4-1.125c.146.313.306,1.96.421,2.529l2.391-2.248.006,2.25,1.402-.842c.43,1.912.01,2.529-.143,3.09l-.42-1.685-1.4,1.405-.006-2.812-2.389,2.249-.142-2.53-1.963,1.688.838-4.782-4.076,4.781-.142-2.249-1.403.56c.159-1.16.835-1.275,1.825-1.688l.283,1.69c.664-.216,3.568-4.788,4.077-4.217Z"/>
  <path class="cls-2" d="M422.962,49.547l-.558,3.937,1.681-1.125.288,2.531,1.825-2.526c.656.61.728,1.45.418,2.243l-.28-.842-1.969,3.374-.56-3.372-2.245,1.405.557-4.783-5.901,3.093.293-2.523.829-.008.139.842,5.484-2.247Z"/>
  <polygon class="cls-2" points="493.8 95.685 492.988 91.887 498.115 93.436 504.226 99.344 496.437 100.483 496.836 99.344 497.236 96.185 493.8 95.685"/>
  <polygon class="cls-2" points="480.051 97.941 492.988 101.571 494.301 97.651 490.437 97.651 490.044 98.483 480.051 97.941"/>
  <polygon class="cls-2" points="445.207 80.547 475.582 89.116 474.915 88.09 444.9 78.795 445.207 80.547"/>
  <polygon class="cls-17" points="473.944 61.071 487.2 52.359 488.047 53.28 474.344 62.5 473.944 61.071"/>
  <polygon class="cls-17" points="468.791 60.243 473.577 62.139 473.105 62.829 468.271 61.071 468.791 60.243"/>
  <polygon class="cls-2" points="506.23 151.508 510.819 157.192 526.2 157.192 524.806 154.81 523.603 156.074 512.377 156.433 507.143 151.16 506.23 151.508"/>
  <polygon class="cls-2" points="489.608 72.333 512.949 46.738 505.599 52.575 488.767 70.054 489.608 72.333"/>
</svg>