<?xml version="1.0" encoding="UTF-8"?>
<svg id="Highlights" xmlns="http://www.w3.org/2000/svg" viewBox="0 0 546.783 515.54">
  <defs>
    <style>
      .cls-1 {
        fill: none;
      }

      .cls-2 {
        fill: #444;
      }

      .cls-3 {
        fill: #595959;
      }

      .cls-4 {
        fill: #030303;
      }

      .cls-5 {
        fill: #b5b5b5;
      }

      .cls-6 {
        fill: #fff;
      }

      .cls-7 {
        fill: #565656;
      }

      .cls-8 {
        fill: #ad0000;
      }

      .cls-9 {
        fill: #191919;
      }
    </style>
  </defs>
  <path class="cls-3" d="M92.092,264.416c0-111.756,90.92-202.676,202.676-202.676,111.756,0,202.676,90.92,202.676,202.676,0,111.756-90.92,202.676-202.676,202.676-111.756,0-202.676-90.92-202.676-202.676ZM93.072,264.416c0,111.216,90.48,201.696,201.696,201.696,111.216,0,201.696-90.48,201.696-201.696,0-111.216-90.48-201.696-201.696-201.696-111.216,0-201.696,90.48-201.696,201.696Z"/>
  <path class="cls-3" d="M294.768,468.595c-112.584,0-204.178-91.595-204.178-204.179S182.184,60.238,294.768,60.238c112.585,0,204.179,91.594,204.179,204.178,0,112.584-91.594,204.179-204.179,204.179ZM294.768,64.223c-110.387,0-200.193,89.805-200.193,200.193s89.805,200.194,200.193,200.194c110.387,0,200.194-89.805,200.194-200.194,0-110.387-89.807-200.193-200.194-200.193Z"/>
  <circle class="cls-1" cx="288.945" cy="255.932" r="194.02"/>
  <path class="cls-9" d="M34.057,256.227c0,4.292,3.479,7.771,7.771,7.771h2.5s33.606,0,33.606,0c3.245,111.33,92.243,201.137,203.241,205.688v32.644s0,2.5,0,2.5c0,4.292,3.479,7.771,7.771,7.771,4.292,0,7.771-3.479,7.771-7.771v-2.5s0-32.563,0-32.563c111.455-3.46,201.241-92.868,205.315-204.167h31.541s2.5,0,2.5,0c4.292,0,7.771-3.479,7.771-7.771,0-4.292-3.479-7.771-7.771-7.771h-2.5s-31.531,0-31.531,0c-3.948-111.416-93.786-200.956-205.325-204.419V13.211s0-2.5,0-2.5c0-4.292-3.479-7.771-7.771-7.771-4.292,0-7.771,3.479-7.771,7.771v2.5s0,32.509,0,32.509c-110.014,4.51-198.412,92.775-203.129,202.736h-33.718s-2.5,0-2.5,0c-4.292,0-7.771,3.479-7.771,7.771ZM96.105,263.998h64.596s2.5,0,2.5,0c4.292,0,7.771-3.479,7.771-7.771,0-4.292-3.479-7.771-7.771-7.771h-2.5s-64.484,0-64.484,0c4.69-99.931,84.973-180.08,184.957-184.564v65.693s0,2.5,0,2.5c0,4.292,3.479,7.771,7.771,7.771,4.292,0,7.771-3.479,7.771-7.771v-2.5s0-65.774,0-65.774c101.508,3.448,183.223,84.862,187.153,186.247h-66.67s-2.5,0-2.5,0c-4.292,0-7.771,3.479-7.771,7.771,0,4.292,3.479,7.771,7.771,7.771h2.5s66.661,0,66.661,0c-4.056,101.268-85.719,182.55-187.144,185.996v-65.638s0-2.5,0-2.5c0-4.292-3.479-7.771-7.771-7.771-4.292,0-7.771,3.479-7.771,7.771v2.5s0,65.557,0,65.557c-100.966-4.528-181.839-86.217-185.069-187.516Z"/>
  <path class="cls-8" d="M278.235,504.83v-32.341c-53.403-2.884-103.442-25.382-141.178-63.538-37.76-38.181-59.697-88.516-61.96-142.014h-33.27c-5.906,0-10.71-4.805-10.71-10.71,0-5.906,4.805-10.71,10.71-10.71h33.42c2.957-52.875,25.192-102.514,62.799-140.053,37.61-37.542,87.299-59.687,140.188-62.547V10.71c0-5.906,4.804-10.71,10.71-10.71,5.906,0,10.71,4.805,10.71,10.71v32.097c53.619,2.369,104.002,24.489,142.144,62.475,38.133,37.977,60.46,88.251,63.06,141.835h31.213c5.906,0,10.71,4.805,10.71,10.71s-4.805,10.71-10.71,10.71h-31.225c-2.66,53.53-25.013,103.745-63.132,141.667-38.132,37.935-88.483,60.025-142.059,62.391v32.232c0,5.906-4.805,10.71-10.71,10.71-5.906,0-10.71-4.805-10.71-10.71ZM499.204,252.997l-.1-2.835c-1.884-53.15-23.708-103.122-61.453-140.713-37.757-37.603-87.841-59.221-141.026-60.872l-2.848-.089V10.71c0-2.664-2.167-4.832-4.832-4.832-2.664,0-4.831,2.167-4.831,4.832v37.83s-2.819.116-2.819.116c-52.465,2.151-101.863,23.803-139.095,60.967-37.227,37.16-58.968,86.51-61.218,138.958l-.121,2.814h-39.034c-2.664,0-4.832,2.167-4.832,4.831s2.167,4.832,4.832,4.832h38.96s.083,2.854.083,2.854c1.547,53.067,22.985,103.108,60.366,140.905,37.35,37.766,87.09,59.76,140.058,61.931l2.819.116v37.966c0,2.664,2.167,4.832,4.831,4.832,2.664,0,4.832-2.167,4.832-4.832v-37.913s2.848-.089,2.848-.089c53.143-1.65,103.197-23.239,140.944-60.79,37.732-37.537,59.582-87.451,61.526-140.547l.104-2.832h36.875c2.664,0,4.832-2.167,4.832-4.832,0-2.664-2.167-4.832-4.832-4.832h-36.868ZM293.777,383.456c0-2.664-2.167-4.831-4.832-4.831-2.664,0-4.831,2.167-4.831,4.831v71.132s-3.071-.138-3.071-.138c-49.603-2.225-96.178-22.944-131.145-58.34-34.998-35.427-55.146-82.313-56.731-132.019l-.097-3.033h70.13c2.664,0,4.832-2.167,4.832-4.832,0-2.664-2.167-4.831-4.832-4.831h-70.064s.144-3.077.144-3.077c2.303-49.069,22.76-95.244,57.603-130.017,34.848-34.779,81.072-55.145,130.159-57.346l3.071-.138v71.267c0,2.664,2.167,4.832,4.831,4.832,2.664,0,4.832-2.167,4.832-4.832V60.769s3.039.103,3.039.103c49.827,1.692,96.756,22.025,132.142,57.252,35.374,35.215,55.919,82.029,57.849,131.819l.119,3.053h-72.226c-2.664,0-4.832,2.167-4.832,4.832,0,2.664,2.167,4.832,4.832,4.832h72.22s-.122,3.057-.122,3.057c-1.992,49.735-22.563,96.489-57.923,131.648-35.376,35.174-82.275,55.476-132.058,57.167l-3.039.103v-71.18ZM414.699,268.539c-5.906,0-10.71-4.805-10.71-10.71s4.805-10.71,10.71-10.71h66.09c-2.578-47.158-22.385-91.385-55.979-124.827-33.609-33.458-77.951-53.066-125.155-55.415v65.209c0,5.906-4.805,10.71-10.71,10.71-5.906,0-10.71-4.805-10.71-10.71v-65.094c-46.472,2.831-90.119,22.459-123.198,55.472-33.073,33.007-52.785,76.604-55.714,123.055h63.878c5.906,0,10.71,4.804,10.71,10.71,0,5.906-4.805,10.71-10.71,10.71h-64.037c2.244,47.092,21.675,91.394,54.916,125.042,33.201,33.609,77.187,53.578,124.155,56.436v-64.959c0-5.906,4.804-10.71,10.71-10.71s10.71,4.804,10.71,10.71v65.074c47.163-2.347,91.475-21.927,125.073-55.334,33.581-33.389,53.412-77.552,56.047-124.658h-66.077Z"/>
  <g>
    <path class="cls-6" d="M496.724,312.893l-24.94,5.007-.185-.924c3.584-.693,7.094-1.459,10.521-2.328,1.229-.305,2.762.018,3.104-1.755l-90.561,12.618c-3.473-.018-9.376,4.637-11.87,4.859-2.827.259-12.664-4.554-16.747-5.053-.369-.046-.647-.065-.85-.037l-.259-2.152,120.914-14.401,10.872,4.166Z"/>
    <path class="cls-6" d="M471.599,316.975l.185.924-74.266,14.899-9.717,5.773c3.833-.628,7.648-1.293,11.509-1.764-.388,1.543-2.383,4.138-2.66,5.311-.471-.563-1.127-.462-1.847-.111-1.09.517-2.309,1.58-3.242,1.737-7.63,1.275-36.173-18.419-38.306-16.673,8.267,13.726,25.966,16.793,40.2,21.319l3.15-5.311.046-.074c15.518,22.603,33.337,44.172,49.603,66.461-1.829-1.339-3.464-1.247-6.226-3.972-16.156-15.925-30.797-35.24-46.888-51.451l-8.886-2.623,54.444,59.838c1.496,1.265,6.42,2.974,8.443,3.519l-.896.462,1.774,3.085c-2.282-.6-4.813-.591-7.094-1.321l-61.528-66.914c-3.196-2.559-9.902-2.272-12.821-4.018-1.395-.822-1.626-2.642-2.743-3.455-.72-.527-6.715-2.522-7.039-2.263,24.802,45.807,50.878,90.93,76.169,136.451-1.543-.148-3.076.148-3.538,1.774-4.739-4.471-22.271-6.872-27.499-12.812l-100.888-125.015c-3.141-2.864-9.283-2.429-12.396-4.434-2.882-1.847-5.533-8.627-9.145-11.232-4.184-3.011-23.213-12.83-28.081-14.438-.905-.305-1.69-.591-2.679-.416l.887,1.764c-1.496-.462-2.503,1.727-2.651,1.774-.711.203-2.429-1.173-2.651-.887l.453,6.189-6.106,2.66c-26.123-8.11-52.762-13.523-77.601-25.254-.905-.425-3.011-2.217-3.547-.434-1.681-1.459-4.406-7.27-5.321-9.745,3.215.425,6.06-2.965,8.646-3.399,3.344-.554,16.239,7.778,21.005,9.616,16.571,6.392,35.729,9.496,52.513,15.777,1.533.443,3.325.129,3.75-1.607-16.479-6.651-36.579-10.577-52.504-17.92-3.104-1.441-8.572-4.803-11.269-6.9,7.427-3.676,9.246,1.847,15.749,4.184l96.454,25.753,4.711-2.91-97.332-28.441c-3.187-1.626-12.701-9.874-13.024-13.2-.342-3.556,7.057-11.158,4.96-15.509l96.537,25.688-60.9-20.091-6.401-6.928c17.689.508,34.926,5.782,51.839,10.844l1.293-1.533-28.275-12.923-4.48-5.247c.841-1.284,1.709-1.219,3.039-1.376,6.124-.693,20.229,3.778,27.056,5.358-.443.822-.822,1.718-.878,2.66-.037.563-.139,1.145.065,1.69,13.449,1.81,27.988,8.11,41.216,9.736.951.12,3.215.767,2.993-.785-10.974-2.762-21.818-6.004-32.764-8.868l1.774-.887c15.795,3.796,31.739,7.039,47.368,11.537l.046-2.706-34.122-13.246,37.189,7.076.527-3.575-97.96-34.076-.878-1.33c3.843-.046,7.02-1.302,11.001-.822,16.267,1.968,37.484,12.683,54.314,15.666,1.247.222,3.27,1.072,2.873-1.099l-75.273-24.395,1.173-1.626c11.796,3.039,23.702,7.214,35.637,9.597,1.339.268,1.681,1.58,3.039-.434-12.599-6.17-28.441-6.42-38.962-16.377l94.764,33.651-.878-1.321-113.376-43.858-.878-1.774c-.286-.296-.647-.563-.887-.887l111.252,41.558,1.229-1.672c-7.99-3.048-15.953-6.207-23.887-9.422l.859-2.125,32.746,11.14,68.225-66.941,1.533,1.533-63.579,63.542c-1.524,3.288-1.884,8.286,1.82,10.235l-.887.453.887,3.981c-2.54-.674-6.669-2.411-8.443-2.66-1.737-.24-1.376.342-1.302,1.764,9.745,3.87,21.522,7.962,30.381,13.477,11.343,7.048,19.777,20.978,20.977,34.371l-4.6-10.004-4.24-5.053c2.716,6.078,2.549,11.297-1.395,16.775-2.522,3.519-9.256,7.824-7.981.924,1.432-7.778,4.803-10.983,2.559-20.192-.711-2.919-5.681-11.223-7.787-13.468-2.522-2.697-7.778-5.773-11.085-5.755,13.246,8.868,16.608,25.799,9.773,39.96-12.415-3.898-26.437-7.408-39.47-8.48-.97-.083-4.111-.72-3.953.859l57.298,17.551,25.06,22.779-38.075,7.519,11.029,1.792,3.307-.397.259,2.152c-.739.065-.48.6-.425,1.764l18.89,8.674c4-1.441,7.048-4.397,11.186-5.598,23.305-6.752,51.672-8.239,76.751-13.144ZM422.337,466.164l-73.768-134.409-4.166-.711,6.189,10.179c-3.307.249-6.466-1.035-9.681-1.386-1.229-.139-2.115-1.238-1.82.942l80.307,124.304,2.937,1.081ZM369.187,415.24l-40.551-68.438,1.561-11.38,15.084,2.263-6.558-8.942-79.347-21.172c-.49,2.355.591,1.524,1.737,2.198,5.773,3.39,14.354,6.097,19.453,9.81,4.462,3.251,9.062,12.378,13.015,14.456,4.637,2.429,10.687.527,14.539,4.055l59.755,78.451,1.312-1.302ZM343.508,301.355l-2.66-13.726c-13.181-3.806-25.966-9.228-39.849-10.189-.453,2.503.591,1.459,1.94,1.995,10.161,4.046,22.178,6.244,32.57,9.995,3.15,2.106,1.746,12.267,7.999,11.925ZM297.017,307.563c1.386-.785-.296-2.004-.794-2.762-1.746-2.679-7.925-12.313-9.671-13.791-15.14-12.84-59.967-16.128-79.227-24.922l-13.486,3.39,11.546,1.275c23.582,9.653,53.418,13.828,76.382,23.702,5.81,2.503,9.514,10.013,15.25,13.107ZM236.801,318.185l.342-2.559-69.888-21.347,9.921,6.457,59.626,17.449Z"/>
    <path class="cls-6" d="M400.178,147.631l-5.533,5.524-1.533-1.533-13.329,5.718-56.67,54.97c-3.907,1.81-24.913-5.958-30.519-6.651l-.453,1.764-.859,2.125c-26.224-10.641-52.208-21.938-78.636-32.016-3.159-1.201-7.223-3.057-10.281-3.935-1.977-.554-.822-1.229-2.337,1.053-1.866-2.614-4.074-5.108-6.198-7.528l1.302-.425,61.14,24.783c.6.194.647-.841.434-1.312-.139-.314-1.7-1.958-3.741-4.037l2.143-.563c.49.637.591,1.007,2.485.6l-73.518-124.932,1.949-1.145,78.617,133.421,23.065,9.487-2.623-3.159.887-1.672,92.962-62.036,21.245,11.5ZM319.528,207.894l27.527-24.368c-11.75,3.51-20.165,12.405-29.882,19.269l-12.627,3.75,14.983,1.349Z"/>
    <path class="cls-6" d="M255.109,185.568l-2.143.563c-3.898-3.953-9.551-9.45-10.484-10.087-4.489-3.067-11.297-4.258-16.174-6.863-6.623-3.538-12.23-9.339-18.677-13.2l-26.778-60.217c-1.265.139-3.482-.757-2.873,1.247l16.775,52.393c-.194,1.598-9.902,7.639-11.546,8.082-1.912.517-2.697-1.395-4.434-1.45l10.641-8.323-25.772-83.273,12.84-6.678-.369-3.612c1.349.314,2.679,1.386,4.425.878l-3.538-6.198c.831.157,2.078-.527,2.725.573l6.3,10.687-1.949,1.145-2.623,1.321,52.171,104.407c11.907,1.69,13.92,11.5,21.042,18.105.194.176.323.342.443.499Z"/>
  </g>
  <path class="cls-6" d="M305.425,164.021c1.318,3.802,1.502,9.204,4.428,12.405-1.349.966-10.358,8.276-11.509,7.089l-2.658-21.266,9.738,1.773Z"/>
  <polyline class="cls-6" points="314.219 266.345 252.722 249.084 257.819 239.908 322.199 258.279"/>
  <polygon class="cls-5" points="306.687 179.26 312.464 174.5 307.52 164.244 300.909 163.199 306.687 179.26"/>
  <polyline class="cls-6" points="331.061 216.694 332.881 226.932 331.061 227.817 327.128 222.508 331.061 216.694"/>
  <path class="cls-6" d="M292.139,153.389v2.658c-.839-.327-1.837-.388-2.648-.886l3.091,32.763c-.689.795-1.451,2.002-2.644,1.789-1.985-.355-3.993-35.079-5.784-39.412,2.47-.54,5.597,2.035,7.985,3.088Z"/>
  <g>
    <path class="cls-6" d="M198.439,182.889c5.819,10.724-3.464,23.425-10.807,31.203l7.085-2.217c-5.736,9.394-16.396,15.694-26.566,19.5l7.51.859,16.396-3.519c-5.607,6.189-14.742,9.45-23.019,9.745l12.396,2.66c.277.305-.739,2.679-.887,3.538-1.561.933-3.566,2.9-4.434,4.425-.527-1.774-2.651,0-3.556.434-1.737.841-4.24,2.559-5.939,2.91-4.314.896-28.783-1.635-34.131-2.67-6.355-1.219-13.468-5.219-20.146-5.995-1.349-1.265.111-1.607,1.33-1.755,3.972-.499,8.332-.453,12.295-1.007,1.118-.157,4.813-.36,4.979-1.653-22.354-2.642-44.745-10.272-65.26-19.343-4.304-1.903-8.655-3.926-12.886-6.152l1.21-2.355c15.472,7.658,57.695,23.351,73.075,24.257,1.616.092,3.316.212,3.861-1.718-7.519-2.189-15.334-3.676-22.816-5.986-2.642-.813-5.552-1.727-8.646-2.743l.628-1.838c2.54.85,4.868,1.57,6.919,2.143,2.522.702,20.626,4.683,21.726,4.535.914-.129,2.679-2.208,3.076-3.205-37.115-7.353-78.589-21.199-101.839-52.79-1.155-1.108-3.408,1.302-3.418,1.829-.009.628,1.201,2.374,3.002,4.609l-2.54.563c-.619-.822-1.136-1.423-1.469-1.644-1.284-.822-2.633.333-2.651.896-.092,2.383,10.872,16.211,13.237,18.641,2.226,2.291,4.554,4.258,7.002,6.023l-1.155,2.365c-10.734-7.297-19.537-16.738-23.093-30.15,4.101-2.088,2.476-8.082,6.632-8.849v-1.302c-6.531-4-2.54-6.106,2.845-7.805,16.368-5.154,36.579-1.644,53.298-3.39,12.359-1.293,25.633-8.757,39.036-9.671,22.529-1.543,66.526,15.989,77.721,36.625ZM182.117,199.267c1.349-6.928,9.339-14.779,4.12-21.014-9.487-11.334-33.291-24.34-47.858-26.548-15.029-2.272-26.446.351-40.44,5.441-2.605.942-16.821,6.863-17.329,8.35-.545,1.58-.369,4.886.314,6.484,2.725,6.401,38.898,33.891,46.093,36.302,1.33.443,2.706.85,4.129.684l50.97-9.699ZM173.258,206.786c1.58-.554,4.388-.573,3.732-2.891l-47.83,10.281c-16.405-5.856-30.002-21.421-45.031-29.457-1.219-.647-2.051-1.57-3.667-1.192,13.098,9.662,25.411,21.606,39.045,30.473,4.794,3.122,8.295,4.498,14.299,3.852,8.48-.905,30.686-7.972,39.452-11.066ZM166.386,247.771c.757-.166,7.731-2.485,6.189-3.99-3.88-.203-7.159-2.651-11.075-2.753-4.138-.102-9.237,1.894-13.292,1.931-7.667.074-15.454-3.482-23.472.369,0,.425,6.531,1.921,7.639,2.106,7.436,1.21,27.434,3.704,34.011,2.337ZM71.881,168.618c1.718.878,4.046,8.193,9.468,6.909-4.351-4.037-5.321-8.821-.887-13.265-3.131-.388-4.545,2.392-7.519,2.706-4.221.453-11.186-1.672-15.916-1.875-9.422-.406-17.781,1.903-27.056,1.82,1.192,2.208,1.219,3.981,0,6.189,3.566-.693,4.84-3.131,8.655-4.184,6.909-1.894,26.945-1.543,33.254,1.7Z"/>
    <path class="cls-6" d="M100.11,223.468l-.628,1.838c-21.661-7.085-52.43-18.881-65.048-33.401-1.635-1.884-5.191-7.778-7.399-10.752l2.54-.563c4.591,5.699,13.034,14.576,15.038,16.193,11.112,8.96,38.122,20.83,55.497,26.686Z"/>
    <path class="cls-6" d="M54.007,211.497l-1.21,2.355c-1.857-.979-3.695-1.995-5.487-3.057l1.284-2.198c1.515.878,3.076,1.718,4.692,2.54.231.12.471.24.72.36Z"/>
    <path class="cls-6" d="M48.594,208.596l-1.284,2.198c-1.81-1.072-3.584-2.189-5.311-3.362l1.155-2.365c1.737,1.265,3.547,2.429,5.441,3.529Z"/>
  </g>
  <polygon class="cls-6" points="121.988 243.683 144.688 245.54 153.019 241.028 135.325 239.027 119.428 243.306 121.988 243.683"/>
  <polygon class="cls-5" points="183.263 261.211 212.206 256.517 186.285 245.54 181.45 259.034 183.263 261.211"/>
  <polygon class="cls-5" points="169.089 280.676 284.85 312.552 289.168 310.177 176.135 277.443 169.089 280.676"/>
  <polygon class="cls-5" points="244.969 313.041 249.224 311.199 253.225 313.041 247.437 316.475 244.969 313.041"/>
  <polyline class="cls-5" points="233.622 166.962 246.598 173.053 245.748 168.942 233.622 163.164 233.622 166.962"/>
  <path class="cls-5" d="M432.964,476.804c2.175,3.914,4.752,8.193,6.2,12.405h-33.213s-118.673-144.439-118.673-144.439c-35.679-12.651-74.542-20.004-110.068-32.542-24.637-8.695-30.111-21.112-36.236-45.487-26.97-13.909-56.122-25.105-82.97-39.051-1.881-.977-6.767-2.628-5.448-5.183l91.074,42.462,5.471,16.881c4.187-4.173,13.618-6.946,17.284-11.046,3.915-4.379,6.615-16.233,9.731-21.72.865-1.523,2.871-3.495,4.428-4.43-1.551,8.682-6.913,16.111-8.848,24.81.212.266,5.003-3.834,5.321-4.221,2.527-3.074,5.456-13.46,8.841-13.5,2.102,4.356-5.305,11.95-4.96,15.509.322,3.328,9.842,11.571,13.022,13.198l97.331,28.441-4.706,2.911-96.451-25.752c-6.506-2.339-8.328-7.86-15.749-4.18-2.681-2.085-5.376-4.463-6.217-7.97l-16.429,10.621c-.597.685.29,1.201.503,1.78.914,2.477,3.633,8.282,5.314,9.747,4.461,3.887,11.434,7.943,16.351,11.553l101.899,30.082c1.158-1.597-2.431-4.317-3.573-5.286-7.738-6.568-17.801-11.52-25.222-18.627.154-.044,1.159-2.231,2.657-1.772,7.537,6.569,18.831,11.327,26.11,17.74,6.659,5.867,7.016,11.661,18.132,12.873l111.825,139.319,25.5.185c.159-.118-1.604-3.378-1.771-3.535.464-1.625,1.997-1.922,3.543-1.772Z"/>
  <path class="cls-5" d="M177,48.832l3.538,6.198c-1.749.505-3.078-.566-4.424-.881-7.319-1.711-14.717-2.484-22.139-3.539l25.757,96.152c-2.858,2.448-5.625,6.835-9.817,4.843l2.502-4.611-24.641-101.702c9.617.997,19.745,1.752,29.224,3.539Z"/>
  <path class="cls-5" d="M399.308,336.805c1.612-.196,3.52-2.188,5.346.417l55.756,82.445c.194,1.485.078,1.414-1.314,1.326-3.677-.232-7.541-1.747-11.075-2.67l-1.778-3.083.893-.461c1.485.398,3.98,1.502,5.31.447-1.906-2.781-3.636-3.892-6.196-5.764-16.264-22.289-34.078-43.857-49.599-66.455.048-.287-.064-.608,0-.886.271-1.173,2.273-3.775,2.657-5.316Z"/>
  <path class="cls-5" d="M309.853,176.426c-1.096-3.373-3.11-8.603-4.428-12.405-1.313-3.787-9.244-6.401-13.285-7.975v-2.658c4.238,1.87,15.606,5.828,18.124,8.893.781.95,4.932,9.358,4.911,10.2-.061,2.551-3.981,2.984-5.322,3.944Z"/>
  <path class="cls-5" d="M332.881,226.932l1.764.885c-.157-2.025,1.098-9.497,3.979-8.857l6.667,14.607c-.166,2.149-11.469-1.955-12.41-2.205l-.885-3.975.885-.455Z"/>
  <path class="cls-5" d="M348.57,331.752l73.765,134.41-2.933-1.078-80.311-124.306c-.297-2.177.592-1.077,1.823-.943,3.217.35,6.374,1.642,9.681,1.392l-6.195-10.185,4.171.711Z"/>
  <path class="cls-5" d="M184.073,61.239l73.525,124.925c-2.352.513-1.943-.18-2.928-1.093-7.13-6.604-9.135-16.42-21.047-18.109l-52.172-104.402,2.623-1.321Z"/>
  <path class="cls-5" d="M393.108,151.625l-68.224,66.937-32.74-11.138.45-1.77c5.61.698,26.608,8.465,30.522,6.657l56.668-54.975,13.325-5.711Z"/>
  <path class="cls-5" d="M485.22,312.89c-.339,1.772-1.871,1.45-3.102,1.76-27.382,6.913-60.63,7.758-87.274,15.473-4.132,1.196-7.18,4.154-11.18,5.595l-18.894-8.674c-.06-1.482-.465-1.942,1.28-1.73,4.079.497,13.918,5.31,16.741,5.058,2.494-.223,8.402-4.879,11.873-4.859l90.556-12.623Z"/>
  <polygon class="cls-5" points="237.141 315.629 236.798 318.183 177.179 300.739 167.257 294.283 237.141 315.629"/>
  <path class="cls-5" d="M130.942,234.032c-.547,1.935-2.246,1.816-3.858,1.72-15.618-.923-58.953-17.094-73.795-24.612-6.481-3.283-12.04-6.872-17.137-12.096-2.365-2.424-13.328-16.253-13.241-18.636.021-.566,1.373-1.724,2.651-.898,1.538.994,6.773,9.987,8.868,12.396,14.426,16.596,52.554,29.635,73.694,36.147,7.48,2.304,15.302,3.793,22.817,5.98Z"/>
  <path class="cls-5" d="M172.573,243.776c1.545,1.511-5.425,3.832-6.19,3.992-6.569,1.373-26.569-1.126-34.004-2.335-1.109-.18-7.649-1.68-7.644-2.109,16.993-.919,15.804-.296,23.475-.366,4.052-.037,9.155-2.028,13.286-1.927,3.918.096,7.203,2.544,11.077,2.745Z"/>
  <path class="cls-2" d="M405.065,493.639c-1.32.025-3.382,2.368-5.355-.853l-113.148-138.877c-34.965-12.066-70.776-21.858-105.812-33.704-12.146-4.106-24.08-6.636-32.559-17.047-7.449-9.147-9.829-20.92-13.929-31.702l-88.574-43.613c-9.389-20.856-36.518-19.358-44.101-42.953-13.395-41.681,61.82-32.01,82.75-36.04,25.496-4.909,33.863-12.965,62.545-5.647,3.139.801,15.625,6.447,17.338,4.027l-23.532-109.026,42.04,7.998,90.556,145.986c3.395.4,7.17,4.364,10.036,1.365l-4.461-51.68,34.769,15.918,8.152,10.693,56.062-37.985,2.807.313,27.51,16.39-63.631,65.239,14.523,26.853c17.471,8.273,23.406,24.471,22.532,43.006-.105,2.218-1.782,5.409-1.519,6.965.161.956,8.603,15.576,9.636,16.835,1.29,1.572,8.219,7.075,10.007,7.266l88.614-8.462,25.238,9.759-100.079,19.494,61.11,95.676-41.086-9.836-54.525-64.185c-.747-1.721-8.952-4.589-9.785-3.935l79.712,141.762c-14.596.204-29.239-.275-43.842,0ZM177,48.832c-9.479-1.787-19.606-2.542-29.224-3.539l24.641,101.702-2.502,4.611c4.192,1.992,6.959-2.395,9.817-4.843l-25.757-96.152c7.422,1.055,14.819,1.827,22.139,3.539l.365,3.613-12.837,6.677,25.772,83.274-10.641,8.322c1.733.06,2.518,1.973,4.438,1.452,1.641-.445,11.346-6.486,11.54-8.087l-16.772-52.385c-.612-2.012,1.606-1.111,2.872-1.252l26.774,60.214c6.449,3.868,12.063,9.669,18.685,13.206,4.876,2.604,11.683,3.792,16.173,6.858,1.421.97,13.808,13.218,14.222,14.131.213.47.168,1.504-.43,1.311l-61.14-24.787-1.303.422c2.122,2.426,4.334,4.915,6.195,7.536.926,1.304,1.465,2.813,2.657,4.43.241.326.605.589.886.886.138.146-.172,1.541.886,1.772l113.371,43.858.883,1.322-94.769-33.652c10.524,9.962,26.36,10.205,38.966,16.379-1.361,2.017-1.703.701-3.043.434-11.935-2.384-23.835-6.561-35.632-9.597l-1.174,1.624,75.273,24.393c.393,2.178-1.629,1.328-2.879,1.107-16.826-2.987-38.044-13.699-54.313-15.665-3.98-.481-7.155.772-10.997.82l.876,1.33,97.964,34.076-.534,3.577-37.189-7.084,34.127,13.249-.045,2.704c-15.629-4.497-31.575-7.739-47.372-11.532-4.092-.983-8.223-2.575-12.4-3.544-6.826-1.584-20.934-6.059-27.057-5.361-1.331.152-2.202.09-3.038,1.372l4.481,5.247,28.269,12.93-1.296,1.526c-16.912-5.06-34.147-10.329-51.839-10.845l6.409,6.932,60.894,20.088-96.536-25.687c-3.384.041-6.314,10.426-8.841,13.5-.318.387-5.11,4.487-5.321,4.221,1.935-8.699,7.296-16.128,8.848-24.81.152-.853,1.168-3.226.89-3.537l-12.4-2.656c8.281-.296,17.415-3.555,23.023-9.747l-16.4,3.52-7.507-.859c10.172-3.809,20.828-10.101,26.564-19.496l-7.081,2.211c7.338-7.778,16.625-20.473,10.807-31.199-11.195-20.636-55.19-38.167-77.721-36.63-13.402.915-26.676,8.384-39.041,9.677-16.717,1.748-36.926-1.769-53.296,3.389-5.387,1.697-9.372,3.805-2.839,7.804l-.002,1.305c-4.161.768-2.537,6.761-6.63,8.844,5.992,22.589,26.857,33.914,46.775,42.726,20.51,9.073,42.902,16.704,65.254,19.342-.16,1.298-3.855,1.492-4.98,1.651-3.96.559-8.32.507-12.294,1.006-1.215.152-2.679.497-1.323,1.755,6.672.784,13.789,4.781,20.139,6.002,5.353,1.03,29.818,3.562,34.133,2.665,1.703-.354,4.202-2.066,5.945-2.909.9-.435,3.025-2.206,3.554-.433-3.116,5.487-5.816,17.342-9.731,21.72-3.666,4.1-13.096,6.873-17.284,11.046l-5.471-16.881-91.074-42.462c-1.319,2.555,3.567,4.206,5.448,5.183,26.848,13.945,56,25.142,82.97,39.051,6.126,24.375,11.6,36.793,36.236,45.487,35.526,12.538,74.39,19.891,110.068,32.542l118.673,144.439h33.213c-1.448-4.212-4.025-8.491-6.2-12.405-25.292-45.518-51.373-90.646-76.169-136.446.323-.263,6.313,1.736,7.032,2.259,1.121.816,1.35,2.632,2.742,3.46,2.927,1.741,9.631,1.457,12.821,4.009l61.529,66.921c2.285.723,4.814.719,7.102,1.316,3.534.923,7.398,2.438,11.075,2.67,1.392.088,1.508.158,1.314-1.326l-55.756-82.445c-1.826-2.605-3.734-.613-5.346-.417-3.862.47-7.676,1.141-11.509,1.764l9.723-5.766,99.205-19.91-10.874-4.17-124.221,14.805-11.032-1.796,38.075-7.517-25.057-22.78-57.301-17.552c-.156-1.576,2.989-.937,3.959-.857,13.029,1.068,27.051,4.581,39.468,8.477,6.836-14.161,3.469-31.09-9.772-39.954,3.307-.02,8.557,3.051,11.082,5.748,2.106,2.25,7.081,10.549,7.792,13.471,2.24,9.213-1.129,12.414-2.566,20.196-1.275,6.9,5.459,2.596,7.987-.923,3.94-5.485,4.109-10.699,1.394-16.778l4.241,5.051,4.597,10.007c-1.2-13.398-9.639-27.326-20.98-34.377-8.861-5.509-20.634-9.601-30.382-13.476-.074-1.424-.428-2.002,1.309-1.758,1.773.25,5.903,1.981,8.434,2.654.941.25,12.245,4.354,12.41,2.205l-6.667-14.607c-2.881-.64-4.137,6.832-3.979,8.857l-1.764-.885c-.885-3.381-2.398-9.673-1.82-10.238l69.115-69.065-21.246-11.502-92.957,62.042-.887,1.674,2.625,3.156-23.069-9.49L179.726,49.407c-.65-1.106-1.893-.418-2.726-.575ZM292.139,153.389c-2.388-1.053-5.515-3.628-7.985-3.088,1.791,4.333,3.8,39.057,5.784,39.412,1.193.214,1.955-.994,2.644-1.789l-3.091-32.763c.812.497,1.809.559,2.648.886,4.041,1.574,11.973,4.188,13.285,7.975l-9.738-1.773,2.658,21.266c1.151,1.187,10.16-6.123,11.509-7.089,1.341-.96,5.261-1.394,5.322-3.944.02-.842-4.131-9.25-4.911-10.2-2.518-3.065-13.886-7.024-18.124-8.893Z"/>
  <path class="cls-2" d="M200.028,174.654c1.513-2.288.365-1.616,2.336-1.053,3.056.872,7.122,2.728,10.285,3.934,34.42,13.122,68.098,28.317,102.521,41.432l-1.225,1.671-111.259-41.554c-1.192-1.617-1.731-3.127-2.657-4.43Z"/>
  <path class="cls-4" d="M204.456,181.743c-1.057-.231-.748-1.626-.886-1.772l.886,1.772Z"/>
  <path class="cls-2" d="M429.421,478.576c.167.157,1.93,3.417,1.771,3.535l-25.5-.185-111.825-139.319c-11.116-1.211-11.473-7.005-18.132-12.873-7.279-6.413-18.573-11.171-26.11-17.74l-.891-1.764c.989-.176,1.77.114,2.682.415,4.865,1.607,23.892,11.432,28.076,14.444,3.614,2.601,6.261,9.381,9.143,11.232,3.117,2.002,9.262,1.562,12.397,4.433l100.893,125.012c5.229,5.937,22.76,8.342,27.495,12.809Z"/>
  <path class="cls-2" d="M345.28,337.682l-15.085-2.265-1.563,11.385,40.552,68.434-1.306,1.306-59.758-78.448c-3.857-3.532-9.906-1.626-14.542-4.059-3.953-2.075-8.553-11.201-13.012-14.451-5.105-3.721-13.68-6.42-19.45-9.815-1.146-.674-2.233.156-1.742-2.202l79.346,21.18,6.559,8.935Z"/>
  <path class="cls-2" d="M157.514,296.046c.539-1.781,2.649.005,3.555.433,24.838,11.733,51.472,17.143,77.601,25.252l6.106-2.662-.456-6.186c.222-.285,1.941,1.088,2.649.885,7.421,7.108,17.484,12.06,25.222,18.627,1.142.969,4.731,3.69,3.573,5.286l-101.899-30.082c-4.916-3.611-11.89-7.667-16.351-11.553Z"/>
  <path class="cls-2" d="M286.553,291.008c1.744,1.478,7.925,11.114,9.674,13.796.491.754,2.176,1.969.79,2.754-5.738-3.094-9.438-10.603-15.247-13.101-22.962-9.877-52.806-14.056-76.384-23.709l-11.551-1.274,13.486-3.39c19.268,8.801,64.087,12.084,79.232,24.924Z"/>
  <path class="cls-2" d="M446.249,409.462c2.56,1.872,4.29,2.983,6.196,5.764-1.33,1.055-3.825-.049-5.31-.447-2.019-.542-6.938-2.259-8.435-3.523l-54.444-59.835,8.887,2.628c16.084,16.21,30.731,35.526,46.883,51.45,2.762,2.723,4.397,2.628,6.224,3.964Z"/>
  <path class="cls-2" d="M152.2,286.299c-.214-.579-1.1-1.095-.503-1.78l16.429-10.621c.841,3.507,3.536,5.885,6.217,7.97,2.697,2.098,8.158,5.46,11.266,6.894,15.925,7.35,36.021,11.276,52.502,17.927-.425,1.728-2.216,2.043-3.748,1.603-16.78-6.283-35.946-9.387-52.51-15.773-4.77-1.839-17.663-10.178-21.011-9.619-2.58.43-5.431,3.825-8.641,3.398Z"/>
  <path class="cls-7" d="M396.651,342.121c-.064.278.048.599,0,.886l-3.201,5.388c-14.227-4.534-31.93-7.598-40.197-21.328,2.138-1.744,30.677,17.952,38.303,16.674,1.561-.262,3.93-3.035,5.096-1.62Z"/>
  <path class="cls-2" d="M347.052,183.524l-27.521,24.371-14.987-1.352,12.627-3.744c9.715-6.866,18.134-15.759,29.88-19.274Z"/>
  <path class="cls-2" d="M343.504,301.358c-6.246.341-4.843-9.825-7.994-11.93-10.391-3.751-22.406-5.947-32.568-9.992-1.348-.537-2.393.512-1.942-1.993,13.88.958,26.663,6.378,39.851,10.185l2.652,13.729Z"/>
  <polygon class="cls-5" points="82.834 166.262 82.834 170.564 97.278 186.339 123.878 203.885 129.598 205.732 142.326 203.885 179.359 198.296 184.044 187.831 186.373 183.436 184.044 179.221 172.131 168.007 156.779 159.683 140.687 154.073 126.127 152.11 116.155 153.248 99.164 158.362 82.834 166.262"/>
  <path class="cls-2" d="M182.115,199.264l-50.97,9.703c-1.424.161-2.8-.243-4.128-.687-7.199-2.406-43.371-29.895-46.094-36.3-.68-1.599-.86-4.908-.315-6.489.513-1.486,14.722-7.399,17.332-8.349,13.995-5.091,25.407-7.707,40.44-5.433,14.565,2.203,38.375,15.207,47.861,26.547,5.213,6.232-2.779,14.081-4.125,21.008ZM138.029,158.705c-.27-.933-.423-3.334-1.475-3.583-5.613-.883-10.553-1.398-15.723-.772-7.485.907-22.254,6.363-29.449,9.524-2.068.909-5.275,1.808-6.495,3.683l16.822-4.418c.405,3.071-.151,5.619-.735,8.575-.234,1.183-.166,1.591,1.166,1.155,1.867-.611,16.51-10.594,17.283-9.73l-2.643,17.717,8.843-7.084,2.214,13.282,5.773-12.394,2.636,6.191c.638-7.779,4-14.484,1.781-22.147ZM168.418,167.348c-1.976-1.055-2.884-1.958-5.257-3.22-2.432-1.293-18.623-8.23-19.814-7.189,2.356,9.207.332,18.641-2.66,27.453l6.195-3.531-.443,8.852,11.066-13.286-2.639,15.063c2.483-1.601,3.987-4.652,5.936-6.84.526-.59.731-.671,2.056-1.796l-.476,9.517,9.296-9.741-1.754,10.632,6.182-5.316.447,5.311c2.616-1.712,8.248-6.432,7.407-9.992-.427-1.807-9.382-10.915-11.378-12.604s-2.472-2.409-4.163-3.313ZM113.23,187.059v-15.949s-13.719,6.212-13.719,6.212l-.457-9.758-13.29,3.112c.088,4.701,33.095,28.488,38.935,31.983,5.213-3.246,10.312-10.144,8.006-16.484l-5.752,7.083-4.424-12.383-9.299,6.185ZM146.001,194.148c-.865.716-1.105,1.074-1.771,1.772-1.568-.809-.448-8.147-3.086-7.08-1.905.77-5.199,12.578-7.542,15.045l33.608-5.352.044-7.039-7.957,5.312-.447-5.312-7.524,6.198.872-9.742c-.898-.988-6.564,4.472-6.195,6.198ZM174.338,193.266c-1.063-1.247-4.139,3.643-4.424,4.417l4.433.014-.009-4.43Z"/>
  <path class="cls-7" d="M131.829,226.941c-.393.997-2.156,3.073-3.071,3.201-1.099.153-19.213-3.832-21.734-4.533-16.058-4.466-49.67-18.558-62.415-28.823-2.788-2.245-18.063-18.582-18.035-20.81.007-.524,2.259-2.938,3.421-1.827,23.242,31.589,64.72,45.436,101.834,52.793Z"/>
  <path class="cls-7" d="M176.993,203.897c.649,2.315-2.159,2.331-3.734,2.887-8.771,3.096-30.969,10.159-39.451,11.069-6.009.644-9.503-.733-14.297-3.85-13.637-8.868-25.947-20.817-39.051-30.479,1.623-.377,2.452.546,3.667,1.196,15.032,8.038,28.631,23.598,45.03,29.453l47.837-10.275Z"/>
  <path class="cls-7" d="M80.459,162.258c-4.432,4.451-3.461,9.234.886,13.273-5.417,1.283-7.748-6.038-9.462-6.917-6.314-3.24-26.347-3.592-33.252-1.692-3.82,1.051-5.091,3.492-8.656,4.179,1.218-2.207,1.184-3.976,0-6.185,9.274.085,17.629-2.227,27.055-1.824,4.727.202,11.687,2.329,15.916,1.881,2.97-.315,4.388-3.097,7.512-2.714Z"/>
  <path class="cls-2" d="M162.824,164.912l-1.757,12.4,4.41-3.544c.459.987.965,6.174,1.325,7.967l7.532-7.081.018,7.088,4.415-2.653c1.353,6.022.032,7.966-.452,9.733l-1.324-5.307-4.41,4.426-.018-8.856-7.524,7.084-.447-7.97-6.182,5.316,2.639-15.063-12.838,15.058-.447-7.084-4.419,1.763c.502-3.654,2.631-4.014,5.747-5.317l.891,5.321c2.091-.681,11.238-15.079,12.842-13.282Z"/>
  <path class="cls-2" d="M124.739,156.051l-1.757,12.401,5.294-3.542.906,7.972,5.748-7.956c2.067,1.923,2.294,4.568,1.317,7.064l-.883-2.651-6.202,10.626-1.765-10.622-7.072,4.426,1.753-15.063-18.585,9.742.923-7.946,2.612-.025.437,2.653,17.274-7.078Z"/>
  <polygon class="cls-2" points="347.847 301.366 345.291 289.405 361.437 294.283 380.685 312.89 356.152 316.475 357.41 312.89 358.668 302.94 347.847 301.366"/>
  <polygon class="cls-2" points="304.545 308.471 345.291 319.904 349.426 307.559 337.256 307.559 336.019 310.177 304.545 308.471"/>
  <polygon class="cls-2" points="194.802 253.687 290.47 280.676 288.368 277.443 193.835 248.169 194.802 253.687"/>
  <polygon class="cls-2" points="285.311 192.346 327.06 164.907 329.728 167.809 286.569 196.846 285.311 192.346"/>
  <polygon class="cls-2" points="269.079 189.737 284.154 195.709 282.669 197.882 267.444 192.346 269.079 189.737"/>
  <polygon class="cls-2" points="386.996 477.181 401.45 495.086 449.893 495.086 445.502 487.584 441.714 491.563 406.357 492.695 389.873 476.086 386.996 477.181"/>
  <polygon class="cls-2" points="334.645 227.817 408.159 147.203 385.008 165.586 331.996 220.639 334.645 227.817"/>
</svg>